<svg width="23" height="23" viewBox="0 0 23 23" fill="none" xmlns="http://www.w3.org/2000/svg">
<path fill-rule="evenodd" clip-rule="evenodd" d="M10.7763 8.82055C7.71991 6.20195 4.52002 3.75569 1.19145 1.49317C1.08871 1.49067 0.986532 1.50906 0.891111 1.54722C0.795691 1.58539 0.709017 1.64255 0.636347 1.71522C0.563677 1.78789 0.506524 1.87456 0.468356 1.96998C0.430187 2.0654 0.411801 2.16758 0.414307 2.27032C0.303286 2.86243 2.43118 4.58325 3.74493 5.97101C8.13736 10.7633 13.0109 15.0912 18.2887 18.8864C18.5477 19.1455 19.917 20.5147 20.6016 20.5703C20.7765 20.592 20.9539 20.5628 21.1125 20.4862C21.2712 20.4097 21.4044 20.2889 21.4962 20.1385C21.588 19.9881 21.6345 19.8145 21.6301 19.6383C21.6257 19.4622 21.5705 19.2911 21.4713 19.1455C21.2677 18.8679 13.6258 11.3 10.7763 8.82055Z" fill="#E85B4D"/>
<path fill-rule="evenodd" clip-rule="evenodd" d="M16.1568 7.68369C20.5421 2.66924 21.7449 1.87359 20.8752 0.8559C20.7346 0.69402 20.5372 0.592263 20.3237 0.571608C20.1103 0.550952 19.8971 0.612973 19.728 0.74488C19.728 0.74488 20.3571 -0.0692743 14.214 5.88884C10.6898 9.18382 7.40631 12.7271 4.3886 16.4913C3.31923 17.6993 2.34198 18.9859 1.46505 20.3401C1.45047 20.4421 1.45614 20.546 1.48172 20.6459C1.50731 20.7458 1.55232 20.8396 1.61417 20.9221C1.67603 21.0046 1.75352 21.0741 1.84223 21.1266C1.93094 21.1791 2.02912 21.2136 2.13118 21.2282C2.72329 21.3763 4.61064 19.1928 5.94289 18.0086C9.65553 14.8859 13.0744 11.4299 16.1568 7.68369Z" fill="#E85B4D"/>
</svg>
