<svg width="180" height="38" viewBox="0 0 180 38" fill="none" xmlns="http://www.w3.org/2000/svg">
<path d="M20.8211 35.474C18.0421 35.474 15.5158 35.095 13.2421 34.4634C10.9684 33.8318 8.94737 32.8213 7.30526 31.4318C5.66316 30.0424 4.4 28.274 3.38947 26.2529C2.50526 24.2318 2 21.7055 2 18.9266C2 16.0213 2.50526 13.495 3.51579 11.3476C4.52632 9.20027 5.91579 7.43185 7.68421 6.04237C9.45263 4.6529 11.3474 3.76869 13.6211 3.13711C15.8947 2.50553 18.1684 2.2529 20.5684 2.2529C22.7158 2.2529 24.7368 2.50553 26.5053 3.01079C28.2737 3.51606 30.0421 4.14764 31.5579 4.77922V13.3687H30.1684C29.7895 12.9897 29.2842 12.6108 28.779 12.2318C28.2737 11.7266 27.5158 11.3476 26.7579 10.9687C26 10.5897 25.1158 10.2108 24.2316 9.95816C23.3474 9.70553 22.2105 9.57922 21.0737 9.57922C18.4211 9.57922 16.2737 10.4634 14.8842 12.1055C13.4947 13.874 12.7368 16.1476 12.7368 19.0529C12.7368 22.0845 13.4947 24.3582 15.0105 26.0003C16.5263 27.5161 18.6737 28.4003 21.3263 28.4003C22.5895 28.4003 23.7263 28.274 24.7368 28.0213C25.7474 27.7687 26.6316 27.3897 27.2632 27.0108C27.8947 26.6318 28.4 26.2529 28.9053 25.874C29.4105 25.495 29.7895 25.1161 30.2947 24.6108H31.6842V32.9476C30.0421 33.7055 28.4 34.3371 26.6316 34.7161C24.7368 35.2213 22.8421 35.474 20.8211 35.474Z" stroke="#B3C072" stroke-width="3" stroke-miterlimit="10"/>
<path d="M70.466 18.8C70.466 23.9789 68.9502 28.1474 65.9186 31.0526C62.887 34.0842 58.5923 35.6 53.1607 35.6C47.7292 35.6 43.4344 34.0842 40.4028 31.0526C37.3713 28.0211 35.8555 23.9789 35.8555 18.8C35.8555 13.6211 37.3713 9.45263 40.4028 6.42105C43.4344 3.38947 47.7292 2 53.1607 2C58.7186 2 62.887 3.51579 65.9186 6.54737C68.9502 9.45263 70.466 13.6211 70.466 18.8ZM58.087 26.5053C58.7186 25.7474 59.2239 24.7368 59.6028 23.6C59.9818 22.4632 60.1081 20.9474 60.1081 18.9263C60.1081 17.0316 59.9818 15.5158 59.6028 14.2526C59.2239 12.9895 58.8449 11.9789 58.2134 11.2211C57.5818 10.4632 56.9502 9.95789 56.066 9.57895C55.1818 9.2 54.2976 9.07368 53.287 9.07368C52.2765 9.07368 51.3923 9.2 50.6344 9.45263C49.8765 9.70526 49.1186 10.2105 48.487 10.9684C47.8555 11.7263 47.3502 12.7368 46.9713 14C46.5923 15.2632 46.466 16.9053 46.466 18.8C46.466 20.5684 46.5923 21.9579 46.9713 23.3474C47.3502 24.6105 47.7292 25.6211 48.3607 26.3789C48.9923 27.1368 49.6239 27.6421 50.5081 28.0211C51.3923 28.4 52.2765 28.5263 53.4134 28.5263C54.2976 28.5263 55.1818 28.4 56.066 28.0211C56.6976 27.7684 57.4555 27.2632 58.087 26.5053Z" stroke="#B3C072" stroke-width="3" stroke-miterlimit="10"/>
<path d="M105.071 34.5892H75.3867V28.0208L91.9341 10.3366H76.0183V3.01028H104.692V9.32607L88.3973 27.0103H105.071V34.5892Z" stroke="#B3C072" stroke-width="3" stroke-miterlimit="10"/>
<path d="M139.434 34.5892H109.75V28.0208L126.424 10.3366H110.382V3.01028H139.055V9.32607L122.761 27.0103H139.434V34.5892Z" stroke="#B3C072" stroke-width="3" stroke-miterlimit="10"/>
<path d="M177.703 20.6949H154.461C154.587 23.2212 155.598 25.1159 157.24 26.3791C159.008 27.6422 161.534 28.4001 164.945 28.4001C167.092 28.4001 169.113 28.0212 171.134 27.2633C173.155 26.5054 174.671 25.6212 175.934 24.737H177.071V32.8212C174.798 33.7054 172.65 34.4633 170.629 34.8422C168.608 35.2212 166.334 35.4738 163.934 35.4738C157.619 35.4738 152.692 34.0843 149.408 31.1791C145.998 28.2738 144.355 24.2317 144.355 19.0527C144.355 13.8738 145.998 9.70538 149.155 6.6738C152.313 3.64222 156.734 2.12643 162.292 2.12643C167.471 2.12643 171.261 3.38959 173.913 6.04222C176.566 8.69485 177.829 12.358 177.829 17.2843V20.6949H177.703ZM167.598 14.758C167.598 12.6106 166.966 11.0949 166.082 9.95801C165.071 8.94749 163.555 8.31591 161.408 8.31591C159.513 8.31591 157.871 8.82117 156.608 9.8317C155.345 10.8422 154.587 12.4843 154.461 14.758H167.598Z" stroke="#B3C072" stroke-width="3" stroke-miterlimit="10"/>
</svg>
