<svg width="84" height="84" viewBox="0 0 84 84" fill="none" xmlns="http://www.w3.org/2000/svg">
<path d="M70.4454 2C70.4454 2 70.4454 8.25784 78.4099 16.7557C78.7654 17.1113 79.3699 17.8224 79.6543 18.1779C80.7584 19.6347 81.5011 21.3327 81.8214 23.1323C82.1418 24.9319 82.0307 26.7818 81.4972 28.5301C80.9637 30.2785 80.023 31.8753 78.7525 33.1894C77.482 34.5036 75.9179 35.4976 74.1886 36.0898C72.4593 36.6821 70.6142 36.8556 68.8048 36.5962C66.9954 36.3368 65.2733 35.6519 63.78 34.5977C62.2868 33.5434 61.0649 32.15 60.2148 30.5318C59.3646 28.9137 58.9105 27.1169 58.8897 25.2891C58.7219 20.7516 59.6911 16.2442 61.7093 12.1767C63.7275 8.10931 66.7306 4.611 70.4454 2V2Z" stroke="#B3C072" stroke-width="3" stroke-linecap="round" stroke-linejoin="round"/>
<path d="M70.4465 82.0008C71.6233 81.9996 72.7872 81.755 73.8649 81.2823C74.9427 80.8097 75.911 80.1193 76.7091 79.2544C77.5071 78.3895 78.1177 77.369 78.5024 76.2568C78.8871 75.1446 79.0375 73.9649 78.9444 72.7918L74.9621 35.7426C73.5157 36.375 71.9541 36.7015 70.3754 36.7015C68.7967 36.7015 67.2351 36.375 65.7887 35.7426L61.9487 72.7918C61.8555 73.9649 62.006 75.1446 62.3907 76.2568C62.7753 77.369 63.3859 78.3895 64.184 79.2544C64.9821 80.1193 65.9504 80.8097 67.0281 81.2823C68.1059 81.755 69.2697 81.9996 70.4465 82.0008V82.0008Z" stroke="#B3C072" stroke-width="3" stroke-linecap="round" stroke-linejoin="round"/>
<path d="M30.4453 18.2845L39.3343 26.0002L48.2233 18.2845" stroke="#B3C072" stroke-width="3" stroke-linecap="round" stroke-linejoin="round"/>
<path d="M30.4453 63.3339H48.2233" stroke="#B3C072" stroke-width="3" stroke-linecap="round" stroke-linejoin="round"/>
<path d="M30.4453 49.1116H48.2233" stroke="#B3C072" stroke-width="3" stroke-linecap="round" stroke-linejoin="round"/>
<path d="M19.7779 65.7162L10.889 82.0007L2 65.7162V10.889C2 8.53147 2.93651 6.27053 4.60352 4.60352C6.27053 2.93651 8.53147 2 10.889 2V2C12.0563 2 13.2122 2.22992 14.2906 2.67663C15.3691 3.12335 16.349 3.7781 17.1744 4.60352C17.9998 5.42894 18.6546 6.40885 19.1013 7.48731C19.548 8.56577 19.7779 9.72166 19.7779 10.889V65.7162Z" stroke="#B3C072" stroke-width="3" stroke-linecap="round" stroke-linejoin="round"/>
<path d="M2 58.8894H19.7779" stroke="#B3C072" stroke-width="3" stroke-linecap="round" stroke-linejoin="round"/>
<path d="M2 19.2802H19.7779" stroke="#B3C072" stroke-width="3" stroke-linecap="round" stroke-linejoin="round"/>
<path d="M30.4453 18.2846L39.3343 2L48.2233 18.2846V73.1118C48.2233 75.4693 47.2867 77.7302 45.6197 79.3972C43.9527 81.0642 41.6918 82.0007 39.3343 82.0007C36.9768 82.0007 34.7158 81.0642 33.0488 79.3972C31.3818 77.7302 30.4453 75.4693 30.4453 73.1118V18.2846Z" stroke="#B3C072" stroke-width="3" stroke-linecap="round" stroke-linejoin="round"/>
</svg>
