<svg width="84" height="84" viewBox="0 0 84 84" fill="none" xmlns="http://www.w3.org/2000/svg">
<path d="M60.6654 82C72.4474 82 81.9987 72.4487 81.9987 60.6666C81.9987 48.8846 72.4474 39.3333 60.6654 39.3333C48.8833 39.3333 39.332 48.8846 39.332 60.6666C39.332 72.4487 48.8833 82 60.6654 82Z" stroke="#B3C072" stroke-width="3" stroke-linecap="round" stroke-linejoin="round"/>
<path d="M60.668 50V71.3333" stroke="#B3C072" stroke-width="3" stroke-linecap="round" stroke-linejoin="round"/>
<path d="M60.668 71.3333L52.668 63.3333" stroke="#B3C072" stroke-width="3" stroke-linecap="round" stroke-linejoin="round"/>
<path d="M60.668 71.3333L68.668 63.3333" stroke="#B3C072" stroke-width="3" stroke-linecap="round" stroke-linejoin="round"/>
<path d="M28.6667 71.3333H7.33333C5.91886 71.3333 4.56228 70.7716 3.5621 69.7714C2.5619 68.7712 2 67.4144 2 66V7.33333C2 5.91886 2.5619 4.56228 3.5621 3.5621C4.56228 2.5619 5.91886 2 7.33333 2H45.1253C46.5387 2.0003 47.8944 2.56171 48.8942 3.56089L59.1058 13.7724C60.1049 14.7723 60.6663 16.1278 60.6667 17.5413V28.6667" stroke="#B3C072" stroke-width="3" stroke-linecap="round" stroke-linejoin="round"/>
<path d="M18.0013 22C17.2649 22 16.668 21.403 16.668 20.6666C16.668 19.9303 17.2649 19.3333 18.0013 19.3333" stroke="#B3C072" stroke-width="3"/>
<path d="M18 22C18.7364 22 19.3333 21.403 19.3333 20.6666C19.3333 19.9303 18.7364 19.3333 18 19.3333" stroke="#B3C072" stroke-width="3"/>
<path d="M42.3035 33.4166L39.3346 28.6663C39.0943 28.305 38.7697 28.0077 38.3881 27.8006C38.007 27.5934 37.5807 27.4826 37.1469 27.4776C36.7131 27.4727 36.2843 27.5739 35.8985 27.7724C35.5128 27.9709 35.181 28.2607 34.9329 28.6166L27.8217 38.7535L23.4413 35.2441C23.1527 35.0127 22.8192 34.8441 22.462 34.7486C22.1047 34.6531 21.7314 34.633 21.366 34.6895C21.0005 34.746 20.6508 34.8779 20.339 35.077C20.0273 35.2758 19.7603 35.5375 19.5551 35.845L12.668 49.9997H28.668" stroke="#B3C072" stroke-width="3" stroke-linecap="round" stroke-linejoin="round"/>
</svg>
