<svg width="7" height="5" viewBox="0 0 7 5" fill="none" xmlns="http://www.w3.org/2000/svg">
<path fill-rule="evenodd" clip-rule="evenodd" d="M5.82746 1.32373L5.2958 2.0154C5.12148 2.25761 4.92964 2.48869 4.72161 2.70707C4.51897 2.92796 4.30239 3.13763 4.07299 3.33497C3.99324 3.40856 3.87627 3.52138 3.75399 3.61949C3.69521 3.67603 3.62469 3.72108 3.54664 3.75194C3.54664 3.75194 3.46158 3.69798 3.41905 3.66364C3.37651 3.6293 3.2436 3.48704 3.1798 3.42818L1.77622 2.16257C1.20735 1.60825 1.33495 1.59844 1.18076 1.59844C1.13282 1.59844 1.08684 1.61601 1.05295 1.64729C1.01905 1.67857 1 1.72099 1 1.76523C1.00233 1.84372 1.02808 1.92011 1.07443 1.98597C1.18496 2.14457 1.30568 2.29691 1.43596 2.44218L2.67472 3.83533C2.81548 4.00951 2.9819 4.16471 3.16917 4.29644C3.31024 4.3826 3.47942 4.42076 3.64766 4.40437C3.7894 4.37574 3.92329 4.32065 4.04109 4.24248C4.23276 4.10722 4.41071 3.95617 4.57274 3.79118C4.80423 3.56115 5.02081 3.31873 5.22137 3.06517C5.41898 2.81236 5.59666 2.54679 5.75303 2.27049C6.35912 1.22072 6.50267 1.30902 6.35912 1.15204C6.32277 1.11189 6.27123 1.086 6.21495 1.07962C6.15867 1.07324 6.10187 1.08686 6.05607 1.11771C5.96691 1.17297 5.88944 1.24279 5.82746 1.32373Z" fill="white" stroke="white"/>
</svg>
