<svg width="22" height="23" viewBox="0 0 22 23" fill="none" xmlns="http://www.w3.org/2000/svg">
<path d="M10.9985 13.3989C13.1227 13.3989 14.8447 11.6769 14.8447 9.5527C14.8447 7.42852 13.1227 5.70654 10.9985 5.70654C8.87433 5.70654 7.15234 7.42852 7.15234 9.5527C7.15234 11.6769 8.87433 13.3989 10.9985 13.3989Z" stroke="#B3C072" stroke-width="2" stroke-linecap="round" stroke-linejoin="round"/>
<path d="M4.42969 19.3988C5.11621 18.2719 6.08108 17.3406 7.23154 16.6943C8.382 16.0481 9.67937 15.7086 10.9989 15.7086C12.3185 15.7086 13.6158 16.0481 14.7663 16.6943C15.9168 17.3406 16.8816 18.2719 17.5681 19.3988" stroke="#B3C072" stroke-width="2" stroke-linecap="round" stroke-linejoin="round"/>
<path d="M11 21.8604C16.5228 21.8604 21 17.3832 21 11.8604C21 6.3375 16.5228 1.86035 11 1.86035C5.47715 1.86035 1 6.3375 1 11.8604C1 17.3832 5.47715 21.8604 11 21.8604Z" stroke="#B3C072" stroke-width="2" stroke-linecap="round" stroke-linejoin="round"/>
</svg>
