<svg width="23" height="23" viewBox="0 0 23 23" fill="none" xmlns="http://www.w3.org/2000/svg">
<path d="M16.2748 11.4652C16.2746 12.3747 15.9946 13.2639 15.4698 14.0212C14.945 14.7784 14.1989 15.3699 13.3252 15.7214C12.4514 16.0729 11.489 16.1686 10.5587 15.9967C9.62841 15.8248 8.77179 15.3928 8.09639 14.755C7.421 14.1172 6.95694 13.302 6.7625 12.4118C6.56806 11.5216 6.65191 10.5961 7.0035 9.75157C7.3551 8.907 7.95878 8.18099 8.73873 7.66471C9.51867 7.14844 10.4401 6.86492 11.3873 6.84976C12.0254 6.83955 12.6591 6.95139 13.2516 7.17876C13.8442 7.40613 14.3836 7.74448 14.8385 8.17408C15.2935 8.60368 15.6547 9.11593 15.9013 9.68097C16.1479 10.246 16.2749 10.8525 16.2748 11.4652V11.4652Z" stroke="#B3C072" stroke-width="2" stroke-linecap="round" stroke-linejoin="round"/>
<path d="M16.2711 11.4651V13.4651C16.2711 18.8344 25.0364 13.7728 20.4374 6.48048C19.5114 4.96209 18.1896 3.70123 16.6022 2.82186C15.0148 1.9425 13.2163 1.47492 11.3837 1.46509C9.84398 1.46965 8.32451 1.80188 6.93461 2.43785C5.54471 3.07383 4.31896 3.99773 3.34557 5.14307C2.37219 6.2884 1.67539 7.62667 1.30533 9.06155C0.935265 10.4964 0.901144 11.9922 1.20542 13.4413C1.5097 14.8904 2.14481 16.2566 3.06503 17.4418C3.98526 18.6269 5.16771 19.6015 6.52727 20.2953C7.88684 20.9891 9.3897 21.3848 10.9277 21.4541C12.4657 21.5234 14.0005 21.2644 15.4218 20.6959" stroke="#B3C072" stroke-width="2" stroke-linecap="round" stroke-linejoin="round"/>
</svg>
