<svg width="84" height="84" viewBox="0 0 84 84" fill="none" xmlns="http://www.w3.org/2000/svg">
<path d="M65.9992 23.3331V17.9998C65.9992 16.5853 65.4374 15.2288 64.4372 14.2286C63.4371 13.2284 62.0803 12.6665 60.6659 12.6665H28.6663V7.33326C28.6663 5.91881 28.1044 4.56224 27.1042 3.56208C26.1041 2.5619 24.7475 2 23.3331 2H7.33326C5.91881 2 4.56224 2.5619 3.56208 3.56208C2.56189 4.56224 2 5.91881 2 7.33326V65.2881" stroke="#B3C072" stroke-width="3" stroke-linecap="round" stroke-linejoin="round"/>
<path d="M12.6641 71.3324V28.6663C12.6641 27.2518 13.226 25.8953 14.2261 24.8951C15.2263 23.8949 16.5829 23.333 17.9973 23.333H71.33C72.7444 23.333 74.1011 23.8949 75.1013 24.8951C76.1015 25.8953 76.6632 27.2518 76.6632 28.6663V33.9995" stroke="#B3C072" stroke-width="3" stroke-linecap="round" stroke-linejoin="round"/>
<path d="M76.6686 33.9996H28.6692C25.7237 33.9996 23.3359 36.3875 23.3359 39.3329V76.6657C23.3359 79.6111 25.7237 81.999 28.6692 81.999H76.6686C79.614 81.999 82.0018 79.6111 82.0018 76.6657V39.3329C82.0018 36.3875 79.614 33.9996 76.6686 33.9996Z" stroke="#B3C072" stroke-width="3" stroke-linecap="round" stroke-linejoin="round"/>
<path d="M39.3333 51.3328C38.597 51.3328 38 50.7358 38 49.9995C38 49.2631 38.597 48.6661 39.3333 48.6661" stroke="#B3C072" stroke-width="3"/>
<path d="M39.332 51.3328C40.0684 51.3328 40.6653 50.7358 40.6653 49.9995C40.6653 49.2631 40.0684 48.6661 39.332 48.6661" stroke="#B3C072" stroke-width="3"/>
<path d="M71.3347 71.3325L60.9882 55.8127C60.7478 55.4504 60.4229 55.1524 60.041 54.9444C59.6595 54.7365 59.2325 54.6252 58.798 54.6198C58.3632 54.6145 57.934 54.7155 57.5472 54.9142C57.1607 55.113 56.8283 55.4031 56.5794 55.7594L49.4684 65.8961L45.0737 62.3797C44.7847 62.1493 44.4512 61.9812 44.0938 61.8862C43.7365 61.7913 43.3632 61.7717 42.998 61.8286C42.6325 61.8852 42.283 62.0174 41.9716 62.2162C41.6597 62.4153 41.3927 62.6766 41.1876 62.9842L35.6445 71.3325" stroke="#B3C072" stroke-width="3" stroke-linecap="round" stroke-linejoin="round"/>
</svg>
