<svg width="34" height="34" viewBox="0 0 34 34" fill="none" xmlns="http://www.w3.org/2000/svg">
<g clip-path="url(#clip0_877_4707)">
<path d="M17 0C7.61175 0 0 7.61175 0 17C0 26.3882 7.61175 34 17 34C26.3882 34 34 26.3882 34 17C34 7.61175 26.3882 0 17 0ZM14.1667 22.6667H11.3333V14.1667H14.1667V22.6667ZM12.75 12.9044C11.8901 12.9044 11.1917 12.2017 11.1917 11.3333C11.1917 10.4663 11.8887 9.76225 12.75 9.76225C13.6113 9.76225 14.3083 10.4663 14.3083 11.3333C14.3083 12.2017 13.6099 12.9044 12.75 12.9044ZM24.0833 22.6667H21.2528V18.6136C21.2528 15.9488 18.4167 16.1741 18.4167 18.6136V22.6667H15.5833V14.1667H18.4167V15.7151C19.652 13.4257 24.0833 13.2557 24.0833 17.9081V22.6667Z" fill="#B3C072"/>
</g>
<defs>
<clipPath id="clip0_877_4707">
<rect width="34" height="34" fill="white"/>
</clipPath>
</defs>
</svg>
