<svg width="5" height="7" viewBox="0 0 5 7" fill="none" xmlns="http://www.w3.org/2000/svg">
<path fill-rule="evenodd" clip-rule="evenodd" d="M1.24573 1.5429L1.9374 2.07456C2.17961 2.24888 2.41069 2.44072 2.62907 2.64875C2.84996 2.85139 3.05962 3.06797 3.25697 3.29738C3.33055 3.37712 3.44338 3.49409 3.54149 3.61637C3.59803 3.67515 3.64307 3.74567 3.67394 3.82372C3.67394 3.82372 3.61998 3.90878 3.58564 3.95132C3.5513 3.99385 3.40904 4.12676 3.35017 4.19056L2.08457 5.59414C1.53025 6.16301 1.52044 6.03542 1.52044 6.1896C1.52044 6.23754 1.53801 6.28352 1.56929 6.31742C1.60057 6.35132 1.64299 6.37036 1.68722 6.37036C1.76572 6.36803 1.84211 6.34228 1.90797 6.29593C2.06657 6.18541 2.21891 6.06468 2.36418 5.9344L3.75733 4.69564C3.93151 4.55488 4.08671 4.38846 4.21844 4.20119C4.3046 4.06012 4.34275 3.89094 4.32636 3.7227C4.29773 3.58096 4.24264 3.44707 4.16448 3.32928C4.02922 3.1376 3.87817 2.95965 3.71318 2.79762C3.48315 2.56613 3.24072 2.34955 2.98717 2.14899C2.73436 1.95138 2.46878 1.77371 2.19249 1.61733C1.14272 1.01124 1.23101 0.867696 1.07404 1.01124C1.03389 1.04759 1.00799 1.09913 1.00162 1.15541C0.995238 1.21169 1.00885 1.26849 1.0397 1.31429C1.09497 1.40345 1.16479 1.48092 1.24573 1.5429Z" fill="#E85B4D" stroke="#E85B4D"/>
</svg>
