<svg xmlns="http://www.w3.org/2000/svg" viewBox="0 0 28.48 16.11"><defs><style>.a{fill:#e85b4d;fill-rule:evenodd;}</style></defs><path class="a" d="M1.54,1.47a.75.75,0,0,0-.09.3.77.77,0,0,0,0,.3.74.74,0,0,0,.14.28.72.72,0,0,0,.24.19c.29.16,6,.53,6.51.55a133.28,133.28,0,0,0,18-.91A.92.92,0,0,0,27,1.92a.89.89,0,0,0,.26-.63A.89.89,0,0,0,26.35.4,88.52,88.52,0,0,0,8.3.53C5.73.82,1.88.71,1.54,1.47Z" transform="translate(0 0)"/><path class="a" d="M12.87,6.86A106.82,106.82,0,0,0,.92,8.46a.64.64,0,0,0-.18.25A.77.77,0,0,0,.68,9a.8.8,0,0,0,.06.3.72.72,0,0,0,.18.25c.34.49,3.06.21,5,.26A94.83,94.83,0,0,0,25.3,8.67c.37,0,2.31,0,2.83-.45a.91.91,0,0,0,.3-.42.89.89,0,0,0,0-.51.85.85,0,0,0-.26-.45.93.93,0,0,0-.46-.24C27.4,6.55,16.64,6.6,12.87,6.86Z" transform="translate(0 0)"/><path class="a" d="M19.65,15.73c6.65-.44,8.06-.15,8.17-1.49a.91.91,0,0,0-.19-.59.84.84,0,0,0-.55-.3s1-.13-7.53-.26a101.11,101.11,0,0,0-14.45.55,33.62,33.62,0,0,0-4.79.65.87.87,0,0,0-.2.23.77.77,0,0,0-.1.29.81.81,0,0,0,0,.31.87.87,0,0,0,.14.27c.31.53,3.19.32,5,.42A79.13,79.13,0,0,0,19.65,15.73Z" transform="translate(0 0)"/></svg>