<svg width="76" height="84" viewBox="0 0 76 84" fill="none" xmlns="http://www.w3.org/2000/svg">
<path d="M47.5508 31.3333L74.2175 18C72.4717 13.6327 69.5575 9.82983 65.7951 7.00779C62.0322 4.18574 57.5657 2.45327 52.8841 2L47.5508 31.3333Z" stroke="#B3C072" stroke-width="3" stroke-linecap="round" stroke-linejoin="round"/>
<path d="M66.6464 21.7334C63.1299 16.1997 57.5719 12.2771 51.1797 10.8178" stroke="#B3C072" stroke-width="3" stroke-linecap="round" stroke-linejoin="round"/>
<path d="M36.8845 47.1204L39.1245 14.8713C39.1437 14.5637 39.1004 14.2554 38.9969 13.9651C38.8938 13.6747 38.7324 13.4085 38.5229 13.1824C38.3132 12.9563 38.06 12.7751 37.7784 12.6498C37.4968 12.5246 37.1928 12.4578 36.8845 12.4535C29.4677 12.4298 22.2374 14.7782 16.2499 19.1558C10.2625 23.5334 5.83166 29.7107 3.6046 36.7855C1.37751 43.8603 1.47091 51.4617 3.87113 58.4797C6.27138 65.4977 10.8526 71.5641 16.9458 75.7935C23.039 80.0225 30.3248 82.1928 37.7389 81.9866C45.153 81.7807 52.3071 79.2097 58.156 74.6486C64.0053 70.0879 68.2428 63.7761 70.2495 56.6358C72.2563 49.4955 71.9278 41.9005 69.3112 34.9604C69.1786 34.6266 68.9809 34.3228 68.7292 34.0665C68.4778 33.8102 68.1777 33.6066 67.8467 33.4676C67.5157 33.3286 67.1605 33.2569 66.8014 33.2568C66.4422 33.2566 66.0867 33.3281 65.7557 33.4669L36.8845 47.1204Z" stroke="#B3C072" stroke-width="3" stroke-linecap="round" stroke-linejoin="round"/>
<path d="M58.5717 36.8448C60.0664 40.0658 60.8544 43.5695 60.8828 47.1204C60.886 51.9375 59.4392 56.644 56.7313 60.628C54.0231 64.6116 50.1788 67.6886 45.6984 69.4578C41.2181 71.2274 36.3089 71.6075 31.6095 70.549C26.9102 69.4905 22.638 67.0425 19.3488 63.5233C16.0595 60.004 13.9054 55.5762 13.1667 50.8161C12.428 46.0559 13.1388 41.1837 15.2067 36.8331C17.2745 32.4823 20.6038 28.8545 24.7614 26.4216C28.9189 23.9886 33.7123 22.8631 38.5183 23.1914" stroke="#B3C072" stroke-width="3" stroke-linecap="round" stroke-linejoin="round"/>
<path d="M27.7357 55.1026C26.9993 55.1026 26.4023 54.5057 26.4023 53.7693C26.4023 53.033 26.9993 52.436 27.7357 52.436" stroke="#B3C072" stroke-width="3"/>
<path d="M27.7344 55.1026C28.4707 55.1026 29.0677 54.5057 29.0677 53.7693C29.0677 53.033 28.4707 52.436 27.7344 52.436" stroke="#B3C072" stroke-width="3"/>
<path d="M27.7357 41.7693C26.9993 41.7693 26.4023 41.1724 26.4023 40.436C26.4023 39.6996 26.9993 39.1027 27.7357 39.1027" stroke="#B3C072" stroke-width="3"/>
<path d="M27.7344 41.7693C28.4707 41.7693 29.0677 41.1724 29.0677 40.436C29.0677 39.6996 28.4707 39.1027 27.7344 39.1027" stroke="#B3C072" stroke-width="3"/>
<path d="M46.4349 57.8049C45.6985 57.8049 45.1016 57.2079 45.1016 56.4715C45.1016 55.7352 45.6985 55.1382 46.4349 55.1382" stroke="#B3C072" stroke-width="3"/>
<path d="M46.4336 57.8049C47.1699 57.8049 47.7669 57.2079 47.7669 56.4715C47.7669 55.7352 47.1699 55.1382 46.4336 55.1382" stroke="#B3C072" stroke-width="3"/>
</svg>
