<svg width="102" height="102" viewBox="0 0 102 102" fill="none" xmlns="http://www.w3.org/2000/svg">
<circle cx="51" cy="51" r="51" fill="white"/>
<path d="M48.4086 63.2198L48.3685 63.3456C47.268 63.7776 48.0127 63.3583 47.0013 63.7775C46.6511 64.0743 45.3059 64.4195 44.979 64.6331C44.9843 64.6196 44.4861 64.8102 44.5044 64.7517C44.4377 64.817 44.3118 64.8743 44.163 64.9287C44.0923 64.9555 44.0076 64.9876 43.9274 65.0141C43.8605 65.0376 43.9104 65.0205 43.8974 65.0293C43.9028 65.0521 43.901 65.0565 43.9093 65.0782C43.9093 65.0782 43.8893 65.1106 43.8593 65.1258C43.8304 65.0833 43.8536 65.0306 43.8698 65.0321C43.8562 65.0239 43.845 64.9976 43.8365 64.9703C43.6989 64.7037 43.4207 64.0744 43.1905 63.4573C42.7021 62.1786 42.1764 60.5494 41.6768 58.9028C40.7845 55.5823 39.8987 52.288 39.5595 51.0272C39.595 51.3515 39.8283 52.101 39.828 52.4064C39.6144 51.7717 39.5884 51.4475 39.4669 51.1768C39.5213 50.8985 39.1014 49.7446 39.1151 49.2222L39.0099 49.0502L38.9835 48.7148C38.3675 45.8336 38.8055 48.0571 38.3858 45.4947C38.1458 44.0188 37.984 43.332 37.9432 42.5211C37.9516 42.6401 37.9414 42.9645 37.8881 42.5878C37.9393 42.5187 37.7701 41.5886 37.8316 41.4145C37.7994 41.0756 37.8322 39.8647 37.7432 40.261C37.7856 40.056 37.8194 38.9707 37.8467 39.6206C37.8469 39.2485 37.8892 38.9156 37.8794 38.6541L37.8361 39.1113C37.8773 37.7388 37.9973 37.5808 37.9372 37.4833C37.9233 37.4943 37.9037 37.5075 37.8927 37.5231C37.8992 37.3909 37.9833 37.275 38.0531 37.4395C38.0266 37.4457 38.0086 37.4792 38.0048 37.5131C38.0352 37.4481 38.0926 37.4856 38.1256 37.5055C38.151 37.5264 38.1476 37.5105 38.1968 37.5625C38.2399 37.5996 38.2591 37.6057 38.4662 37.8365L38.2782 37.6061C38.4244 37.7473 38.8882 38.2778 39.4303 38.9083C39.9942 39.5326 40.638 40.3441 41.6039 41.0642C42.0855 41.4276 42.7401 41.6816 43.2564 41.7437C43.772 41.8137 44.1406 41.8115 44.4732 41.8459C45.124 41.9143 45.6288 42.0361 45.8697 42.0956C45.7303 42.0225 45.5909 41.9493 45.4481 41.8908C45.7221 41.9397 45.9988 42.0181 46.2738 42.101C46.1771 42.0537 45.8327 42.1955 45.7597 42.143C46.5594 42.3459 49.4969 43.8079 52.2986 45.0655C55.1543 46.2474 57.9433 47.3973 58.8637 47.7815C59.5426 48.1141 58.9573 47.9464 58.9451 47.953C59.7945 48.2859 59.3276 48.0314 60.043 48.3444C60.2345 48.438 59.9879 48.3806 59.8773 48.3442C60.1898 48.4721 60.4734 48.6185 60.5069 48.5943C60.1229 48.4039 60.3111 48.3899 60.1624 48.2611L61.0776 48.6588L61.0225 48.6949C61.2261 48.7819 61.581 48.7658 62.4776 49.1801C64.0265 49.8664 65.6265 50.5753 67.1561 51.2556C67.1234 51.2775 66.8015 51.1552 66.4766 51.0282C66.6804 51.1209 66.994 51.2521 67.1745 51.3612C66.8229 51.1375 67.8222 51.6083 67.5413 51.4551C68.687 51.8228 73.9388 54.6755 74.9281 55.0375C75.035 54.9187 75.5707 54.2674 75.4626 53.9076C75.4212 53.8297 74.4342 52.9497 74.385 52.8977C74.0788 52.1931 73.4809 51.9844 73.3942 51.857C73.3518 51.8119 73.3017 51.7622 73.2418 51.7009C73.2023 51.6548 73.1198 51.541 72.685 51.2782C72.6743 51.2384 72.8506 51.3033 73.1884 51.5436C73.3474 51.6647 73.5833 51.8407 73.8565 52.2448C74.1672 52.6577 74.2267 52.8298 73.9653 52.4078C73.726 51.9603 73.5086 51.7678 73.3361 51.6079C73.001 51.3303 72.7813 51.2169 72.6457 51.1767C72.0926 50.8422 72.7212 51.1195 72.0757 50.757C71.6169 50.5491 71.0493 50.3671 70.5709 50.1113L70.5831 50.1047C69.4171 49.5081 68.7466 49.3861 67.682 48.837L67.8049 48.8668C67.4347 48.6597 66.6675 48.3682 65.9892 48.022C66.1819 48.1246 66.3409 48.2457 65.9228 48.0624C65.1409 47.6619 64.5915 47.4826 64.0214 47.1851L63.4473 47.0075C62.0668 46.4063 58.6448 44.9599 55.1988 43.5989C51.7359 42.2443 48.4225 40.5468 46.9675 39.97L47.0924 40.0066C46.5212 39.7669 45.8305 39.5437 45.063 39.3993C44.2952 39.2435 43.4443 39.268 43.0915 39.102C42.6918 38.9575 42.1318 38.4273 41.56 37.7621C40.9317 37.0211 40.2913 36.2617 39.6454 35.5044C39.1336 34.9005 38.4421 34.3075 37.8254 34.1708C37.1815 34.0177 36.5054 34.4035 36.2033 35.0599C36.0044 35.3508 35.9125 35.7731 35.8252 36.1954C35.7016 36.643 35.6793 36.9434 35.6532 37.2472C35.5727 37.9208 35.5688 38.3574 35.5466 38.8524C35.4671 40.7241 35.5837 42.6227 35.7869 43.9846C35.8372 44.8568 36.0291 46.0341 36.1683 46.9184C36.1086 46.4239 36.1706 46.5836 36.2375 46.9685C36.7245 49.6467 36.2935 47.1496 36.8454 49.8337C37.2681 51.4255 38.23 55.0326 39.1926 58.6622C39.7062 60.4563 40.2743 62.2277 40.8017 63.7246C41.0703 64.4759 41.3366 65.1537 41.5965 65.7442C41.7811 66.2086 42.2936 67.1824 42.6714 67.5164C43.5234 68.501 45.0184 67.3795 45.4312 67.3263C46.0827 67.07 46.7334 66.8217 47.2917 66.5702L47.186 66.6369C47.7865 66.3637 49.862 65.6598 51.8621 64.6714C53.8853 63.7526 55.9162 62.7716 56.6433 62.5306L56.4489 62.5909C57.671 62.0517 57.5351 62.2196 58.5247 61.8677C58.3632 61.8201 59.4073 61.3484 59.8091 61.1829L59.8052 61.2111C60.4102 60.9629 61.768 60.3418 62.7395 59.8346L62.7236 59.9055C63.5276 59.4636 65.0831 58.7677 65.67 58.4863C66.3499 58.1944 67.2333 57.7645 68.1104 57.5029C69.0164 57.156 69.8617 57.2614 71.1457 56.7542C71.6767 56.5779 72.1307 56.28 72.5313 55.9833L72.6807 55.818C72.6807 55.818 75.3342 55.3302 75.1363 54.7716C74.9971 54.3262 72.5197 52.898 71.2527 52.9599C70.8161 52.9821 71.2065 54.0766 70.9559 54.2307L70.9528 54.1594C70.8416 54.2644 70.7323 54.3345 70.6281 54.4159C70.2501 54.6125 70.0705 54.69 70.0841 54.6372C70.2778 54.5848 70.4366 54.5113 70.6127 54.4122C70.2339 54.611 70.481 54.4353 70.607 54.317C70.448 54.4154 70.3041 54.4756 70.1743 54.5C70.1013 54.5448 70.2403 54.5093 70.2998 54.4925C70.1191 54.5972 69.7827 54.7189 69.3541 54.7514C68.6886 54.8603 69.3054 54.6554 68.5068 54.8032C66.3209 55.2875 64.7213 56.2902 62.9005 57.037C61.1373 57.8879 59.316 58.5872 57.4551 59.2958C57.3629 59.3039 57.4627 59.2642 57.5669 59.2133C56.4578 59.6791 55.4481 60.0272 54.4524 60.492C54.1668 60.5945 54.0821 60.596 53.9921 60.611C54.1679 60.5673 48.5312 63.2745 48.4086 63.2198Z" fill="#B3C072"/>
<path d="M41.2331 50.3261L40.1796 37.8471L41.2863 36.5151L43.5134 38.686L46.3883 40.8858L51.6655 41.8109L69.549 50.2029L72.4239 52.4026L71.3173 53.7346L58.5632 59.3839L45.1614 65.0045L43.1096 59.388L41.2331 50.3261Z" fill="#B3C072"/>
</svg>
