<svg width="79" height="84" viewBox="0 0 79 84" fill="none" xmlns="http://www.w3.org/2000/svg">
<path d="M76.6667 76.6667C76.6667 78.0812 76.1048 79.4377 75.1046 80.4379C74.1044 81.4381 72.7478 82 71.3333 82H7.33333C5.91885 82 4.56229 81.4381 3.5621 80.4379C2.5619 79.4377 2 78.0812 2 76.6667V7.33333C2 5.91884 2.5619 4.56229 3.5621 3.5621C4.56229 2.5619 5.91885 2 7.33333 2H60.6667C62.0581 2.00109 63.394 2.54592 64.3893 3.51822L75.056 13.7653C75.5657 14.2622 75.9708 14.856 76.2474 15.5118C76.524 16.1676 76.6666 16.8722 76.6667 17.584V76.6667Z" stroke="#B3C072" stroke-width="3" stroke-linecap="round" stroke-linejoin="round"/>
<path d="M28.668 39.3333V18" stroke="#B3C072" stroke-width="3" stroke-linecap="round" stroke-linejoin="round"/>
<path d="M18 23.3333V18H39.3333V23.3333" stroke="#B3C072" stroke-width="3" stroke-linecap="round" stroke-linejoin="round"/>
<path d="M52.668 34H60.668" stroke="#B3C072" stroke-width="3" stroke-linecap="round" stroke-linejoin="round"/>
<path d="M52.668 18H60.668" stroke="#B3C072" stroke-width="3" stroke-linecap="round" stroke-linejoin="round"/>
<path d="M18 50H60.6667" stroke="#B3C072" stroke-width="3" stroke-linecap="round" stroke-linejoin="round"/>
<path d="M18 66H60.6667" stroke="#B3C072" stroke-width="3" stroke-linecap="round" stroke-linejoin="round"/>
<path d="M23.332 39.3333H33.9987" stroke="#B3C072" stroke-width="3" stroke-linecap="round" stroke-linejoin="round"/>
</svg>
