<svg width="73" height="84" viewBox="0 0 73 84" fill="none" xmlns="http://www.w3.org/2000/svg">
<path d="M66 23.3334H7.33333C4.38781 23.3334 2 25.7212 2 28.6667V71.3334C2 74.2789 4.38781 76.6667 7.33333 76.6667H66C68.9455 76.6667 71.3333 74.2789 71.3333 71.3334V28.6667C71.3333 25.7212 68.9455 23.3334 66 23.3334Z" stroke="#B3C072" stroke-width="3" stroke-linecap="round" stroke-linejoin="round"/>
<path d="M30.8422 38.5973C30.4356 38.3944 29.9839 38.2986 29.53 38.3193C29.076 38.3399 28.6349 38.4762 28.2484 38.7152C27.862 38.9542 27.543 39.288 27.3218 39.6849C27.1005 40.0818 26.9844 40.5287 26.9844 40.9831V59.0169C26.9844 59.4713 27.1005 59.9182 27.3218 60.3151C27.543 60.712 27.862 61.0458 28.2484 61.2848C28.6349 61.5238 29.076 61.6601 29.53 61.6807C29.9839 61.7013 30.4356 61.6056 30.8422 61.4027L48.8795 52.3858C49.3217 52.1635 49.6934 51.8227 49.9532 51.4014C50.2129 50.9801 50.3505 50.4949 50.3505 50C50.3505 49.5051 50.2129 49.0199 49.9532 48.5986C49.6934 48.1773 49.3217 47.8365 48.8795 47.6142L30.8422 38.5973Z" stroke="#B3C072" stroke-width="3" stroke-linecap="round" stroke-linejoin="round"/>
<path d="M7.33203 76.6666V82" stroke="#B3C072" stroke-width="3" stroke-linecap="round" stroke-linejoin="round"/>
<path d="M66 76.6666V82" stroke="#B3C072" stroke-width="3" stroke-linecap="round" stroke-linejoin="round"/>
<path d="M57.9987 2L36.6654 23.3333L15.332 2" stroke="#B3C072" stroke-width="3" stroke-linecap="round" stroke-linejoin="round"/>
</svg>
