<svg width="84" height="83" viewBox="0 0 84 83" fill="none" xmlns="http://www.w3.org/2000/svg">
<path d="M82 23.3333H2V7.33333C2 5.91884 2.5619 4.56229 3.5621 3.5621C4.56229 2.5619 5.91885 2 7.33333 2H76.6667C78.0812 2 79.4377 2.5619 80.4379 3.5621C81.4381 4.56229 82 5.91884 82 7.33333V23.3333Z" stroke="#B3C072" stroke-width="3" stroke-linecap="round" stroke-linejoin="round"/>
<path d="M2 34V71.3333C2 72.7478 2.5619 74.1044 3.5621 75.1046C4.56229 76.1048 5.91885 76.6667 7.33333 76.6667H42" stroke="#B3C072" stroke-width="3" stroke-linecap="round" stroke-linejoin="round"/>
<path d="M82 42V34" stroke="#B3C072" stroke-width="3" stroke-linecap="round" stroke-linejoin="round"/>
<path d="M28.6654 2L23.332 23.3333" stroke="#B3C072" stroke-width="3" stroke-linecap="round" stroke-linejoin="round"/>
<path d="M60.6654 2L55.332 23.3333" stroke="#B3C072" stroke-width="3" stroke-linecap="round" stroke-linejoin="round"/>
<path d="M80.7054 63.2764L59.2227 50.3876C58.8181 50.1447 58.3562 50.0135 57.8843 50.0075C57.4124 50.0015 56.9474 50.1208 56.5367 50.3532C56.126 50.5857 55.7843 50.923 55.5466 51.3307C55.3089 51.7384 55.1836 52.2018 55.1836 52.6738V78.4516C55.1836 78.9235 55.3089 79.387 55.5466 79.7946C55.7843 80.2023 56.126 80.5396 56.5367 80.7721C56.9474 81.0046 57.4124 81.1239 57.8843 81.1178C58.3562 81.1118 58.8181 80.9807 59.2227 80.7378L80.7054 67.8489C81.1 67.6119 81.4267 67.2768 81.6534 66.8762C81.8802 66.4755 81.9993 66.023 81.9993 65.5627C81.9993 65.1023 81.8802 64.6498 81.6534 64.2492C81.4267 63.8485 81.1 63.5134 80.7054 63.2764V63.2764Z" stroke="#B3C072" stroke-width="3" stroke-linecap="round" stroke-linejoin="round"/>
</svg>
