<svg xmlns="http://www.w3.org/2000/svg" viewBox="0 0 1103.57 181.63"><defs><style>.a{fill:#fff;}</style></defs><path class="a" d="M93.5,16.57c-.1-.1-.3.2-.4.3.4.2.6.4.8.5s.3-.2.4-.3C94.1,17,93.9,16.57,93.5,16.57Zm46.4,2.8c.4.2.6.4.8.5s.3-.2.4-.3a4.23,4.23,0,0,1-.7-.5C140.2,19.27,140.1,19.37,139.9,19.37Zm884.5,107.8c-.1.3-.3.5-.4.8,0,.1.2.3.3.4a9.22,9.22,0,0,0,.5-.8A.78.78,0,0,0,1024.4,127.17ZM361,17.67c.1.1.2.4.3.4a6.89,6.89,0,0,0,.8-.3c-.1-.2-.2-.3-.3-.5Zm32.1.5c-.1-.1-.2-.4-.3-.4a6.89,6.89,0,0,0-.8.3c.1.2.2.3.3.5A5.9,5.9,0,0,1,393.1,18.17Zm2.8.9c.1-.3.3-.5.4-.8,0-.1-.2-.3-.3-.4a9.22,9.22,0,0,0-.5.8A.78.78,0,0,0,395.9,19.07Zm185.5,20.8c-.1.3-.3.5-.4.8,0,.1.2.3.3.4a9.22,9.22,0,0,0,.5-.8C581.7,40.07,581.6,39.87,581.4,39.87Zm4.7.6c-.1.3-.3.5-.4.8,0,.1.2.3.3.4a5.94,5.94,0,0,1,.4-.8A1.73,1.73,0,0,1,586.1,40.47Zm475.4,66.3c-.1-.1-.2-.4-.3-.4a6.89,6.89,0,0,0-.8.3c.1.2.2.3.3.5A2,2,0,0,0,1061.5,106.77ZM610.7,21.67c.2-.1.4-.2.4-.3a2.39,2.39,0,0,0-.2-.9c-.1.1-.2.3-.4.4A1.08,1.08,0,0,1,610.7,21.67Zm474.6,51.5c-.2.1-.4.2-.4.3a2.39,2.39,0,0,0,.2.9c.1-.1.2-.3.4-.4A2.35,2.35,0,0,1,1085.3,73.17ZM77.6,167.57c-.1.3-.3.5-.4.8,0,.1.2.3.3.4a9.22,9.22,0,0,0,.5-.8A.78.78,0,0,0,77.6,167.57Zm75.5,5.8c.1.1.2.4.3.4a6.89,6.89,0,0,0,.8-.3c-.1-.2-.2-.3-.3-.5A2,2,0,0,1,153.1,173.37ZM33.9,153c.1.1.2.4.3.4a6.89,6.89,0,0,0,.8-.3c-.1-.2-.2-.3-.3-.5A3,3,0,0,1,33.9,153Zm89.2,10.9c.4.2.6.4.8.5s.3-.2.4-.3a4.23,4.23,0,0,1-.7-.5C123.5,163.87,123.4,164,123.1,163.87Zm-95.2-38.1c-.1-.1-.3.2-.4.3.4.2.6.4.8.5s.3-.2.4-.3A1.58,1.58,0,0,0,27.9,125.77Zm199.7,26.7c-.1-.1-.2-.4-.3-.4a6.89,6.89,0,0,0-.8.3c.1.2.2.3.3.5A2.93,2.93,0,0,1,227.6,152.47Zm52.8.5c-.1-.1-.3.2-.4.3.4.2.6.4.8.5s.3-.2.4-.3A1.58,1.58,0,0,0,280.4,153ZM35.5,115.27c0-.1-.2-.3-.3-.4-.1.3-.3.5-.4.8,0,.1.2.3.3.4C35.2,115.77,35.4,115.57,35.5,115.27ZM343.9,151c.1-.3.3-.5.4-.8,0-.1-.2-.3-.3-.4a9.22,9.22,0,0,0-.5.8ZM22,104.67c-.4-.2-.6-.4-.8-.5s-.3.2-.4.3a4.23,4.23,0,0,1,.7.5C21.7,104.77,21.9,104.57,22,104.67Zm1026.3-67.2c.1.1.2.4.3.4a6.89,6.89,0,0,0,.8-.3c-.1-.2-.2-.3-.3-.5ZM39.4,67.77c0-.1-.2-.3-.3-.4-.1.3-.3.5-.4.8,0,.1.2.3.3.4A5.9,5.9,0,0,0,39.4,67.77Zm600.8,81c-.4-.2-.6-.4-.8-.5s-.3.2-.4.3a4.23,4.23,0,0,1,.7.5C639.9,148.77,640.1,148.67,640.2,148.77ZM44.9,62.27c-.4-.2-.6-.4-.8-.5s-.3.2-.4.3a4.23,4.23,0,0,1,.7.5A2.19,2.19,0,0,1,44.9,62.27Zm966.2-32.7c0-.1-.2-.3-.3-.4-.1.3-.3.5-.4.8,0,.1.2.3.3.4C1011,30,1011.2,29.77,1011.1,29.57ZM690.3,147.17c-.2.1-.4.2-.4.3a2.39,2.39,0,0,0,.2.9c.1-.1.2-.3.4-.4A4.5,4.5,0,0,1,690.3,147.17Zm18.1-2.6c-.1-.1-.3.2-.4.3.4.2.6.4.8.5s.3-.2.4-.3C709,145,708.8,144.77,708.4,144.57Zm64.6-.2c-.1.3-.3.5-.4.8,0,.1.2.3.3.4a5.94,5.94,0,0,1,.4-.8C773.2,144.57,773.1,144.37,773,144.37Zm25.2-.4c-.1.3-.3.5-.4.8,0,.1.2.3.3.4a9.22,9.22,0,0,0,.5-.8A1.2,1.2,0,0,1,798.2,144Zm3.9,1c-.1-.1-.2-.4-.3-.4a6.89,6.89,0,0,0-.8.3c.1.2.2.3.3.5A2,2,0,0,1,802.1,145ZM60.6,33.27c-.4-.2-.6-.4-.8-.5s-.3.2-.4.3a4.23,4.23,0,0,1,.7.5C60.3,33.37,60.4,33.27,60.6,33.27Zm819.3,112.1c-.1-.1-.2-.4-.3-.4a6.89,6.89,0,0,0-.8.3c.1.2.2.3.3.5A3,3,0,0,0,879.9,145.37Zm32.1-.6c.1.1.2.4.3.4a6.89,6.89,0,0,0,.8-.3c-.1-.2-.2-.3-.3-.5A3,3,0,0,0,912,144.77Zm16.7-.9c-.1.3-.3.5-.4.8,0,.1.2.3.3.4a9.22,9.22,0,0,0,.5-.8C928.9,144,928.8,143.87,928.7,143.87Zm10.7.6c.4.2.6.4.8.5s.3-.2.4-.3a4.23,4.23,0,0,1-.7-.5A.55.55,0,0,1,939.4,144.47ZM959.4,9c-.2.1-.4.2-.4.3a2.39,2.39,0,0,0,.2.9c.1-.1.2-.3.4-.4A.88.88,0,0,1,959.4,9Zm-72.8,6.7c-.2-.1-.6.2-.9.4.3.4.5.8.8.8a5.93,5.93,0,0,0,2-.3C887.5,16.17,887.1,15.87,886.6,15.67ZM979.3,146c-.4-.6-1.5-.9-1.9-.2v.4a1.32,1.32,0,0,0,1.9.2Zm-22.6.7a.6.6,0,0,0-.1.4,1.25,1.25,0,0,0,1.9.3.6.6,0,0,0,.1-.4A1.19,1.19,0,0,0,956.7,146.67Zm-7,.8c.2.7,1.5.8,1.9.3.1-.1.1-.4.1-.4a10.54,10.54,0,0,0-1.1-.7C950.3,146.87,949.7,147.27,949.7,147.47ZM42,75.87c-.4-.6-1.5-.9-1.9-.2,0,.1-.1.3,0,.4a1.32,1.32,0,0,0,1.9.2Zm399.8,73.6c-.4-.6-1.5-.9-1.9-.2v.4a1.32,1.32,0,0,0,1.9.2Zm-12.7.9c-.4-.6-1.5-.9-1.9-.2v.4a1.32,1.32,0,0,0,1.9.2C429.1,150.57,429.2,150.47,429.1,150.37Zm-38,1.2c-.4-.6-1.5-.9-1.9-.2v.4a1.32,1.32,0,0,0,1.9.2C391.1,151.87,391.3,151.67,391.1,151.57ZM33.5,105a1.25,1.25,0,0,0,1.9.3c.1-.1.1-.4.1-.4a10.54,10.54,0,0,0-1.1-.7C34.2,104.47,33.5,104.77,33.5,105Zm260,48.7c-.4-.6-1.5-.9-1.9-.2v.4a1.32,1.32,0,0,0,1.9.2C293.5,154,293.7,153.67,293.5,153.67Zm-19.3-.7a4.67,4.67,0,0,0-1,.5c.3.4.5.7.8.8s.7.1,1,0c.1,0,.3-.2.4-.3-.1-.2-.2-.3-.3-.5A4.05,4.05,0,0,1,274.2,153Zm-17.9-.2c.2.7,1.5.8,1.9.3.1-.1.1-.4.1-.4a10.54,10.54,0,0,0-1.1-.7C256.9,152.17,256.3,152.57,256.3,152.77Zm-42.8.2c-.4-.6-1.5-.9-1.9-.2v.4a1.32,1.32,0,0,0,1.9.2C213.5,153.17,213.6,153.07,213.5,153ZM155.6,22.87c.3.4.6.8.8.8a7.37,7.37,0,0,0,1.4-.4,4.58,4.58,0,0,0-1.3-.8C156.2,22.37,155.9,22.77,155.6,22.87Zm850.7,117.2a4.67,4.67,0,0,0-1,.5c.3.4.5.7.8.8s.7.1,1,0c.1,0,.3-.2.4-.3a2.19,2.19,0,0,0-.3-.5A2.06,2.06,0,0,0,1006.3,140.07Zm15.3-.8a1.25,1.25,0,0,0,1.9.3c.1-.1.1-.4.1-.4a10.54,10.54,0,0,0-1.1-.7C1022.2,138.67,1021.6,139,1021.6,139.27Zm-637.1-117v-.4c-.5-.7-1.7-.9-1.9-.2-.1.2.5.7.7,1A3.37,3.37,0,0,0,384.5,22.27Zm-18-4.1c-.4-.6-1.5-.9-1.9-.2v.4a1.32,1.32,0,0,0,1.9.2C366.5,18.47,366.6,18.27,366.5,18.17Zm39.7,4.6v-.4c-.5-.7-1.7-.9-1.9-.2-.1.2.5.7.7,1A3.37,3.37,0,0,0,406.2,22.77Zm186.3,17.6a.6.6,0,0,0-.1.4,1.25,1.25,0,0,0,1.9.3.6.6,0,0,0,.1-.4A1.14,1.14,0,0,0,592.5,40.37Zm27.4.3a1.25,1.25,0,0,0,1.9.3c.1-.1.1-.4.1-.4a10.54,10.54,0,0,0-1.1-.7C620.6,40.17,619.9,40.47,619.9,40.67ZM304.2,154.57c.3-.2.7-.3,1-.5-.3-.4-.5-.7-.8-.8a4.4,4.4,0,0,0-1.6-.2,4.67,4.67,0,0,0-1,.5c.3.4.5.7.8.8a2.15,2.15,0,0,0,1.1.2A.45.45,0,0,0,304.2,154.57ZM740.4,38.77s-.1.3,0,.4a2.58,2.58,0,0,0,2.9.4v-.4c-.4-.3-.9-.5-1.4-.8A8.33,8.33,0,0,0,740.4,38.77Zm206.7,108.5a3.58,3.58,0,0,0-.4-1.1c-.1.2-.3.3-.4.4a3.63,3.63,0,0,0-.9.8,3,3,0,0,0-.4.8,7.26,7.26,0,0,0,.9.5C946.8,148.77,947.2,148.37,947.1,147.27Zm-64.6-1.8s-.1.3,0,.4a2.58,2.58,0,0,0,2.9.4v-.4c-.4-.3-.9-.5-1.4-.8A3.36,3.36,0,0,1,882.5,145.47Zm-3.7,5.3c.1,0,.3-.2.4-.3-.1-.1-.2-.4-.3-.4-.7-.1-1.3-.3-2.1-.4-.3-.1-.7.2-1,.4a6,6,0,0,0,.8.8c.2.1.5,0,1,.1A2.74,2.74,0,0,0,878.8,150.77ZM386.5,21.87a.45.45,0,0,0-.4.3c0,.4.1.9.3.9a14.6,14.6,0,0,0,2.2.3c.1,0,.4-.2.4-.3,0-.4-.1-.8-.3-.9a2.15,2.15,0,0,0-1.1-.2A4.91,4.91,0,0,0,386.5,21.87Zm685.1,23.9c-.4,1.2,0,2.1,1.2,2.1a2.77,2.77,0,0,0,.9-.5c-.1-.1-.2-.3-.3-.4-.5-.5-.5-1.5-1.4-1.5C1071.8,45.67,1071.5,45.77,1071.6,45.77ZM371.2,150c-.1,0-.3.2-.4.3.1.1.2.4.3.4a19.42,19.42,0,0,0,3.3.7c.3.1.7-.2,1-.4-.3-.4-.5-.7-.8-.8a9.5,9.5,0,0,0-2.1-.3A3.27,3.27,0,0,0,371.2,150Zm-19.2,4.8a1.15,1.15,0,0,0,.8,1.4,1,1,0,0,0,1.5-1.1,4,4,0,0,0-.4-1.3C352.7,153.47,352.3,153.77,352,154.77ZM713.2,144a.45.45,0,0,0-.4.3c0,.1.2.4.3.4a19.42,19.42,0,0,0,3.3.7c.3.1.7-.2,1-.4-.3-.4-.5-.7-.8-.8a9.5,9.5,0,0,0-2.1-.3A7.77,7.77,0,0,0,713.2,144ZM841.7,18.27c.1,0,.3-.2.4-.3-.1-.1-.2-.4-.3-.4a19.42,19.42,0,0,0-3.3-.7c-.3-.1-.7.2-1,.4.3.4.5.7.8.8a9.5,9.5,0,0,0,2.1.3A9.29,9.29,0,0,0,841.7,18.27Zm-784.5.9c-.6,0-1,.3-1,1.1,0,1,.4,1.5,1.3,1.4.5-.1.8-.6,1-.8C58.6,19.57,58.1,19,57.2,19.17Zm90.3-.6c-.2,0-.4.5-.5.8,0,.1.2.4.3.4,1.1.2,2.2.3,3.3.4.2,0,.4-.5.5-.8,0-.1-.2-.4-.3-.4-.5-.1-1.1-.1-1.6-.2S148,18.57,147.5,18.57Zm164,134.5a.45.45,0,0,0-.4.3c0,.4.2.9.3.9a38,38,0,0,0,4.5.7c.1,0,.4-.2.4-.3,0-.4-.1-.9-.3-.9a21.87,21.87,0,0,0-2.7-.4C312.7,153.27,312.2,153.17,311.5,153.07Zm64.6-131.5c-.1,0-.4.2-.4.3,0,.4.2.9.3.9a38,38,0,0,0,4.5.7c.1.1.4-.2.4-.3,0-.4-.1-.9-.3-.9a19.34,19.34,0,0,0-2.7-.4A5.23,5.23,0,0,1,376.1,21.57ZM938.5,10c-.1,0-.3.5-.4.8,0,.1.2.4.3.4,1.6.2,3,.4,4.5.5.1,0,.3-.5.4-.8,0-.1-.2-.4-.3-.4l-2.2-.3A16.41,16.41,0,0,0,938.5,10Zm-772.8,9.9c.1,0,.4-.2.4-.3,0-.4-.2-.9-.3-.9a38,38,0,0,0-4.5-.7c-.1,0-.4.2-.4.3,0,.4.2.9.3.9a21.87,21.87,0,0,0,2.7.4C164.5,19.67,165,19.77,165.7,19.87Zm830.4,126.7c.1,0,.4-.2.4-.3,0-.4-.2-.9-.3-.9a38,38,0,0,0-4.5-.7c-.1,0-.4.2-.4.3,0,.4.2.9.3.9a21.87,21.87,0,0,0,2.7.4Q995.05,146.42,996.1,146.57Zm-106.4-1.7c-.2,0-.4.5-.5.8,0,0,.2.4.3.4,1.6.2,3,.4,4.5.5.2,0,.4-.5.5-.8,0,0-.2-.4-.3-.4l-2.2-.3A16.41,16.41,0,0,0,889.7,144.87Zm94-.1c-.2,0-.4.5-.5.8,0,0,.2.4.3.4a53.91,53.91,0,0,0,5.6.8c.2,0,.4-.5.5-.8,0,0-.2-.4-.3-.4a23.58,23.58,0,0,0-2.8-.4C985.5,145.07,984.6,144.87,983.7,144.77ZM380.8,17c-.9-.2-1.4.7-1.9,1.1-.3.1-.4.5-.5.8.4.2.7.6.9.5a17,17,0,0,1,2.4-.9,13.12,13.12,0,0,1,2.7.3c.1,0,.4-.2.4-.3-.1-.4-.1-.8-.3-.9-.5-.1-1.1-.1-1.6-.2A7.79,7.79,0,0,1,380.8,17ZM24.9,104.17a7.93,7.93,0,0,1-.4.9,7.26,7.26,0,0,0,.9.5c1.4.8,2.5-1.3,4-.8.1.1.3-.5.4-.8,0-.1-.2-.4-.3-.4-.3-.1-.8-.1-1.2-.2C27.1,103.17,25.8,102.87,24.9,104.17ZM647,145.07c-.1,0-.4.2-.4.3a2.92,2.92,0,0,0,.2.9c1.1,1.7,2.1,2.2,3.6,1.4.7-.5,1.2-.9,2-.7.1,0,.3-.5.4-.8,0-.1-.2-.4-.3-.4a21.87,21.87,0,0,0-2.7-.4A13.33,13.33,0,0,0,647,145.07Zm102-1.6c-.3,0-.7.5-.7.7,0,.9,2.1,2.6,2.4,2.2,1.4-1.8,3.2-.7,4.7-.7.2,0,.4-.5.5-.8a4,4,0,0,0-.3-.4.75.75,0,0,0-.5-.1,21.87,21.87,0,0,0-2.7-.4C751.3,143.77,750.2,143.67,749,143.47Zm-361.7,8.3c.3,0,.7-.9.8-1.4.1-.7-.2-1.2-1-1.2-1.2,0-2.2,1.4-3.6.9a16.66,16.66,0,0,0-3.9-.5c-.1,0-.4.2-.4.3.1.4.2.9.3.9,1.3.2,2.6.3,3.9.5A16,16,0,0,0,387.3,151.77Zm-25.2-.5c.6-.6.9,1.8,2,.5.7-1,1.7-.1,2.6-.2a1.58,1.58,0,0,0,.5-.8s-.2-.4-.3-.4a44.62,44.62,0,0,0-5.1-.7c-1.2,0-2.2,1.4-3.6.9a16.66,16.66,0,0,0-3.9-.5c-.1,0-.4.3-.4.3.1.4.3.9.5.9a19.93,19.93,0,0,0,3.4.5C359.2,151.67,360.6,152.77,362.1,151.27ZM33.6,131.47c1.6.2,3,.4,4.5.5.1.1.3-.2.4-.3-.3-.3-.5-.8-.7-.8a40.13,40.13,0,0,0-5-.7c-1,0-1.8,1.3-3.1.9-.9-.3-2.1-.1-2.8-1.5-.4-.9-1.2-1.6-1.7-2.5-.4-.5-.6-.7-.8-.2a2,2,0,0,0-.3,1.1c-.1.9-.4,1.7.3,2.4.5.5.7,1.5,1.6,1.5s1.8.2,2.8.3C30.4,132.27,32.1,133,33.6,131.47ZM295.2,16.27c-1.2.8-2.2.4-3.3.3s-2.3-.3-3.4-.4c-.1-.1-.4.2-.4.3.1.4.2.8.4.9,1,.3,2,.3,3,1.3a3.91,3.91,0,0,0,3.6.7,13.6,13.6,0,0,1,6.1-1.9c.1,0,.2-.3.2-.4s-.2-.5-.3-.5a23.58,23.58,0,0,0-2.8-.4V16C297.2,16,295.9,15.57,295.2,16.27Zm491.3,127.2c-1.1-.2-1.6.8-2.4,1.3-.1.1-.3.3-.3.4s.2.4.3.4c2.9.4,5.9,1.1,8.8,1.3.9.1,1.8-1.2,2.9-1.1.1,0,.3-.3.3-.4s-.2-.4-.3-.4c-1.6-.3-3.3-.5-4.9-.7v-.1C789.4,143.87,788,143.77,786.5,143.47ZM347.1,16.17c-1.5-.3-2.6,1.2-4,1.2a2.27,2.27,0,0,0-.1.4c.1.2.2.5.3.5a26,26,0,0,0,3.9.5,8.38,8.38,0,0,0,2.5-.9c1-.4.9,2.2,2.1,1,.9-.8,1.7-.3,2.6-.3.3.1.8,0,1.1.2.5.4,1.1,1.3,1.5,1.2.7-.3,1.1-.9,2-.7.1.1.3-.1.4-.2a.76.76,0,0,0,.2-.4c0-.2-.2-.5-.3-.5-2.1-.3-4.4-.6-6.6-1A54.82,54.82,0,0,1,347.1,16.17ZM27.7,120c-1.6-.2-3-.3-4.5-.4a1.11,1.11,0,0,0-.9.7c-.2.3-.3,1-.1,1.2.3.5,1.1,1,1.3.8a3.62,3.62,0,0,1,5.1-.1c1.1,1,1.6,1.3,2.8.3.8-.7.9-.6,1.9.3.4.4.6.9.8.9.5.1,1.3,0,1.5-.3s.1-1.6,0-1.6c-1.5-.4-2.3-2.7-4.2-2.3a4.33,4.33,0,0,0-.5-.1C29.8,119.27,28.7,118.87,27.7,120Zm440.9,28.5c-1.1.6-1.1-.4-1.5-.7a1.21,1.21,0,0,0-1-.3c-1,.4-1.8,1.7-2.5-.3-1.4,1.8-3.2.6-4.7.7-.4,0-.7.9-.8,1.4-.1.7.3,1.3,1,1.1a25,25,0,0,1,2.5-.9,14.07,14.07,0,0,1,2.8.3c1.3.2,2.6.4,3.9.5s2.2-1.4,3.6-.9c.7.2,1.5-.8,2.4-.9a13.22,13.22,0,0,1,2.7.2c.1,0,.4-.3.4-.3a1.52,1.52,0,0,0-.5-.9,11.82,11.82,0,0,0-2.5-.4C472.5,146.17,470.5,147.07,468.6,148.47Zm-342,13.9c-.6,0-1,.5-.9,1.3.1,1.9-1,2.6-2.1,3.5-1.4-.7-2,1.2-3.1,1-.6-.1-1.1-.1-1,.8,0,.2.6.4.9.5a7.8,7.8,0,0,0,2.2.3c.7,0,1.6.8,2.1-.1.7-1.1,2-.3,2.9-1.3a54.79,54.79,0,0,1,4.4-4c.1-.1.2-.3.3-.4-.4-.3-.6-.6-.9-.7a14.6,14.6,0,0,0-2.2-.3C128.3,162.77,127.3,162.57,126.6,162.37Zm-9.7-149.5c-1.6.2-3.1,1.2-4.7.9-1.6,2.5-3.9,1.8-6.1,1.5-1.5-.2-3-.2-4.4-.3-1.3,1.5-2.8.3-4.2.4-.2,0-.4.5-.5.8,0,0,.2.4.3.4,1.9.4,3.7.5,5.6.9,1.5.3,2.5-1.6,4.1-.9,1.2.6,2.6.5,3.9.7,1.6-2.4,4.4.7,6-1.6.9,1.7,1.5,1.8,1.7-.4C118.7,13.47,118.4,12.87,116.9,12.87Zm218.4,136.4c-1.4,1-3-.3-4.4-.1-.9.1-1.6.8-2.5.9a12.43,12.43,0,0,1-2.7-.1c-.5,0-.5.5-.2.9s.7,1.1,1.1,1.5c.9,1,.1,1.5-.4,1.9-.1.1-.1.4-.1.4a2.62,2.62,0,0,0,.9.5c1,.3,1.7-1.4,3-.9a13.17,13.17,0,0,0,3.4.4c.1,0,.4-.3.4-.3a1.52,1.52,0,0,0-.5-.9,17.42,17.42,0,0,0-2.2-.5.85.85,0,0,1-.3-.5.45.45,0,0,1,.3-.4,12,12,0,0,0,2.7.1c1.7-.4,3.4-1.3,5.3-.5a5.47,5.47,0,0,1,2.9-1.3c.1,0,.1-.3.1-.4s-.2-.5-.3-.5l-2.3-.3C338.1,149.37,336.7,148.27,335.3,149.27Zm519.8-4.8c-.7,1.3-1.9.9-3,.8-2.8-.4-5.7-.9-8.5-1.2-1.4-.2-2.9-1.1-4.2.5-1.3-.1-2.6-.3-3.9-.3-2,0-4.3-1.8-6.4.2a.75.75,0,0,1-.5.1c-2.2.2-4.3-1.8-6.4.3-2.3-.4-4.5-.6-6.8-.9-1.3-.2-2.6-.6-3.6.8a13.43,13.43,0,0,0-3.4-.3c-.8.2-1.4,1.1-2.5,1-.3,0-.8,1.1-.7,1.5s.9,1.1,1.1,1a4.89,4.89,0,0,1,4.2-.7c.9.2,1.8-.1,2.5,1,.9,1.6,1.3-.7,2.2-.4a11.8,11.8,0,0,0,2.8.4c.3,0,.8.2,1.1.1a1.25,1.25,0,0,0,.8-.8c.1-2.2,1.3-1.5,2.4-1.4.4.1.8.2.9.5.4.8.4,2.2.7,2.2,1.6.2,3.5,1.3,4.9.2s2.6.4,3.7-.8,2.5-.1,3.7-.2c.7,0,1-.3,1.1-1.1.1-1,.4-1.6,1.2-.5s1.5,1.1,2.4.2c.7-.7,1.3-.4,2,.1,2,1.6,2.3,1.7,4.2.1,1.2-1.1,2.2-1.5,3.2.2a1.11,1.11,0,0,0,1,.3c.6-.2,1.4-.9,1.7-.7.7.4,1,1.2,1.9,1.2,1.3.1,2.5.5,3.7-.7.5-.6,1.7.2,2.7.2a2.77,2.77,0,0,0,2.5-2.1c.2-.3-.2-1.3-.5-1.5a5,5,0,0,0-1.9-.3C859.4,142.37,857.5,144.77,855.1,144.47ZM324.5,24.27c2.9-2,5.8-.2,8.7-.1,1.1,0,2.2.3,3.2-.8.3-.3,1.1,0,1.6,0,1.9.1,3.7.3,5.6.4,2-1.7,4-.1,6-.1a35.57,35.57,0,0,1,5.7.8c1,.2,1.5-.7,2-1.1a9.44,9.44,0,0,0,.3-.9c.1-.1-.2-.4-.3-.4-1.4,0-2.8-1.2-4.2.3-.3.3-1.1.2-1.6.1-2-.3-3.8-.4-5.7-.8-2.2-.6-4,1.4-6.4.5a26,26,0,0,0-6.8-1c-.4,0-.9.7-1.4.9a1.58,1.58,0,0,1-.5-.8,3,3,0,0,1,2.6-2.7c.2,0,.5,0,.5.1.6,1.8,1.5.6,2.5.3a8.09,8.09,0,0,1,2.2,0c.1,0,.3-.2.4-.4.4-.7.1-.7-.4-.8-.9-.2-2.2.2-2.9-1.3,0-.1-.3-.3-.3-.3-1.6,1.8-3.6.5-5.3.4a17.47,17.47,0,0,1-5.7-.9c-1.6-.5-2.6,1.4-4.2.9a13.52,13.52,0,0,0-4.5-.4,1.88,1.88,0,0,0-.4,1c0,.3.2,1.1.3,1.1,1.9.3,3.9,1.8,5.8-.2,2,.3,3.8.5,5.7.8a3.1,3.1,0,0,1,.4,1.6,1.13,1.13,0,0,1-.7.9c-1.3-.1-2.6-.3-3.9-.5a5.52,5.52,0,0,0-2.8-.3c-.9.3-1.5,1.2-2.5,1-.1-.1-.3.2-.4.3.3.3.5.8.7.8a19.93,19.93,0,0,0,3.4.5c19.2-6,19-6.3,19-6.3a2.77,2.77,0,0,0-.8.5c0,.1-.1.4,0,.5s.3.2.4.1l.7-.7C322.5,23.37,323.8,23.47,324.5,24.27ZM669,149c.6.1,1.1-.3,1-1.1-.1-.4.7-1.1-.4-1.4-.5-.2-.6-1.4-1.6-1.5-1.5-.1-3-.5-4.5-.5a2.72,2.72,0,0,0-2.4,2.2,1.66,1.66,0,0,0,.2,1.1c1.5.5,2.9.7,3.2.8,6.8-3.4,6.7-3.8,6.6-4.1a2.8,2.8,0,0,0-.8,1.2c-.1.3-.8,1.2.3,1.2.3,0,.5-.5.7-.8a.75.75,0,0,0,.1-.5C666.7,149.07,667.8,149.27,669,149Zm6.2-2.6c-.2,0-.4.3-.4.3.2.3.3.7.5.8a3.64,3.64,0,0,0,1.5.2s.1-.4,0-.5c2.4,1.3,4,.7,5.9,1.4a2.77,2.77,0,0,0,.9-.5c-.1-.2-.2-.3-.3-.5-.3-.5-.7-1-1-1.5-1.5-2-1.5-2-3.2.2a3.53,3.53,0,0,1-1.7,1.5c-.4.3-.7,0-.5.7.1.3.6.6,1,1C676.7,146.37,676,146.27,675.2,146.37ZM971,8a1.05,1.05,0,0,0-.9.5c-.4.5-.1.7.4.7,1.5.1,3,.4,4.4.5.3,0,.5-.5.7-.7,0,0-.2-.4-.3-.4a8,8,0,0,0-1.6-.3,74.69,74.69,0,0,1-7.5.3c-.3,0-.5.5-.7.7,0,0,.2.4.3.4a30.62,30.62,0,0,0,3.2.5,1.05,1.05,0,0,0,.9-.5c.4-.5.1-.7-.4-.7a8.75,8.75,0,0,1-1.6-.2C972.5,8.07,971.9,7.87,971,8ZM394.5,21.87c-.3,0-.5.5-.7.7,0,0,.2.4.3.4,1.6.3,3,.5,4.4.7a1.38,1.38,0,0,0,.9-.5c.4-.5.1-.7-.4-.7a16.6,16.6,0,0,1-2.2-.3c3.7-.4,3.5-.7,3.5-.7a1.51,1.51,0,0,0-.8.4c0,.1-.1.4,0,.5s.3.2.4.1l.7-.7C396.1,21.87,395.4,21.57,394.5,21.87Zm-226.2-4.2c-.3,0-.5.5-.7.7,0,0,.2.4.3.4a30.62,30.62,0,0,0,3.2.5,1.05,1.05,0,0,0,.9-.5c.4-.5.1-.7-.4-.7a8.75,8.75,0,0,1-1.6-.2c3.1-.5,2.9-.8,2.9-.8a2.77,2.77,0,0,0-.8.5c0,.1-.1.4,0,.5s.3.2.4.1l.7-.7C169.4,17.67,168.8,17.57,168.3,17.67ZM761.2,144a2.3,2.3,0,0,0-1.4.4c-.1,0-.1.3-.1.5.8,0,1,1,1.5,1.4,0,.1.5-.5.7-.7-3-.5-3.3-.2-3.3-.1.3.9.7.4,1,0,0-.1.1-.4,0-.5s-.2-.1-.4-.1C762.2,144.67,761.8,144,761.2,144Zm-159-103.8a4.62,4.62,0,0,0-.7.7s.2.4.3.4a22.75,22.75,0,0,0,2.6.2c.2.1.3-.1.4-.3.4-.6.1-.8-.4-.7-.3.1-.8-.1-1.1-.1,2.6-.6,2.4-.9,2.4-.9a1.51,1.51,0,0,0-.8.4c0,.1-.1.4,0,.5s.3.2.4.1l.7-.7C602.9,40.17,602.6,39.87,602.2,40.17Zm-547.8-.1c2,.9,2.6,1,3.4,1,.2,0,.4-.3.4-.3-.1-.3-.3-.8-.5-.8-1.5-.3-3-.4-4.4-.7-.5-.2-.7-.2-.5.5a1.27,1.27,0,0,0,.8.8c.7.3,1.4.4,1-.4-1.4-1.8-2.3-2.2-2.6-2.9-.2-.5-.7-.6-1.1-.1s-1.3.6-1.3,1.7c-.3-.3-.8-.4-2.2-3.6-.1-1.2-.1-2.5-1.7-2.4a3.37,3.37,0,0,1-3.4-1.7c-.2-.3-.8-.2-1.1-.3-.1,0-.2-.2-.3-.4.3-.3.6-.7.8-.7a12.66,12.66,0,0,1,3.9.5c1.4.6,2.3-1.1,3.6-.9a22.82,22.82,0,0,0,2.7.2c1.2-1.9,1.6.5,2.5.5a1.86,1.86,0,0,0,1.3-.7,3.23,3.23,0,0,0-.3-1.6c-.1-.3-.8-.1-1-.3a3,3,0,0,1-.5-1.6c.1-.7.5-1.1,1.2-.9a.9.9,0,0,0,.5.1.45.45,0,0,0,.4-.3c-.1-.4-.2-.9-.3-.9-3.2-.5-6.3-1-9.5-1.4-1.1-.2-1.2.5-1.3,1.4a15.67,15.67,0,0,1-.5,3c-.1.3-1,.2-1.5.2-.1,0-.3-.7-.2-.9a2.28,2.28,0,0,1,.9-.8,3.15,3.15,0,0,0-1.2-.9c-.8-.2-1.8-.2-2.7-.5-.5-.2-.4-.7,0-.9,1.1-.5,1-1.6,1.1-2.7,1.2.1,1.9-1.7,3.1-1,.1-.4.4-.7.3-.9a3.74,3.74,0,0,1-.7-1.6,6.25,6.25,0,0,1,.7-2.3c.6-.7,1.4-.3,1.9.5a2,2,0,0,0,2.9.8c1.1-.9,2.1-.5,3.2-.5.3,0,.5-.5.7-.7a1.87,1.87,0,0,1-.3-.4c-.6-.8-1-1.7-2.2-1.7a26,26,0,0,1-3.9-.5c.2-1.4,1.6-1.6,2.3-2.6s1.7-.7,2.6-.5c.7.2,1.2-.1,1.2-.8,0-1.6,1-2.6,1.5-3.8.3-.8.4-1.5,1.4-1.3,1.4.3,3,.5,4.5.7,1.1.1,2.3.3,3.4.4,1.3.3,2.7.3,3.9.7,1.4.4,1.9-1.4,3.1-1,1.6.7,3.2-.3,4.7-.5a10,10,0,0,1,4.5.5c1.6.4,3.2-.7,4.7-.7a52.79,52.79,0,0,1,6.8.9c.6.1.9.6.8,1.4a1.66,1.66,0,0,0,.2,1.1c2.3.3,4.6,2,7,.1.2-.2,1.1,0,1.4.3.6.7,1,1.3,1.9,1.2,2.3-.2,4.7,2,7-.3,1.6.1,3,.3,4.5.5a25.79,25.79,0,0,0,3.9.4c1.3-.2,2.6-1.4,4.1-.7a11.8,11.8,0,0,0,2.8.4c-.2.3-.3,1-.5,1-1.2,0-2.3-.2-3.4-.2-.6,0-.9.4-1,1.2-.1,1.4-.1,1.5,1.5,1.5a9.63,9.63,0,0,1,3.4.4c1.3.5,1.9-1.2,3-.9,1.7.5,3.8-.3,5.1,2,.1.2,1-.1,1.5-.3.3-.1.7-.5,1-.5,1.6.2,3.4.4,5,.7,1.8.3,3.4-1.7,5.3-.7,1.3.7,2.4-.6,3.6-.7,1.4-.2,3,.3,4.5.5a18.1,18.1,0,0,0,2.3.3,2.69,2.69,0,0,0,1.5-.5c1.2-1,3,.8,4-1.2a.45.45,0,0,1,.5,0,4.67,4.67,0,0,1,1,.5c.4.2.4,1.4,1.2.5a1.21,1.21,0,0,1,.9-.7,12.66,12.66,0,0,1,3.9.5c1.4.6,2.3-1.1,3.6-.9a23.58,23.58,0,0,0,2.8.4c1.6.3,3.4.4,5,.8s3.3-.4,4.8-.7a2.08,2.08,0,0,1,1.1.1c.4.1.6.6.8.8-.1.1-.3.3-.4.3-1.4-.4-2,1.2-3.1,1.1-1.7-.2-3.4-.5-5.1-.7-1.4,1.7-3.1.8-4.7.7-.1,0-.4.2-.4.3,0,.4.1.8.3.9a2.15,2.15,0,0,0,1.1.2c2.1,0,4.3,1.5,6.5,0,2.1.2,4.4.5,6.6.5.9,0,1.6-.8,2.5-.9a25.28,25.28,0,0,1,2.7.1c.1,0,.2-.2.4-.3,1.5-.6,2-.3,2.9,1.4a1.22,1.22,0,0,1-.3.9c-1.1,0-2.3-.2-3.4-.3-1.3,1.8-3.1.7-4.7.7-2,0-4-1.7-5.9.4-1.6-.2-3-.3-4.5-.5-1.4,1.9-3.3.6-4.8.5-1.1-.1-1.6.7-2.4,1.2l-.4.4c.4.4.6.7.9.8.5.2,1.3.5,1.6.2,1.5-1.5,3.2-.7,4.8-.7,2.3,0,4.7,2,7-.2,1.6.3,3.1.4,4.5.7,1.6.4,2.6-1.1,4.2-.9,2,.4,4.3,1.9,6.4-.3,1.1.1,2.3.3,3.4.4,1.3.2,2.6.4,3.9.5,1,.1,1.7-1.2,3-1,2.3.3,4.7,1.8,7-.2,1.3.3,2.7.2,3.9.7,1.6.7,2.6-1.1,4.2-.9,3.1.5,6.1,1.8,9.3.2.9-.5,2.3,0,3.4.4,1.4.5,2.4-.8,3.6-.8a36.42,36.42,0,0,1,4.5.5c.6.1,1.2-.1,1.3-.8.2-.9.2-1.9-.9-1.9.5-1.4,1.4-2.4,2.9-2.2,1.3.2,2.6.3,3.9.5a19.93,19.93,0,0,1,3.4.5c1.4.6,2.4-.8,3.6-.8a21.63,21.63,0,0,1,5.1.7c1.5.3,2.6-1.4,4.2-.9a20.11,20.11,0,0,0,5,.8c1.5.3,3,.5,4.5.7,1.7.2,3-1.6,4.7-.8.1,0,.3-.2.4-.4s-.1-.4-.2-.4a17.42,17.42,0,0,0-2.2-.5c-3.6-.6-7.2-1.2-10.7-1.7-.1,0-.3-.3-.3-.4s.3-.4.4-.4c2.3.3,4.5.6,6.8.8,1.9-1.8,3.9-.5,5.9-.5s4,1.6,5.9-.4a16.66,16.66,0,0,1,3.9.5c1.4.5,2.4-1,3.6-.9,2.7.3,5.6.8,8.4,1.2a2.19,2.19,0,0,1,.3.5c0,.1-.1.4-.2.4-1.3.4-2.7.9-4,1.3-.2.1-.4.3-.4.4s.2.4.3.4c1.1.3,2.2.4,3.3.7.3,0,.5.5.7.8-.1.2-.3.2-.4.4-.8,2.3-2.8.4-4,1.3a2.67,2.67,0,0,1-1.4.7c-.3.1-.8-.1-1.1-.1-1.5-.3-3-.5-4.5-.7a26,26,0,0,1-3.9-.5c-1.5-.3-2.5,1.7-4.2.9-1.3-.7-3-.6-4.5-.7-.4,0-.9.6-1.4.8a.81.81,0,0,1-.8-.4c-.6-.7-1.2-1.2-1.9-.5a3.17,3.17,0,0,1-2.6.7c-2.2.1-4.3-1.9-6.4.3a44.62,44.62,0,0,0-5.1-.7c-1.8-.1-3.7-1.5-5.3.4a2.19,2.19,0,0,0-.3-.5c-.4-.4-.9-.9-1.3-.9-.9.1-1.6.8-2.5.9a25.28,25.28,0,0,1-2.7-.1c-.2,0-.4.3-.4.4s.2.5.3.5a23.28,23.28,0,0,0,3.8.8c1.4.3,3.1.3,4.5.7s2.4-.7,3.6-.8a17.22,17.22,0,0,1,3.9.4c1.2.2,2.4,0,3.4.5,1.5.7,2.2-1.5,3.7-1s3.1.4,4.5.8c1.6.5,2.9-.7,4.2-.7a82.36,82.36,0,0,1,8.5,1.1c.8.1,1.8.6,2.2.2,2.1-1.8,4-.3,6-.3.9,0,2.1.7,2.8.3,2.8-1.6,5.5-.2,8.2-.1a.75.75,0,0,0,.5-.1,4.87,4.87,0,0,0,.4-1.1c0-.3-.1-1.1-.3-1.1-1.1-.4-2.2-.5-3.3-.8a1.6,1.6,0,0,1-.7-.9c-.1-.4,0-1.1.2-1.2a6.64,6.64,0,0,1,1.5-.3c.2,0,.3.2.4.4.4,1.2,1.4,1.2,2.4,1.2.3,0,.9-.1,1-.3a4.88,4.88,0,0,0,.1-1.7c0-.3-.5-.7-.7-1-.6-1-1.3-1.3-2.3-.5a3.81,3.81,0,0,1-1.5.5c-.1.1-.3-.1-.4-.2-.4-.4-.4-.6.1-.9.8-.4,1.4-1.3,2.5-1.1l8.5,1.2c1.1.2,1.7-1.5,3-1s2.6.5,3.9.7c1.1.1,2.3.3,3.4.4.2.1.4.2.5.1,1-1.5,2.3-1,3.6-.8,1.5.3,3,.5,4.5.7,1.1.2,2.3.3,3.4.4,1.6-1.8,3.6-.4,5.3-.4,1.2,0,2.5.7,3.4.3,3.6-1.9,7,.2,10.5.2,1.1,0,2.3.4,3.4.4.9,0,1.8-1.7,2.5.3,1.1-1.2,2.3-1,3.6-.8s2.6.4,3.9.5a1.69,1.69,0,0,0,1-.3c1-1.2,2.3-.7,3.2-.3,1.2.6,1.8-1.7,2.8-.4s1.7-1.1,2.7-.2c2.9,0,5.9,1.8,8.7-.1,1.7.3,3.4.5,5.1.7,1.6-1.9,3.6-.6,5.3-.5s3.4.5,5.1.7c.6.1,1.2.1,1.7.2a.89.89,0,0,1-1,1.1c-2-.3-4-.6-6.1-.8-.6-.1-1,.3-2.1,1-1.6-.2-2.2-.3-2.7-.3-.3,0-.5.5-.7.7,0,0,.2.4.3.4a30.62,30.62,0,0,0,3.2.5,1.05,1.05,0,0,0,.9-.5c.4-.5.1-.7-.4-.7s-1-.1-.5,0c2.4.4,3.7.5,5,.7s2.7.2,3.9.7c1.4.5,2.3-1,3.6-.9,1.4.3,3,.5,4.5.7s3.4.4,5,.8,2.5-1.7,4.2-.9,3.6,1.1,5.3-.4c.1-.2.9.5,1.3.8s.7.5.8.4c2.1-1.5,4.3,0,6.5,0,1.3,0,2.6,0,3.4,1.6.1.2.9.4,1.1.2.7-.4,1.2-1,1.9-1.5s1.5-1.2,2.3-1.7c1.8,1,3.1-1.2,4.8-.7a17.78,17.78,0,0,0,3.9.7c.3,0,.5.5.7.8-.1.1-.3.3-.4.3l-3.4-.3c-.1-.1-.4.1-.4.2a3,3,0,0,0,.2,1c.3.5.7,1.3,1.1,1.4,2.6.4,5.2.8,7.8,1.1,1.6-2.5,4.5.8,6.1-1.7,1.3.3,2.7.2,3.9.7,1.4.5,2.3-1.1,3.6-1,2.9.2,5.9,1.9,8.7,0a32.49,32.49,0,0,0,4.5.7c1.6.2,3,.2,4.5.3,1.3-1.4,2.8-.3,4.2-.3.9,0,1.9.5,2.8.3,1.4-.4,2.7-1.5,4.2-.8.2.1.6-.6.7-.9.5-2.4,2-2.6,3.9-2.3,1.1.2,2.3.3,3.4.5a1.14,1.14,0,0,1,.8.7c-.5,2.5,1.2,2.2,2.4,2.3,2.5.2,5,1.5,7.5-.2a44.62,44.62,0,0,0,5.1.7c.6,0,1-.5.9-1.3-.1-.4-.2-1-.4-1.1-.7-.2-1.4-.2-2.2-.4-.2-.1-.3-.6-.4-.9,0,0,.3-.3.4-.3,2,.4,3.8.5,5.7.9.7.2.3,1-.2,1.3s-.6.8-.3.9c3.1.5,6.2,1.1,9.4,1.5,1.5-1.6,3.2-.5,4.8-.4,2.1.2,4.1.6,6.2.9,2.3-1.9,4.7-.4,7-.3a50.63,50.63,0,0,1,6.8,1c1.6.4,2.7-1.7,4.2-.8a1.3,1.3,0,0,0,1-.2,14.2,14.2,0,0,0,1.3-1.2c.1-.1-.1-.8-.3-.9s-.8-.1-1.1-.2a.85.85,0,0,1-.3-.5,1.47,1.47,0,0,1,.2-.4c1.2.4,2.3-2.2,3.6-.1.1.3,1.2.4,1.4.1,1.3-1.5,2.8-.4,4.2-.3.2,0,.3,1,.5,1.5s.2,1.1.4,1.1c1.6.1,3.3,1,4.9.2a10.33,10.33,0,0,1,2.1-.7c.6-.3.7-1.3,1.1-2,.3-.5.6-.2.8.3.5,1.9.6,2.1,1.4,1.1.9-1.2,2.4-.7,3.4-1.7s2.2,0,3.3,0c.3,0,.8.1,1.1.1.6,0,1.1.2.9,1-.1.2-.7.2-1,.3s-.7.2-1,.3c.2.4.3.9.5.9,2.4.3,4.9.7,7.3,1,.3,0,.7-.3,1-.4a4.67,4.67,0,0,1-.5-1,3.54,3.54,0,0,1-.3-1.1c.9.3,1.2-1.1,1.9-1a7,7,0,0,0,5.3-.5c.2-.1.6.5.9.7-.1.1-.2.3-.3.4-.3.4-1.1.6-1.2,1.4-.6.3-.9.6-.9.7.3.9.7.4,1,0,0-.1.1-.4,0-.5h-.2c1.7,1,3,3.1,5,1.1.1-.1.3-.3.4-.3a40.11,40.11,0,0,1,5,.8c1.8.6,3.2-1.8,5.2-.7.7.4,1.8.2,2.7.4s1.1-.5,1.3-1.4c.1-.7.5-1.1,1.2-.9-.1.3-.2.6-.1.7,1.2,1.3,2.7,1.2,4.1,1,.2,0,.4-.7.4-1a4.51,4.51,0,0,0-.3-1.1c-.6-1.5-.6-1.4.5-1.4,1.5,0,2.4.5,2.3,2.5,0,.2.7.6.9.5.9-.2,1.6-.7,2.5-.9,1.2-.2,1.8.8,2.7,1.5,1.7-1.8,3.6-.5,5.3-.3a4.29,4.29,0,0,0,4.6-1.5c.7-.9.9.2,1.1.5.7,1,1.7.5,2.6.8,1.2-1.7,2.7-.8,4.1-.7,2.1.3,4.1.6,6.2.8,2.2-2.5,5.2,1,7.3-1.5a28.63,28.63,0,0,0,5.7.7c1.7-.1,3.4-1.3,5.3-.5.3,0,.6-.5.8-.7-.4-.3-.6-.5-.9-.7-.1-.1-.4,0-.5-.1a2.47,2.47,0,0,1-.4-.9s.3-.3.4-.3c1.1.1,2.3.3,3.4.4,1.9-2,3.9-.4,5.9-.4.1,0,.3.4.3.4l-.7.7c-.1.1-.3,0-.5,0s-.7.3-1,.4c.3.3.5.8.7.8,2.3.4,4.5.6,6.8.8,2-1.6,3.9-.7,5.8,0,.5.2.7,1.4,1.6.4.7-.9,1.9.3,2.6-.2a3.08,3.08,0,0,1,3-.9c1.1.3,2.3.3,3.4.5s1.1-.6,1.3-1.5c.4-2,1.1-2.5,3.1-1.6.5.2.4.6.1.9s-.9.5-.9.8c0,.7,1.5,1.8,2.2,1.5,1.6-.6,3.4.4,4.6-1.6.4-.6.5-.5,1.2,1.1a1.62,1.62,0,0,0,1.2,1c1-.1,1.8-1.2,3-1.1.5,0,.3-.4.1-.9-.7-1.2-.5-1.4.4-1.3a2.91,2.91,0,0,1,2.5,1.1c.7,1,1.2.8,1.9.3s1.2-1.2,1.9-1.5.8.5.7,1,.2,1.5.7,1.1a3.17,3.17,0,0,1,2.6-.7c4.1.6,8.3,1.2,12.4,1.7,1.5,1.3,2.6-1.1,4.1-.8.2.1.6-.9.9-1.3s.5-.9.7-.9a13.33,13.33,0,0,1,2.8.3c1.7.5,3.8-.4,5,2,1.8.3,3.7.9,5.2-1.1.8-1.2,2-.5,3-.1a2,2,0,0,1,0,1.1c-.6.3-.9.6-.9.7.3.9.7.4,1,0,0-.1.1-.4,0-.5h-.2c2.3.4,4.3.6,6.4.9,1.3,2.8,2.6,1.3,3.9,0,.8-1.1,1,.4,1.5.5,2.1.7,4.1,1.1,6.3-.1,1.2-.8,2.5-1.6,4.1-.9a16.66,16.66,0,0,0,3.9.5c1.4.2,2.9.9,4.1-.7.9,2.7,2.4-.4,3.6.4a9.67,9.67,0,0,0,3.4.5l4-1.4a4.93,4.93,0,0,1,.5-1.6,12.11,12.11,0,0,0,4.1-.9c1.6-.6,3.6,1.3,5.2-.7,2.1.4,4.1.6,6.2.9.5.1,1.4.5,1.6.2,1.9-2,3.9-.4,5.9-.4.1,0,.3.7.2.9-.4.8-1.5.8-2.4.3a1.69,1.69,0,0,0-1-.3c-.7,0-1.1.4-1,1.2,0,.4.1,1.1.3,1.1a18.56,18.56,0,0,0,4.5.8c.9,0,1.4-1.4,2.5-1,.3.1.5-.5.7-.7a3.11,3.11,0,0,0-.9-.7,7.26,7.26,0,0,0-.9-.5,3.6,3.6,0,0,1,.5-.9c.7-.5,1.1-1.2,2-1,2.5.8,5.3-.3,7.3,2.3,1.2.1,2.3.2,3.4.2.5,0,.5-.5.1-.9-.4-.2-.5-.7-.7-1,.3-.1.7-.4,1-.4.5,0,1.4-.1,1.6.2,1.4,2,3.4,1.8,5.1,2a3.08,3.08,0,0,0,1.4-.7c.8-.6,1.4,0,2.2-.1-.1.6,0,1.2.7,1.1.2,0,.4-.7.5-1a8.75,8.75,0,0,1,1.6.2c1.5.4,3,.7,3.4-1.7,0-.2,1.1-.3,1.4-.1.6.4.8,1.5,1.7,1.4.3,0,.7-.3,1-.4a.76.76,0,0,0-.2-.5,6.07,6.07,0,0,1-.7-1c.3-.1.7-.4,1-.4.8,0,1.5.2,2.3.2,1.5,0,3,1,4.2-.7,1.2.1,2.3.2,3.4.4.2,0,.3.6.4.9,0,0-.3.3-.4.3-.8,0-1.5-.2-2.3-.2-.1,0-.4.2-.4.3.1.4.2.9.3.9,1.7.3,3.7,1,5.1-1.1.1-.2.3-.4.4-.4.5-.1,1.2-.2,1.5.1.9.8-.3.9-.5,1.2s-.4.8.1.9a13.36,13.36,0,0,0,3.9.7c1.4-.1,2.7-1.6,4.2-.8.1.1.7-.9.8-1.4.1-.3-.2-.8-.4-1.1-.6-.7-.2-1.2.3-1.2,2-.1,4,1.2,5.9-.5,1.7.3,3.4,0,4.4,2.2a1.83,1.83,0,0,0,1.7,1.3c2.4.2,4.9.7,7.3,1,.3,0,.8,0,1-.2a3.58,3.58,0,0,0,.4-1.1.85.85,0,0,0,0-.7c-.3-.6-.5-.6-.8-.3-.8.8-1.5,1.2-2.4.1-.3-.3-.5-.8-.8-1a5,5,0,0,0-1.4-.8c.5-1,1.2-.5,1.9-.5.9,0,1.8.8,2.6-.2.7-.7,1.3-.4,2.1-.4,1,.1,1.7.6,2.7-.2.7-.5.8-.3,1,.9.1.5-.1,1.4.8.9,1.1-.7,1.8-2.3,3.4-1.9.1.1.4-.3.4-.3-.2-.4-.3-.8-.5-.9a2.15,2.15,0,0,0-1.1-.2c-1.1-.2-2.3-.2-3.4-.5-1.3-.4-2.1,1.4-3.6.9-1.5-.7-3.4-.4-5-.9-1.8-.5-3.2.6-4.8.7-1.2,0-2.6-.8-3.6.7-1.6-.1-3-.3-4.5-.4-.3,0-.7.6-1,.7-1.8.7-3.7.7-4.9-1.4a1.8,1.8,0,0,1-.2-1c0-.1.3-.3.4-.3a12.66,12.66,0,0,1,3.9.5c1.4.6,2.3-1.1,3.6-.9,1.5.3,3,.5,4.5.7,1.9-1.5,3.9-.7,5.9-.5.5.1,1.4.3,1.6,0,1.2-1.4,2.5-.5,3.7-.5.7,0,1.8.4,2.1,0,1.7-1.9,4.3,1,5.7-1.4,2.3-.2,4.7,1.9,7-.2A5.34,5.34,0,0,0,941.9,6c.6.3,2.9-1,4-2,1.5.8,2.6-1.2,4.1-.9.2,0,.4-1.1.7-1.5A12.09,12.09,0,0,1,952.3,0a.49.49,0,0,1,.3.1c.1.2.3.4.3.5-.3.5-.4,1.2-.7,1.6-.7,1.2-.7,1.4.2,1.5a37.23,37.23,0,0,0,5.7.8c1.8,0,3.7,1.6,5.3-.5a43.31,43.31,0,0,1,5,.8c1.9.6,3.3-1.7,5.3-.7,1,.6,2.3.5,3.4.7.1,0,.3.4.3.4a2.31,2.31,0,0,1-.7.7c-.1.1-.3,0-.5,0s-.7.3-1,.4c.4.3.6.8.8.8,3.1.1,6.1,1.8,9.3.1a3,3,0,0,1,2.7.4c1.3,1.1,2.2,2.3,3.7.4a2.06,2.06,0,0,1,1.4.7c.5,1.2,1.8,1,2.6,2.1a2.35,2.35,0,0,0,2.5.5c1.4-1.1,2.2-1.1,3.3.4.4.6,1.7.6,2.6.5a8.59,8.59,0,0,0,3.5-1.2c1.5-1,2.7-.9,3.9.5.7.8.9.8,1.9.1.7-.5,1.5-1,2-.3a3.74,3.74,0,0,0,2.3,1.4c2,.3,3.8.6,5.7.8,1.3.1,1.2,1,1.3,2.2.2.9,1.1,1.1,1.9.7.4-.3.6-.6.9-.8.4,1.4,2.4,1,2.6,2.6.1.8.1,1.6,1.1,1.7,1.7.2,3.4.5,5.1.7s3.4.8,4.8-.7c2,.3,3.8.5,5.7.8a2.78,2.78,0,0,0,2.1-.8c0-.1.7.3.7.4-.1.6-.3,1.6-.5,1.6-1.1.1-2.3-.4-3.3-.1s-1.9,1.2-3.1.8c-1-.3-1.7,1.4-3,1a2.74,2.74,0,0,0-3.2.3c-1.1,1-2.5-.1-3.8,0-.1.1-.3.2-.4.4-1,1.6-2.5-.3-3.6.9s-2.7.6-3.7.1c-1.3-.7-2.7,2.3-3.7-.2-.8.4-1.3,1.4-2.4.9-.1-.1-.4.2-.4.3.1.4.2.9.3.9,2.3-.1,4.7,1.9,7-.3,1.2.1,2.3.3,3.4.5a.85.85,0,0,1,.3.5c0,.1-.2.4-.3.4-1.7.4-3.3,1.7-5.2.9a4.14,4.14,0,0,0-1.6-.2c-.3,0-.6.3-.8.5.1.1.2.4.3.4,1.9.4,3.7.6,5.6.9,1.5-1.6,3.2-.8,4.8-.7s3.4,1.2,4.8-.7c1.3-.1,2.6,1,3.8,0,1.6-1.2,3-.2,4.4-.1,2.3.1,4.5.6,6.8.9.8.1,1.8.5,2.2.1,1.7-1.6,3.6-.4,5.3-.3a35.57,35.57,0,0,1,5.7.8,9.93,9.93,0,0,0,5.9-.5c.1,0,.3.2.4.3.3.4.3.6-.2.9s-1.1,1.2-1.3,1.1c-1.9-.9-3.3,1.5-5.3.8a3.85,3.85,0,0,0-4.2.5c-.8.5-2-.3-3.2.5-1,.6-2.5,0-3.8-.1a4.05,4.05,0,0,0-1.1,0c-.2.1-.4.2-.4.4s.2.4.3.4a9.36,9.36,0,0,0,1.6.4c2.1.4,4.4.8,6.6,1.2.5.1.4.6-.2.9-.4.3-1.1.8-.3,1.3a2,2,0,0,0,1.5-.1,7.22,7.22,0,0,1,2.7-.5c1,.1,2,.1,2.4,1.3,2,.5,4.2,1.3,6.4.5.3-.1.8-.3.8-.3,1.1,2.4,2.5.3,3.7.2a.75.75,0,0,1,.5.1c.1.1.3.3.3.4a11.43,11.43,0,0,1-1.5,2.9c-.2.3-1,.2-1.5.2a4.05,4.05,0,0,0-1.1,0,1.69,1.69,0,0,0-.7,1,1.11,1.11,0,0,0,.7,1.5c.8.2,1.9.5,2.2.1,1.2-1.3,2.5-.7,3.7-.5.9.1,1.7,0,2.5,1a4,4,0,0,1,.7,3.5c-.1.8.2,1.2.9,1.3a8.75,8.75,0,0,1,1.6.2c.1,0,.3.3.3.4-.1.3-.3.8-.4.8a2.38,2.38,0,0,0-2.1.7c-.3.3-1.3.3-1.4.1-.7-1.9-1.6-.5-2.5-.2-.5.2-1.3.2-1.4.5a10.14,10.14,0,0,0-.2,2.5c-.1.1.6.4.7.3,1.1-1.1,1.9-1.2,2.8.2a1.05,1.05,0,0,0,.9.5c1.8,0,3.7,1.5,5.3-.5,2.7.4,5.3.8,7.9,1.2.1,0,.2.2.3.4-.2.3-.6.7-.8.7-.7,0-1.4-.1-2.2-.1-.1,0-.4.2-.4.4s.1.4.2.4c3.3.5,6.6,1.1,10,1.6.4,0,.6.6.8.8-.1.2-.3.2-.4.4-.3,1-3.1.8-1.2,3-.7.7-1.3,1.2-2,1.9-1.8-.9-3.6.2-5.3.4a3.52,3.52,0,0,0-2.5.9c-.6.7-.6.6-2.4-.1a3,3,0,0,0-3.6.9c-.9,1.1-.9,1.7.5,2.6a6.47,6.47,0,0,0,.9.8c-.3.2-.7.6-.9.5-1.1-.3-1.6.8-2.4,1.3a.76.76,0,0,0-.2.4c0,.2.2.5.3.5,2.9.4,6,.9,8.9,1.3.1,0,.2.2.3.4V78c-1.3.7-1.9,2.5-3.7,2.6-.9.1-1.6.8-2.5.9-.7.1-1.5-.4-2.1.4-.7,1-1.7.2-2.6.3-.4,0-.6.5-.8.7,0,0,.2.4.3.4a34,34,0,0,1,3.4.7c1.4.5,2-1.1,3.1-.9.3,0,.9.3.9.5a3.21,3.21,0,0,1-.2,1.7c-.1.2-.7.1-1,.2-1.2.4-2.3,1-3.5,1.4-.2,1.7-.5,2.7-1.7.7a1.77,1.77,0,0,0-.8.5c-.3,1.3.2,1.9,1.4,2,.1,0,.2.6.3.9,0,0-.3.3-.4.3a26.6,26.6,0,0,1-2.8-.3c-.1-.3-.1-1.1-.3-1.1-1.3-.4-3-1.6-3.3,1.3-.1.2-.7.3-1,.4-1.7.7-1.8.7-1,2.4.3.6.4.9-.1,1.4a4.07,4.07,0,0,1-2.5,1.1c-.9.1-.2,1,.1,1.3.7,1-.3.9-.5,1.3,0,.2-.2.3-.3.4.4.3.6.6.9.7,1.2.3,1.7-.7,2.4-1.4.9-.9,1.7-.6,2.6-.5-.1.3-.2.6-.1.7.5,1.2,1.6,1,2.5,1,1,.2.9-.9,1.1-1.7,0-.1.6-.2.8-.1.4.2.6.7.8,1,.8,1.5.6,2.1-.8,2.6s-2.6,1.6-4.1.8c-1.4,1.8-3.1.6-4.7.5-.8-.1-1.3.4-2,.7a31,31,0,0,1-4,1.3l-.4.4c.4.4.6.7.9.8l6.7,1.2c.2,0,.3.3.3.4s-.3.4-.4.4c-.5.1-1.1-.1-1.6,0a8,8,0,0,0-4.1,2.8c-1,1.1-2,2-3.5,1.3a2.06,2.06,0,0,1,.7-1.6c.4-.5.2-.8.2-.8a2.77,2.77,0,0,0-.8.5c0,.1-.1.4,0,.5s.3.2.4.1c.3-.1.4-.4.1-.3-1.1.1-1.6.2-1.5,1,0,.2.6.3.9.5-.3.3-.4,1-.6,1-1.2,0-2.3-.1-3.4-.2-1.6-.2-1.6,0-4.1.7-1.2.2-2.1,1.2-3.6,1-1.2-.2-2.6,1.5-4.1.7-.1,0-.3.2-.4.4a.3.3,0,0,0,0,.4c.9,1.1,2.8,0,3.3,1.9,0,.1.3.2.3.2,1.5-1.7,3.2-.5,4.8-.4.9,0,1.3-.6,2-.9a1.49,1.49,0,0,1,1.4.3c.6.6,1,1.2,1.9,1.3.5.1.7.8,0,1.2-.4.3-.9,1.1-1.3,1.1a9.91,9.91,0,0,1-3.4-.4c-1.5-.5-2.2,1.4-3.7,1-2-.6-4-1.4-5.9.3-1.6.1-3.3-1-4.9,0-1.8,1.1-3.5-.1-5.4-.1-.7,0-1.9-.3-2.1,0-1.2,1.7-2.9-.1-4.1,1.2-.7.8-1.9.6-2.9,1.3-.8.6-2.2-.2-3.3-.3-.1,0-.4.2-.4.3,0,.4.2.9.3.9,2,.4,3.8.6,5.7.8,1.9-1.9,3.9-.4,5.9-.4,1.2,0,2.3.2,3.4.3,2.3-2,4.7-.2,7,0a.42.42,0,0,1,0,.8l-4.5-.3a1.25,1.25,0,0,0-.9.5c.2,2.1-1.5,1.3-2.2,2-1.1,1.2-1.5.1-2-.7-.7,1.2-2,.7-2.9,1.4-.4.3-.6.6-.9.8-.7.5-.7.7.2,1.2a10.14,10.14,0,0,0,1.3.9c-.5.1-1.2.5-1.5.3-1.4-.8-2.2,1.3-3.6.9a10.48,10.48,0,0,0-3.9-.5c-1.3.2-2.6,1.6-4.1.7-.1,0-.4.2-.4.3.1.4.2.9.3.9a19.93,19.93,0,0,1,3.4.5c1.4.5,1.9-1.3,3.1-.9a7.05,7.05,0,0,1,.9.7c-.1.1-.2.3-.3.4a2.87,2.87,0,0,1-2.9,1.2c-1.2-.4-1.9.1-.8,1.5.3.2-1.3,2.1-1.6,2.1-1.5,0-3.3-1-4.7.7-1.3-.3-2.7-.3-3.9-.7-1.6-.5-2.7,1.3-4.2.9a32.6,32.6,0,0,0-4.5-.5c-1.3,2-3.2.3-4.7.8a2.18,2.18,0,0,1-1.6.9c-1.6-.2-2.2-.3-2.7-.3-.3,0-.5.5-.7.7,0,0,.2.4.3.4a30.62,30.62,0,0,0,3.2.5,1.05,1.05,0,0,0,.9-.5c.4-.5.1-.7-.4-.7s-1-.1-.5,0c2.6.4,4.1.6,5.6.8.4,0,.9.3.9.5,0,.9-.6.7-1.1.8-1.2.3-2.3,1.6-3.6.8-1.6-.8-2.6,1.4-4.2.9-1.4-.5-3-1.2-4.2.4a31,31,0,0,1-4.5-.5c-1.6-.3-2.6,1.4-4.2.9s-3-.5-4.5-.8c-1.1-.2-2.1-.3-3,.9-1.6-.3-2.9,1.6-4.8.8-1.5-.7-3-.5-4.5-.7-1.4,1.8-3.2.5-4.8.5-2.3,0-4.7-1.7-7,.3-2-.3-3.9-1-5.9.4a1.1,1.1,0,0,1-1-.4c-.4-.7-.8-1.2-1.6-.3-.3.3-1,.2-1.5.2-1.1-.1-2.3-.3-3.4-.4-1.2,1.7-2.7.8-4.1.7-.9,0-1-.4-.1-1.4a2.26,2.26,0,0,0,.5-1.7c0-.7-1-1-1.9-.7-.4.3-1,.8-1.4.8-1.9-.1-3.7-.3-5.6-.4-1.8,1.6-3.7.1-5.4.1-1.3,0-2.5-.4-3.7.8-.3.4-1.4-.1-2.2-.3-.1,0-.2-.8-.1-.9.8-.6,1.3-1.6,2.4-1.4a11.84,11.84,0,0,0,2.7.2c.2.1.4-.2.4-.3s-.2-.3-.3-.5c-.7-1.1-1.5-2.7-3-1.1-.8.7-1.4.2-2.2.2a17.85,17.85,0,0,0-2.3-.2,12.54,12.54,0,0,0-2.5.9c-.3.1-1,.2-1,.3,0,.8.6.9,1.1,1,.8.1,1.8.3,2.7.5a.85.85,0,0,1,.3.5c0,.1-.2.4-.3.4a6.84,6.84,0,0,0-4.1.9c-.6.5-1.8,0-2.7-.3-1.3-.5-1.9,1-3,.9a12.66,12.66,0,0,1-3.9-.5c-1.6-.5-2.8.7-4.2.7-2.1.1-4.1-.6-6.2-.8a1.88,1.88,0,0,0-1.5.2c-1.3,1.2-2.6.2-3.8.3s-2.2,1.3-3.6.9a17.22,17.22,0,0,0-3.9-.4c-.1,0-.3.2-.4.4s.1.3.2.4c.6.8.9,1.9,2.1,1.9.1,0,.3.5.5.8-.1.1-.3.3-.4.3a16.66,16.66,0,0,1-3.9-.5c-1.4-.5-2.4,1-3.6.9-1.7-.3-3.5-.5-5.1-.8-.1,0-.3-.7-.2-.9.2-.5,1.5-.9.2-1.6-.6-.3-1.2-1-1.7-1.3-.3-.2-1.2.7-1.7.7-1-.1-2.1-.3-3,.9-1.6-.3-3.4-.2-5-.7-1.8-.5-3.1,1.5-4.8.8-1.5-.6-3.1-.3-4.5-.8-1.8-.6-3.1,1.5-4.8.8a23.38,23.38,0,0,0-4.5-.7c-2.4,1.7-5,.3-7.5.2-.2-.1-.4-.2-.5-.1-2.5,1.7-5.1.3-7.6.2-.4,0-.9-.1-1.1.1-1.1,1.5-2.5.6-3.7.5-2.1-.2-4.1-.6-6.2-.9-2,1.9-4.2.3-6.4.4-.3.1-.9.1-1,.3a3.33,3.33,0,0,0-.2,1.7c.1.6.5.6.8.1.6-.7,1.3-.6,2.1-.5,1.6.4,3.1.3,4.5.8,1.7.6,2.8-.7,4.2-.8a4.25,4.25,0,0,1,1.1.2c.4.3.6.6.9.8-.1.2-.3.3-.4.4-.6.4-1.2,1.2-1.9,1.2-1.5,0-3-.4-4.5-.5-1.3,0-2.5-.9-3.8.2s-3,0-4.4-.1a3.29,3.29,0,0,0-3,.9c-.4.5-1.5-.4-1.4-1.2a2.54,2.54,0,0,1,.9-1.3,17,17,0,0,1,2.2.1c.1,0,.3-.2.4-.4s-.1-.4-.2-.4c-1.2-.2-2.7-.9-3.7-.4a4.57,4.57,0,0,1-3.2.5c-1.3-.2-2.7.1-3.5-1.6-.1-.2-.9-.3-1-.2a3.48,3.48,0,0,1-3.6.8c-1.5-.4-3.1-.8-3.4,1.7a1.5,1.5,0,0,1-1,.2c-1.4-.7-2.3,1.1-3.6.9-1.5-.2-2.8-.4-4.2.7-.5.5-1.4,0-2.2-.2-1.1-.3-1.6,1.1-2.5,1a2,2,0,0,1-1.2-1c-.1-.4.4-1.1.7-1.5.2-.2.8.1,1.1,0a1.12,1.12,0,0,0,.7-.8s-.2-.4-.3-.4c-2-.4-3.8-.7-5.7-.9-1,1.5-2.3,1-3.6.8-1.5-.3-3-.5-4.5-.7-1.1-.2-2.3-.3-3.4-.4-1.9,1.9-3.9.4-5.9.4-.9,0-2.1-.7-2.8-.3-2.6,1.6-5.1.3-7.6.2-.4,0-1-.1-1.1.1-1.1,1.4-2.5.5-3.7.5s-1.2-.1-1.5,1.9c-.1.8-.1,1.7-1.2,1.6-2.1-.2-4.1-.6-6.2-.9-.2,0-.3-.6-.4-.9,0,0,.3-.3.4-.3.8,0,1.5.2,2.3.2a4.39,4.39,0,0,0,1.5-.2c.1-1.3-1.1-.8-1.4-1.2-.7-.8-1-1.4-2.1-.4s-2.6-.6-3.6,1c-1.3-.1-2.6-.3-3.9-.3-3.1-.1-6.2-2-9.3,0a16.66,16.66,0,0,1-3.9-.5c-1.6-.6-2.7.5-4.2.7a17.26,17.26,0,0,1-4.5-.5c-1.7-.3-3.5-.4-5.1-.8s-2.6,1.6-4.2.9c-1.2-.6-2.6-.4-3.9-.7s-2.5.3-3.7.7-2.6-.3-3.9-.4c-.3-.1-.8.2-1,.4-1.2,1.3-3-.6-4,1.3l-3.4-.3c-2.3-.3-4.5-.6-6.8-1-1-.1-1.6.7-2.5.9a13.05,13.05,0,0,1-3.4-.3c-1.6-.1-3.4-1.2-4.8.7-1.1-.1-2.5-.8-3.3-.3a4.21,4.21,0,0,1-3.2.8c-.3,0-.7.3-1,.4a4.7,4.7,0,0,0,1.2.9c.5.2,1.1.2,1.6.4a.85.85,0,0,1,.3.5c0,.2-.3.4-.4.4-1.1,0-2.5-.6-3.3-.1-2,1.4-3.9.4-5.9.3-.2,0-.4-.6-.5-.9,0,0,.3-.3.4-.3l2.8.3c1.2.2,1.6-1,2.4-1.4-.1-.4-.2-.9-.4-.9-1.1-.2-2.2-.8-3.2.5-.1.2-.8.2-1,.1-.4-.3-.8-1.2-1.2-1.2-.7,0-1.2.6-1.9.8a8.54,8.54,0,0,1-4.8.7c-1.7-.2-3.7-1.5-5.3.5a1.47,1.47,0,0,1-1.1-.2c-.6-.7-1-1.7-2-.4-2.4-.3-4.8-.7-7.2-1-.1,0-.3-.3-.3-.4s.3-.3.4-.4c.4-.3.9-1.1,1.3-1.1,1.1,0,2.4.7,3.3.2,1.3-.8,2.5-1.2,3.7-.7,2.1.9,3.8-1.7,5.9-.7.2.1.9-.7,1.3-1.1.1-.2.3-.3.4-.4-.4-.3-.5-.7-.8-.8a2.15,2.15,0,0,0-1.1-.2,13.17,13.17,0,0,0-3.4-.4c-.9,0-2,.8-3,.8-3.3.1-6.5-1.8-9.9-.1-.9.6-2.3-.2-3.4-.3a13.51,13.51,0,0,1-2.8-.4c-1.3-.6-1.9,1-3,.9a37.23,37.23,0,0,0-5.7-.8c-1.7-.1-3.7-1.2-5.4-.2-1.9,1.2-3.5.1-5.4,0a3.87,3.87,0,0,0-2.1.8c-.7.5-.9-1.4-1.4-.9a2.86,2.86,0,0,1-2.6.7c-2.1-.4-4.1-.6-6.2-.9-2.4,2.2-5,.2-7.5.2-1,0-2.1-.2-3,.9-.2.2-1.1.1-1.4-.7s-1.2-1.5-1.7-1a3.59,3.59,0,0,1-3.2.8c-2.1-.4-4.1-.6-6.2-.8-1.2,1.7-2.9,0-4.1.7a6.31,6.31,0,0,1-4.2.7c-.3,0-.8,0-1,.2-1.3,1.4-2.8.3-4.2.3-1.5-2.6-4.1-1.6-6.2-2.1-1.1-.3-2.2,1.3-3.6.8a23.38,23.38,0,0,0-4.5-.7c-.2,0-.4-.1-.5,0-1.6,1.8-3.6.4-5.3.4-1.2,0-2.5-.7-3.4-.3-2.6,1.4-5.1.2-7.6.1-.4,0-.9-.1-1.1.1-1.1,1.5-2.5.6-3.7.5-2.5-.2-2.5-.3-6.2,1.3-.9.4-1.9.7-2.9,1.2-.6.4-1.7-.2-2.7-.3-1.6-.2-3.1-.8-4.5-.5a9.39,9.39,0,0,1-4.1.8.78.78,0,0,0-.4.4c0,.1.2.4.3.4,2.3.2,4.7,2,7,0,0,0,.5.6.5.8-.2.5-.4,1.5-.7,1.5a14.07,14.07,0,0,1-2.8-.3c-1-.2-1.7,1.6-3,.9-.8-.3-1.4.2-2.1.7s-.9-1.3-1.4-.9a2.93,2.93,0,0,1-2.6.8c-2.8-.2-5.4-1.4-8.2,0-1.2.7-2.9,0-4.4-.1-1.5,1.6-3.2,0-4.8.2-.2,0-.4-.2-.5-.1-1.6,1.9-3.6.5-5.3.5-.7,0-1-.5-.9-1.2.1-.5.7-1.3.9-1.3,1.4.4,1.9-.8,2.8-1.6a1.29,1.29,0,0,0,.1-1.2,3.69,3.69,0,0,0-1.4-.9.76.76,0,0,0-.4.2c-1.6,2.3-3.6,1.9-5.7,1.5a2.08,2.08,0,0,0-1.1-.1,1.6,1.6,0,0,0-.7.9,1.57,1.57,0,0,0,.1,1.2c.3.5,1,.6,1.4.8a.85.85,0,0,1,.3.5.71.71,0,0,1-.6.6c-1.6-.1-3.4-.8-4.8.7-1.7-.3-3.4-.5-5.1-.7-1.9,1.8-4,.3-5.9.7-1.4.3-2.6,1.6-3.6-.7-1.2-.3-2.8.3-3.7-1-1.2-1.6-2.7-1.1-4.1-1.3-3.2-.6-6.4-.9-9.6-1.4a2.93,2.93,0,0,0-3,1.1,2.34,2.34,0,0,1-2.5.8,26,26,0,0,0-3.9-.5c-.4,0-.6.3-.9.5.1.2.2.3.3.5.7,1.2,1.5,2.7,3,1.1.8-1,1.8-.1,2.7-.1,1.1,0,2.3.3,3.4.4,1-1.6,2.3-.9,3.6-.9,1.9-1.9,3.8-.5,5.8-.2.2,0,.3.8.3,1.1a1.88,1.88,0,0,1-.4,1,6.78,6.78,0,0,0-4.1,1c-.2.1-1-.6-1.3-1s-.5-.5-.9-.2a2.33,2.33,0,0,1-1.4.7c-1.7-.2-3.4-.5-5.1-.7-1.4,2-3.2.7-4.8.7-.9,0-.9-.1-2.8-2.6a2,2,0,0,0-1.5-.3c-.5.1-.5.5-.1.9.2.3,1,.9.1,1.4-.6.4-1,1.2-1.9,1.2-1.5-.1-3.1-1.3-4.4-.2-1.6,1.3-3,.2-4.4.2a36.42,36.42,0,0,1-4.5-.5c-.3-.1-1-.3-1.1-.1-1.3,1.7-2.8.8-4.2.7s-2.6-.4-3.9-.5c-1.1-.1-2-.4-3.2.4-1,.6-2.5,0-3.8.1-.2,0-.3.7-.5,1a4.05,4.05,0,0,1-.9-.5c-1.3-1.3-1.5-1.3-2.7-.2a2.92,2.92,0,0,0-1.1,2.1c-.3,1.8-.4,1.8-1.6,1.7-2.2-.1-4.3-1.2-6.4.4-1.4-.3-3-.4-4.5-.7-2.3-.7-4.3.1-6.2,1.3-1,.6-1-.4-1.2-.7-.4-.4-.5-.4-.9,0-.8.9-1.6,1-2.3-.1-.5-.8-1.2-1.2-1.9-.7-1.7,1.5-3.2.7-4.7,0-.5-.2-.7-1.1-1.6-.3-.7.6-2,.3-2.9,1.3-.2.2-1-.4-1.4-.7a2.85,2.85,0,0,1-.8-.7c-1.1,1.6-2.4.8-3.7.7a13.33,13.33,0,0,0-2.8-.3c-.7,0-1.6,1.1-1.9.9-1.7-1-2.7,1.2-4.2.9a35,35,0,0,0-4.5-.7c-1.3-.2-2.6-.3-3.9-.5-1.5-.3-3-.5-4.5-.7-1.3-.2-2.6-.3-3.9-.5-1.2,1.6-2.7.9-4.1.8s-2.9-.8-4.2.7c-.1.2-1-.4-1.4-.7-1.7-1.2-1.8-1.5-3.4-.5-1.2.6-2.4-.4-3.2.4-1.2,1.2-2.5.6-3.7.4s-1.8,1.3-3.1,1c-1.9-.5-3.8-.5-5.7-.9-.5-.1-.7-.8,0-1.2s.8-1.2.1-1.3a55.79,55.79,0,0,0-5.7-.8c-1.4,2-3.5,0-4.7.9-1.9,1.4-3.7.4-5.4.3s-1.8-.2-2.3,2.3c-.1.3-.4,1-.5,1a23.36,23.36,0,0,1-2.6-.4c-.1,0-.2-.3-.2-.4s.3-.3.4-.4c.4-.4,1-1.1.2-1.3a16.91,16.91,0,0,0-4.5-.7c-1.6-.1-3.4-1.2-4.8.7-2.3-.3-4.5-.7-6.8-1-1.1-.2-2.5-.8-3.3-.3a5.29,5.29,0,0,1-3.2.8,8.38,8.38,0,0,0-2.5.9,3.47,3.47,0,0,0-2.5,3.7c0,.9-.4,1.2-1.1,1.1a26,26,0,0,1-3.9-.5c-.5-.1-.8-.7-.1-1.2a1.89,1.89,0,0,0,.8-1.5c-.3-.9-.8-2.2-1.5-2.4a26.08,26.08,0,0,0-5.6-.8c-.5,1.7-3.4-.2-3.2,2.7,0,.3-.9.8-1.3,1.2-.6.5-.9.4-1.1-.4-.1-.5-.2-1.2-.3-1.7-.4.3-.9.8-1.3,1.1-.7.5-.2.9,0,1.4.4.7.1,1.2-.4,1.1-.8-.1-1.4-.2-1.3-1.5a1.66,1.66,0,0,0-.2-1.1c-.7-.2-.9.3-.9,1,0,.3-.1.5-.1.7-.3,1.7-.4,1.8-1.7,1.6-.3-.1-.9,0-1.1-.2-1.1-1.5-2.2-2.1-3.6-.4a13.33,13.33,0,0,0-2.8-.3,25,25,0,0,0-2.5.9c-.2,0-.6-.5-.9-.7.1-.1.2-.3.3-.4s.3-.2.4-.4c.9-1.5.6-2.2-.8-2.6-2.2-.7-3.8.6-5.7,1.4-.8.2-1.2,1-1.9,1.5a12.44,12.44,0,0,1-5,1.9c-1.8.1-2.8,1.6-3.9,2.9-.2.2,1.4,1.2.1,1.6a15.87,15.87,0,0,1-2,.7c-1.3.4-2.5.6-2.3,2.6a1.88,1.88,0,0,1-.4,1c-2.1-.5-2.8,2.6-4.9,2.3-.4-.1-.6.4-.3,1.2.8,1.6,2.5,1.5,3.4,3,0,.2,1.1,0,1.4-.3.5-.4,1.4-.6,1.4-1.7.9.3,1.2-.7,1.9-1.1.4-.3.6-.6.9-.8.1-.1.3-.2.4-.1s.3.3.3.4c-.3,1.2.4,1.9.9,2.8-1.3.7-2.1,2.8-3.7,2.6a3.58,3.58,0,0,0-3.1,1c-.7.7-.8.7-1.5-.9a5,5,0,0,0-.7-.5c-1.1,1.3-3.1,1-4.2,2.6-.6.9-1.3.1-2.1.2,0-.4,0-.9.9-1.8.4-.5.2-.8.2-.8a2.77,2.77,0,0,0-.8.5c0,.1-.1.4,0,.5s.3.2.4.1c.3-.1.4-.4.1-.3-1.5.1-2.3-.1-3.2.8a1.08,1.08,0,0,1-1.9-.3c-.2-.7.2-2,.9-1.9,1.1.1,1.7-.6,2.4-1.3a2.77,2.77,0,0,0,.5-1.6c0-.4-.5-.7-.8-.8-.9-.2-2,.1-2.5-1.1s-2.2-.2-2.9-1.3c-1.1-1.8-1.3-.7-1.5.5a1,1,0,0,1-.7.8c-1.1-.1-2.3-.3-3.4-.4s-2-.5-3.2.4c-.7.6-2.2.2-3.2-.1-1.6-.6-2.6,1.3-4.1,1-.1,0-.3.7-.5,1-.4,0-.8-.2-1.1-.1a8.84,8.84,0,0,1-4.4,1c-.1,0-.3.7-.4,1a2.46,2.46,0,0,0-2.9.9c-1.2,1.8-2.7.9-4.1.8s-.6-1.6-1.1-2.3c-.3-.3-1.3-.7-1.4-.5a2.86,2.86,0,0,1-3.1.9c-.7-.1-1.4-.7-2.1.1-1.1,1.3-2.4.3-3.6.3.2-.3.3-.7.5-1,1.2-1.4,1.2-1.7.2-3-1.1-1.6-2.6-2-3.8-.7a3.54,3.54,0,0,1-4.1,1.2c-1.4-.5-2.5,1.8-4.1.8-.3-.2-1,.7-1.4.7-1.6,0-3,1.9-4.7,1.1-.5-.3-1.3,1.3-1,1.7s1.2.9,1.3.8c1.4-1.9,3.7.2,5.1-1.7.3-.3,1.4,0,2.2.2a.51.51,0,0,1,0,.8c0,.1-.3.2-.4.4-1,1.6-2.3,1-3.6.9-1.1,2-3.4-.1-4.5,1.6-1.9-.1-3.7-.3-5.6-.4-2.2-.1-4.3-1.5-6.4.4-1.6-.3-3.4-.5-5-.8-.4,0-.6-.5-.9-.7.4-.2.6-.5.9-.5.8-.1,1.4.1,2.2,0,.2,0,.3-.6,1.6-1.5.4-.5-.2-.5-.7-.4-.2.1-.3.7-.5,1,.9-.1,1.1,1.4,1.6,1.3.7-.1,1.2-.9,1.9-1.3a2.65,2.65,0,0,0-2.3-.4c-2,.5-2.3,0-2.2-.7.1-.5.6-1.4.8-1.4.9.1,1.4-.4,2.1-.8.3-.2,1.3-.2,1.4,0,1.1,2.3,2.4.8,3.7.3,1.5-.6,3.1-1.4,4.7-.7a3,3,0,0,0,3.5-1.2,2,2,0,0,1,2.1-.7,9.08,9.08,0,0,0,2.3.3c.3,0,.7-.6.7-.9,0-.6-.2-1.6-.4-1.6-.9,0-1.8-.9-2.6.1-1.1,1.5-3-.7-4,1.2H81.3c-1.9-.3-3.7-.5-5.6-.8-.8-.1-1.3.4-2,.8a1.34,1.34,0,0,1-1.9-.7c-.7-1.1-1.4-1.1-2.3-.3a1.72,1.72,0,0,1-.8.1c0-.4-.2-1-.1-1.2.7-1.3,1.6-2.3,3.1-2.1,1.1.1,2.2.9,3.2-.4a2.28,2.28,0,0,1,.9-.8,2.33,2.33,0,0,0-1.1-.9,3.09,3.09,0,0,1-2.4-1.3c-.5-.5-1.7-.8-2.1-.5-1.3,1-2.7.9-4.1,1-.4,0-.4.5,0,.9s.9.9,0,1.3c-.6.3-.9,1.4-1.9,1.1.2-1.2-.5-1.4-1.3-1.4-1.9,0-3.1-1-4.1-2.7-.6-1.1-.9-.1-1,.3-.2.9-.3,1.6-1.4,1.4-.9-.2-1.8-.2-2.8-.4-.1,0-.3-.4-.3-.4.3-.3.5-.7.7-.7a17,17,0,0,1,2.2.1c.1,0,.3-.2.4-.3a.76.76,0,0,0-.2-.4c-.9-1-2.2-.2-3.1-1.3s-2.2.4-3.2.7a28.28,28.28,0,0,0-5.4,2.3c-.9.4-.7-.5-.8-1,0-.3,0-1-.2-1.1-.8-.6-2.4-.5-1.7-2.5a4,4,0,0,0-.3-.4c-1.1-.7-2.6-.2-3.3-1.9a3,3,0,0,0-.8.7c-.2.7-.2,1.7-1.3,1.5s-2.3-.3-3.4-.4c-1.3-.3-2.7-.3-3.9-.7-1.4-.5-2,1.3-3.1.9s-2.9.8-3.2-1.5c-.2-1.2.5-1.7,3.1-1,2.2.5,3.9-.4,5.9-.8.5-.1.5-.5.1-.9a2.34,2.34,0,0,1-.5-2.3c.3-1.3-.1-2-1.3-2.1-.2,0-.5-.7-.5-.9a6.89,6.89,0,0,1,.7-1.5c.2-.1.8.1,1.1.1,1.1.1,2.3.3,3.4.4.2,0,.4-.5.5-.8,0-.1-.2-.4-.3-.4a23.58,23.58,0,0,0-2.8-.4,5.69,5.69,0,0,1-2-2.1c.5-.9,1.2-.5,1.9-.4,1.4.3,3,.4,4.5.7,1.1.3,1.6-.7,2.4-1.2.4-.3.4-.6,0-1s-.9-1.4-1.6-1.6a13.06,13.06,0,0,0-3.9-.5c-2.6.1-3.6-1.9-4.7-3.9-.4-.6.2-2,.5-2.9.3-.6,1.5-1.3.1-1.5-4.5-.9-9-1.5-13.5-2-.5-.1-1,.3-1.5.4s-.6.1-.9.2c0-.4-.2-.9-.1-1.2,0-.5.3-1,.5-1,2,.2,3.8.5,5.7.7,1.7.2,2.3-.5,2.1-2.6,0-.8-.5-1.4-.5-2.1,0-.5,1.5-.8.2-1.6-1.6-.9-3-2.4-5-2.1-.3,0-.6-.6-.8-.8.3-.1.7-.3,1-.4,1.4-.3,2.6-1.7,4.2-.8a3.4,3.4,0,0,0,.8-1.4c.1-.9-1-1.7-1.5-1.2a3,3,0,0,1-3.1.9,19.93,19.93,0,0,1-3.4-.5c-.9-.4-1.3,1.8-2.2.4-.7-1.3-1.9-.9-3-1.1-.8-.2-1.5-.1-2.3-.3a2.15,2.15,0,0,0-2,.9c-.4.4-.8,1-1.2,1.1-.4.3-1-.1-1.4-.4a5.27,5.27,0,0,1-1.1-1.5c-.6-1.7.5-3.4,2-3.2,1.1.1,2.3.2,3.4.4.9.2,1.9-.2,2.6.9,1,1.8,1.6-.5,2.7-.2,1.8.6,3.7.5,5.6.9,2.1.6,3.9,0,5.9-.4,1.6-.4,3.4,1.2,4.8-.7,1.1,2.2,1.9.6,2.8-.2.1-.1.3-.3.4-.3.4.1.7.2.8.4.3.5.8.9,1.1.1a2,2,0,0,0-.2-1.7c-.3-.5-1-.5-1.4-.8s-.2-.6.2-.9.9-1.1.2-1.2c-2-.2-4-1.7-5.9.3-.1.1-.9,0-1-.2-.6-2.3-3.2-.7-4-2.8,0,0-.8.2-.8.3-.2,2.3-2.3,2.7-3.4,4A1.1,1.1,0,0,1,15,112c-.8-.8-1.4-1.9-2.2-2.9-.4-.6-.5-.8,0-1,.2,0,.4-.2.5-.1,1.8.9,3.1-1,4.7-1,.3,0,.2-.5-.1-.9-.7-.8-1-1.7-2.2-1.7-1.5.2-3.3-.9-4.7.7-1-2.2-3-1.5-4.5-1.9s-3-.5-4.5-.8a.85.85,0,0,1-.3-.5.45.45,0,0,1,.3-.4l4.5.3c2.4-1.9,5-.2,7.5-.2h1.2a.76.76,0,0,0,.2-.4c0-.2-.2-.5-.3-.5a20.69,20.69,0,0,1-2.2-.4c-.2-.1-.3-.6-.4-.9,0,0,.3-.3.4-.3.3,0,.8.1,1.1.1,2,.2,4.2.2,5.2,2.9.1.2,1.2.5,1.4.3,1-1.1,2.1-.8,3.2-.7,1.6.2,3.4.4,5,.5,1.7-1.8,3.6,0,5.3-.4.9-.2,1.9-.9,2.9-1.2a2.13,2.13,0,0,0,.2-1.6,1.42,1.42,0,0,0-1.4-.7c-.5.1-1,1-1.4,1-2.3-.2-4.5-.7-6.8-1-.1,0-.1-.6-.1-.9s.3-.2.4-.4c.4-.8.6-1.7,1.1-2.1,1-.8,1.5.3,2.2,1.1.1.2.7.3,1,.3a1,1,0,0,0,1-1.3c0-.4-.1-1.1-.3-1.1a19.42,19.42,0,0,0-3.3-.7c-.2-.1-.3-.6-.4-.9,0,0,.3-.3.4-.3a24,24,0,0,0,2.8.3c.7.1,1.7.8,2.1-.1s-1.1-1.5-.7-2.7c.2-.1-.2-.7-.5-.9s-.8-.1-1.1-.2c-1.2-.3-1.1-.1-4.5,1.6a19.45,19.45,0,0,1-2.9,1.2,1.16,1.16,0,0,1-1-.4c-.2-.5-.3-1.5-.1-1.7a16.54,16.54,0,0,0,1.5-2.5c.8-1.1,2.1.1,3.2-.1.9-.2,1.6-.9,2.5-.9a33.1,33.1,0,0,1,3.3.4,3.81,3.81,0,0,0,1-.3,3,3,0,0,0-.4-1c-.8-1.1-1.8-2.2-.7-4.3.6-.5.1-.5-.4-.4-.2,0-.3.1-.4.3-.4.6-.1.7.4.7.8,0,1.4.2,2.2.2.3,0,.5-.5.7-.7a4,4,0,0,0-.3-.4c-.3-.1-.7-.2-2.2.2a4.17,4.17,0,0,0-2.3,1.2c-1.2.7-2.9-.6-4,1.1-1.6-.3-3-.5-4.5-.8a.85.85,0,0,1-.3-.5c0-.1.2-.4.3-.4a4.1,4.1,0,0,1,1.1-.1c.6,0,1.2.2,1.7.2,1.5.1,2.5-.9,2.9-2.9.4-1.7.4-1.7,1.7-1.6,1.1.1,2.3.3,3.4.4.3,0,.5-.5.7-.7,0,0-.2-.4-.3-.4-1.2-.2-2.3-.3-3.4-.5-.1,0-.2-.6-.3-.9,0-.1.3-.3.4-.3a16.37,16.37,0,0,1,5.3,1.3c.5.5.7.3.7.3a1.88,1.88,0,0,0-.4-.9c0-.1-.3-.2-.4-.1s-.2.4-.1.5c.1.3.4.5.3.1-.3-1.4.3-1.8.8-1.7,1.1.1,2.2.4,3.1-.8.3-.4.5-.6.7-.9-.5-.3-1.2-.9-1.4-.7a3,3,0,0,1-3.1.9c-2.3-.5-4.5-.7-6.8-1-1.1-.2-1.1.6-1.3,1.5a1.25,1.25,0,0,1-.8.8c-1.6-.2-3-.4-4.5-.7-1.2-.2-1.7.5-2.5,1.2-.1.2-.3.3-.4.4.3.3.5.7.8.8.9.2,1.9.2,2.8.4.4.1.6.6.8.8-.3.1-.7.3-1,.4-1.6.6-3.1,1.2-4.8.7-.9-.2-1.9-.2-2.8-.4-.2-.1-.3-.6-.4-.9,0,0,.3-.3.4-.3a17.85,17.85,0,0,1,2.3.2c.1,0,.4-.2.4-.3,0-.4-.2-.9-.3-.9-1.3-.2-2.6-.4-3.9-.5-.9-.1-1.1-1.1-1.6-1.6s-.4-.9,0-.9c1.4.1,2.4-1,3.4-1.9a2.11,2.11,0,0,1,1-.4c1.7.2,3.4.5,5.1.7,1.4-1.6,3.1-.9,4.7-.7,1.3.2,2.6.6,3.6-.8,5.3-1.1,5.1-1.2,7-2.7,1.2-1.1,1.2-2,.2-3.2-.2-.4-.1-.6.3-.9s.9-1.1.2-1.3a19.93,19.93,0,0,0-3.4-.5c-.1,0-.3-.3-.3-.4.1-.4.4-.8.5-.8,1.4.4,2.5-.3,3.7-.7a6.29,6.29,0,0,0,2.4-1.3c.4-.3.3-.3-1-2.4a7.35,7.35,0,0,1-1.7-3.8c0-.7-.9-1.4-.5-2.3.6-1.2,1.6-.4,2.5-.4,1.1,0,.8-1.1,1.2-1.6.8-1.1,2.3-.8,3.3-1.9,1.3-1.3,2.1-1.1,3.8.3.1.1.2.4.3.4a8.08,8.08,0,0,0,1.5-.1c-.1-.3-.1-.8-.3-1a3.89,3.89,0,0,0-1.6-1.5c-1.1-.4-1.2-1.3-.4-2.3.3-.4,1.1-.5,1-1.4A17.75,17.75,0,0,1,54.4,40.07Z" transform="translate(-0.13 0.03)"/></svg>