<svg xmlns="http://www.w3.org/2000/svg" viewBox="0 0 271 21.75"><defs><style>.a{fill:#e85b4d;}</style></defs><path class="a" d="M247.68,15.05a.34.34,0,0,1,.26.08l-.13.08C247.81,15.13,247.68,15.13,247.68,15.05ZM33.83,18.91h0c.13-.07.25,0,.38,0l-.13.08A.5.5,0,0,0,33.83,18.91ZM198.6,13.59h0c.13,0,.26,0,.26.07s0,.08-.13.08S198.73,13.66,198.6,13.59Zm-67.39,1.23h0c.13-.08.25,0,.38,0l-.13.08A.5.5,0,0,0,131.21,14.82ZM20,17.76h0c0-.08,0-.08.13-.16s.12,0,.12.08S20.12,17.76,20,17.76ZM122.24,14.9h0a.24.24,0,0,1,.25,0l-.12.08C122.37,14.9,122.24,14.9,122.24,14.9Zm1.15-.08s-.13.08-.13.16l-.12-.08a.3.3,0,0,1,.25-.08Zm-5.64-.08a.34.34,0,0,1,.26.08l-.13.08c-.13,0-.13-.08-.13-.16Zm2.44,0-.13.08-.13-.08h.26C120.06,14.67,120.19,14.67,120.19,14.74ZM249.86,9.65c0,.08.13.08,0,0,.13.08,0,.15,0,.15l-.13-.07S249.86,9.73,249.86,9.65Zm-30,.62h0a.25.25,0,0,1,.25,0l-.13.07C220,10.27,219.88,10.27,219.88,10.27Zm-53.95,1.31c-.13,0-.13.08,0,0-.13,0-.25,0-.25-.08s0-.07.12-.07S165.8,11.58,165.93,11.58Zm2.56-.08c-.12,0-.12.08,0,0-.12,0-.25,0-.25-.07s0-.08.13-.08S168.37,11.5,168.49,11.5Zm63.43-1.77-.13.07-.13-.07Zm-3.08-.08h0c.13,0,.26,0,.26.08s0,.07-.13.07S228.84,9.65,228.84,9.65Zm-74.18,1.7s-.13.08-.13.15l-.13-.07c0-.08,0-.16.26-.08Zm76.11-2.16c.13,0,.25,0,.25.07s0,.08-.12.08S230.77,9.26,230.77,9.19Zm17.29-.47a.34.34,0,0,1,.26.08l-.13.08C248.06,8.8,248.06,8.8,248.06,8.72Zm-97.5,2.63.12-.08.13.08C150.68,11.27,150.68,11.35,150.56,11.35ZM149,11.19h0c0-.07,0-.07.13-.15s.12,0,.12.08A.55.55,0,0,1,149,11.19Zm96.35-2.7s-.13.08-.13.16l-.12-.08c0-.08.12-.16.25-.08Zm.39-.08c.13,0,.25,0,.25.08s0,.08-.12.08S245.76,8.49,245.76,8.41Zm-76.88,1.93h0c.13.08,0,.16,0,.16l-.13-.08ZM198,9.5c0-.08,0-.08.13-.16s.13,0,.13.08A.34.34,0,0,1,198,9.5ZM135.18,11h0c0-.08,0-.08.13-.16s.13,0,.13.08A.55.55,0,0,1,135.18,11Zm98.28-2.78h0a.24.24,0,0,1,.25,0l-.12.08ZM27.68,13.74a.32.32,0,0,1,.25.08l-.13.08c-.12-.08-.12-.08-.12-.16ZM133.9,10.58h0c.13.07,0,.15,0,.15l-.13-.08Zm8.33-.47h0c-.13,0-.26,0-.26-.07s0-.08.13-.08S142.23,10.11,142.23,10.11Zm4.1-.15a.3.3,0,0,1,.25.08l-.12.07c-.13-.07-.26-.07-.13-.15Zm-6.79.15c0-.07-.13-.07,0,0s0-.07.12-.15.13,0,.13.08S139.54,10,139.54,10.11Zm24.34-.69h0c0-.08,0-.08.13-.16s.13,0,.13.08S164,9.42,163.88,9.42ZM124,10h0c.13,0,.26,0,.26.07s0,.08-.13.08S124,10.11,124,10ZM53.17,11.66a.37.37,0,0,1,.26.07l-.13.08c-.13-.08-.13-.08-.13-.15Zm30.24-.85h0c.13.07,0,.15,0,.15l-.12-.08S83.29,10.81,83.41,10.81Zm49.46-1.62h0c-.13,0-.25,0-.25-.08s0-.08.12-.08S132.87,9.11,132.87,9.19ZM139,8.57c.13,0,.26,0,.26.08s0,.07-.13.07S139,8.65,139,8.57Zm121,7a.65.65,0,0,1,.51,0v.08a.42.42,0,0,1-.51-.08Zm-3.59,0c-.12,0-.25-.07-.38-.07.13,0,.26-.08.38-.08s.13.08.26.08A.37.37,0,0,1,256.39,15.59ZM20.76,19.68c.13,0,.25.08.25.16s-.38.08-.51,0v-.08A.58.58,0,0,1,20.76,19.68ZM38.18,18.6a1.71,1.71,0,0,1,.52-.07c.12,0,.12.07.25.07-.13,0-.13.08-.25.08A4.51,4.51,0,0,0,38.18,18.6Zm1.16,0h0a.43.43,0,0,1,.51-.07v.07C39.72,18.68,39.34,18.68,39.34,18.6Zm218.33-6.33c.13,0,.26.08.26.16s-.38.08-.51,0v-.08C257.42,12.27,257.55,12.27,257.67,12.27Zm-.64-.54h0a.44.44,0,0,1,.52-.07v.07C257.42,11.81,257,11.81,257,11.73Zm-120.7,3c.13,0,.26.08.26.16s-.38.08-.51,0v-.08A.57.57,0,0,1,136.33,14.74Zm-6,0c.13,0,.26.08.26.16s-.39.08-.52,0v-.08C130.05,14.74,130.05,14.74,130.31,14.74Zm-44.72.7c.13,0,.26.08.26.15s-.39.08-.51,0v-.07A.52.52,0,0,1,85.59,15.44ZM251.14,10.5c-.13,0-.26-.08-.38-.08.12,0,.25-.08.38-.08s.13.08.26.08A.58.58,0,0,0,251.14,10.5Zm-84.57,1.08h0a.46.46,0,0,1,.52-.08v.08C167.09,11.66,166.7,11.66,166.57,11.58Zm2.69-.08a1.68,1.68,0,0,1,.51-.07c.13,0,.13.07.26.07-.13,0-.13.08-.26.08S169.52,11.5,169.26,11.5Zm47.92-1.93a.62.62,0,0,1-.25-.07V9.42c.13-.08.51-.08.51,0Zm27-.85h0a.43.43,0,0,1,.51-.07v.07C244.6,8.8,244.22,8.8,244.22,8.72ZM132.1,11a.59.59,0,0,1,.52,0v.08c0,.07-.26.07-.52-.08C132.1,11.12,132.23,11.12,132.1,11Zm36-.85h0c-.13-.08,0-.08,0-.15s.26-.08.26,0,.12.07.25.07c-.13,0-.13.08-.25.08Zm-49.07,1a.64.64,0,0,1-.26-.07V11c.13-.08.51-.08.51,0Zm29.21-1a.17.17,0,0,1,0-.31h.13C148.51,10,148.51,10.11,148.25,10.19Zm-61.76.69a.64.64,0,0,1-.26-.07v-.08c.13-.08.52-.08.52,0S86.49,10.81,86.49,10.88Zm60.86-2.16a.67.67,0,0,1,.52,0V8.8c0,.08-.39.08-.52-.08Zm109.68,7a1.51,1.51,0,0,1,.52-.08c.12,0,.12.16.12.24l-.12.07A1.72,1.72,0,0,1,257,15.67Zm-10.5-.62h.25l.13.08s0,.08-.13.08h-.64l-.13-.08s0-.08.13-.08Zm14.22-2.31h-.26l-.13-.08c0-.08,0-.08.13-.08h.64l.13.08c0,.08,0,.08-.13.08ZM212.57,10h-.25l-.13-.08c0-.08,0-.08.13-.08H213l.12.08c0,.08,0,.08-.12.08ZM147.1,11.27h-.26l-.13-.08c0-.07,0-.07.13-.07h.64l.13.07c0,.08,0,.08-.13.08ZM200,9.8h-.25l-.13-.07s0-.08.13-.08h.64l.13.08s0,.07-.13.07Zm-34.33.47h-.26l-.13-.08s0-.08.13-.08h.64l.13.08s0,.08-.13.08Zm-41.39.92H124l-.13-.07c0-.08,0-.08.13-.08h.64l.13.08c0,.07,0,.07-.13.07Zm-6.92.08H117c-.13,0-.13-.08-.26-.08.13,0,.13-.07.26-.07h.51c.13,0,.12.07.25.07C117.5,11.19,117.37,11.19,117.37,11.27ZM201,8.8a.8.8,0,0,1,.38-.15.58.58,0,0,1,.26-.08c0,.08.13.15.13.23s-.26.15-.51.08S201,8.88,201,8.8Zm-57.28,1.39h-.25l-.13-.08c0-.07,0-.07.13-.07h.64l.13.07c0,.08,0,.08-.13.08Zm105.33,0h-.9l-.13-.08c0-.07,0-.07.13-.15H249a.34.34,0,0,1,.26.08C249.22,10.11,249.22,10.19,249.09,10.19ZM22.55,17.52c.13,0,.13.08.26.08-.26.08-.26.31-.64.31-.13,0-.13-.08-.26-.08C22,17.76,22.17,17.52,22.55,17.52ZM128.9,15h-.51l-.13-.08c0-.08.13-.08.13-.08h.9l.12.08c0,.08,0,.08-.12.08Zm41.52-3.71h0a2.91,2.91,0,0,1,.76-.08c.13,0,.13.08.13.16v.15c0,.08-.13.08-.25,0a.57.57,0,0,0-.52-.07C170.54,11.35,170.54,11.27,170.42,11.27Zm-5.39.08h-.64l-.12-.08s0-.08.12-.08h.9l.13.08s0,.08-.13.08Zm49.46-1.24h-.64s-.12,0-.12-.07,0-.08.12-.16h1.28s.13,0,.13.08,0,.08-.13.15Zm-90.71,4.71h0a3.87,3.87,0,0,1,.89-.08s.13.08.13.16,0,.15-.13.15S123.78,15,123.78,14.82ZM238.33,9h-.77s-.13,0-.13-.07,0-.08.13-.16h1.28s.13,0,.13.08,0,.08-.13.15ZM23.7,17.52a.58.58,0,0,0,.26.08l-.26.16a.82.82,0,0,1-.38.15h-.26c-.12,0-.12-.08-.12-.15s.12-.16.25-.16A1.49,1.49,0,0,1,23.7,17.52Zm82.78-7.41h-.64l-.13-.07c0-.08,0-.08.13-.08h1.28l.13.08c0,.07,0,.07-.13.07Zm14.73,0h-.89l-.13-.07s0-.08.13-.08a9.81,9.81,0,0,0,1.53-.08L122,10s0,.08-.13.08S121.47,10.11,121.21,10.11ZM134,15h-.77l-.13-.08c0-.08.13-.08.13-.08a9.81,9.81,0,0,0,1.53-.08l.13.08c0,.08,0,.08-.13.08A2.08,2.08,0,0,1,134,15ZM28.7,17.37h.9l.13.08s0,.07-.13.07a9.94,9.94,0,0,0-1.54.08l-.13-.08s0-.07.13-.07A1.47,1.47,0,0,1,28.7,17.37Zm8.2,1.31H36l-.13-.08c0-.07,0-.07.13-.15.64,0,1.28-.08,1.92-.08l.13.08c0,.08,0,.08-.13.08A3.15,3.15,0,0,1,36.9,18.68Zm131.21-7.41H167l-.13-.08s0-.07.13-.07c.64,0,1.28-.08,1.92-.08l.13.08s0,.07-.13.07A2.53,2.53,0,0,0,168.11,11.27Zm63.43-3h-.64c-.26,0-.39-.15-.65-.23V8s0-.08.13-.08h.13a1.94,1.94,0,0,0,.64.16h.77l.13.08s0,.07-.13.07S231.66,8.26,231.54,8.26ZM89.05,10.81H87.9l-.13-.08c0-.08.13-.08.13-.08.64,0,1.28-.07,1.92-.07l.13.07c0,.08-.13.08-.13.08A2.53,2.53,0,0,1,89.05,10.81Zm52.79,1h-1.15l-.13-.08c0-.07.13-.07.13-.07.77,0,1.54-.08,2.18-.08l.13.08c0,.07-.13.07-.13.07C142.61,11.73,142.23,11.81,141.84,11.81Zm53,2h-1.28l-.13-.08s0-.08.13-.08c.77,0,1.54-.07,2.18-.07l.12.07s0,.08-.12.08A3,3,0,0,1,194.89,13.82ZM44.72,16.75H46l.13.08s0,.08-.13.08c-.77,0-1.54.07-2.18.07l-.13-.07s0-.08.13-.08A3,3,0,0,1,44.72,16.75ZM264.59,13.9h0a9.2,9.2,0,0,1,1.41-.08s.13.08.13.15,0,.16-.13.16h-.38a1.91,1.91,0,0,1-.39-.08c-.25.23-.38,0-.64-.15ZM112.37,10.11l.13-.07c.64,0,1.28-.08,1.92-.08l.13.08c0,.07,0,.07-.13.07h-.77c-.25,0-.38.23-.51.16a1.19,1.19,0,0,0-.77-.16ZM116,10c0-.08.13-.08.13-.16a7.82,7.82,0,0,1,1.28,0c.25,0,.38.24.64.16l.13.08s0,.07-.13.07-.51.08-.64,0a2,2,0,0,0-1.15-.15C116.22,10,116.09,10,116,10Zm-5,.38-.13-.07c-.12-.16-.51-.08-.64-.08s-.25-.08-.38-.15V9.88a.91.91,0,0,1,.38-.08,2.06,2.06,0,0,0,1,.16l.13.08A1.28,1.28,0,0,1,111,10.34Zm102.77-.92a1,1,0,0,1-.65-.08,1.81,1.81,0,0,0-.89-.08l-.13-.07s0-.08.13-.08h.89a2.5,2.5,0,0,0,1.29.15l.12.08s0,.08-.12.08ZM83.41,15.67h-.64a1,1,0,0,1-.64-.23v-.08c.13,0,.13-.08.26-.08s.26,0,.26.08.25.08.51,0a.66.66,0,0,1,.38-.08c.13.08.39.16.51.24s0,.07-.12.07A2,2,0,0,1,83.41,15.67ZM70,17.6H68.81s-.13,0-.13-.08,0-.07.13-.07a1.31,1.31,0,0,1,.89-.24,5.78,5.78,0,0,0,1.16.16s.13,0,.13.08,0,.07-.13.07A3.43,3.43,0,0,1,70,17.6Zm-23.7-5.25a9.87,9.87,0,0,0-1.54.08l-.13-.08c0-.08.13-.08.13-.08.9,0,1.92-.07,2.82-.07l.13.07c0,.08-.13.08-.13.08A6.8,6.8,0,0,0,46.26,12.35Zm92-1h-.39c-.26-.23-.64-.16-1-.16h-.64s-.13,0-.13-.07,0-.08.13-.08c.25-.16.38-.31.64-.08h.25a2.91,2.91,0,0,1,1.16.16c.12,0,.25,0,.25.15S138.26,11.35,138.26,11.35ZM103.4,10.19a13.41,13.41,0,0,0-1.79.08s-.13,0-.13-.08,0-.08.13-.15c1.15,0,2.31-.08,3.46-.08l.13.08c0,.07,0,.07-.13.15ZM40.75,12.27c.89,0,1.66-.07,2.56-.07,0,0,.13,0,.13.07s0,.08-.13.16c-1.54.08-3.2.08-4.74.15l-.13-.07c0-.08,0-.08.13-.16A21.07,21.07,0,0,0,40.75,12.27Zm85.85,2.94h-.77a.42.42,0,0,1-.39-.16c0-.07,0-.23.26-.23a.86.86,0,0,0,.38-.15c.26-.16.26.07.52.07h1.28s.12,0,.12.08,0,.08-.12.16-.26.23-.52.15S126.85,15.21,126.6,15.21Zm33.05-3.71h-1.28a4.16,4.16,0,0,1-1.41,0c-.38-.15-.77,0-1.15-.07l-.13-.08c0-.08.13-.08.13-.08a10,10,0,0,0,1.54-.08c.51.31,1.15.08,1.79.08.9,0,1.79-.08,2.69-.08l.13.08c0,.08-.13.08-.13.08C161.06,11.43,160.42,11.43,159.65,11.5Zm-133,1.39a.81.81,0,0,0,.39.16c.25.07,0,.15-.13.15a.22.22,0,0,1-.13.23.33.33,0,0,1-.38,0s-.26-.08-.26,0-.51.08-.77.23-.51.08-.77.08l-.13-.08s0-.07.13-.07a1.91,1.91,0,0,0,.39-.08c0-.16-.26-.08-.39-.08H23.32l-.13-.08c0-.07,0-.07.13-.07a8.58,8.58,0,0,0,1.41-.08,5,5,0,0,1,1.54-.15C26.52,13.05,26.52,13,26.65,12.89ZM200.78,9.73c.13,0,.13-.08.26-.08,1.28-.08,2.69-.08,4-.08h.26a5.09,5.09,0,0,0,2.18.08c.25,0,.64-.08.76,0a4.08,4.08,0,0,0,1.93.08h.64l.13.07c0,.08,0,.08-.13.08a3.39,3.39,0,0,1-.9,0c-.38,0-.51.23-.77.23s-.38.08-.64-.07a.34.34,0,0,0-.26-.08,3.06,3.06,0,0,1-1.66-.16,1.91,1.91,0,0,1-.39.08c-.25.16-.51.08-.89.08-.13,0-.13-.08-.26-.08h-1.28c-.51,0-.77-.23-1.28-.15A8.68,8.68,0,0,1,201,9.8a.61.61,0,0,1-.26-.07Zm45.36-.85h-.51c-.13,0-.13-.08-.13-.08s0-.08.13-.08h.64a.58.58,0,0,1,.26.08c.12.15-.26.08,0,.15V8.88h.12c.13,0,.26.07,0,.15A.87.87,0,0,1,246.14,8.88ZM84.44,10.73h.13a.52.52,0,0,1,.25.08c0,.15-.25.07-.25.07s-.26-.07-.39-.07c.13,0,.13-.08.64.15v-.08H85c.13,0,.26.08,0,.16Zm49.71.23.13.08v.08h-.13V11c-.12.08,0,0,.26.23v-.07h.13c.13,0,.25.07,0,.15A3.3,3.3,0,0,1,134.15,11Zm120.7.39A.57.57,0,0,0,255,11c0-.15-.25-.23-.51-.15a.56.56,0,0,1-.51.07,5,5,0,0,0-1.16-.23c-.25,0-.12-.15,0-.15l.13-.08c.13-.08,0-.23-.25-.23h-.9A5.84,5.84,0,0,1,250.5,10s-.13-.16-.13-.24.39-.07.39-.07a3,3,0,0,0,.89.15c.26,0,.64-.08.77,0a2.3,2.3,0,0,0,1,.16c.38.3,1,.07,1.53.15.13,0,.13-.08.26-.08-.13,0-.13-.07-.26-.07h-.64a4.16,4.16,0,0,0-2.18-.24,2,2,0,0,1-.64-.07.64.64,0,0,0-.38-.08.89.89,0,0,1-.51-.08c-.13-.07-.26,0-.39-.07s0-.16,0-.16c.26-.23.26-.23-.25-.31-.13,0-.26-.08-.26-.15s-.26.07-.26.15v.31h.13c.13,0,.26.08,0,.16a.57.57,0,0,0-.25-.08c-.64,0-.64,0-.64-.31V8.88a3.42,3.42,0,0,0-1.16.15,2.62,2.62,0,0,1-.64.08L246.78,9l.13-.08h.64c.13,0,.26,0,.13.08s0,.08-.13.08-.26,0-.13-.08a.7.7,0,0,1,.64-.31c.26,0,.52-.07.65.16h.76c.13,0,.26.07.26.15a1.74,1.74,0,0,1,.9.08,1.36,1.36,0,0,0,.77.08c.25,0,.51.23.89.15.13,0,.26.16.39.16a3.06,3.06,0,0,1,1.66.15,9.33,9.33,0,0,0,1.28.39c.26.07.26,0,.52,0a1.75,1.75,0,0,1,1.41.15c.12.15.51.08.64.15s0,.08,0,.16c-.26.31-.26.38.38.38h.13c.26,0,.38,0,.13-.15s-.13-.08,0-.15l.38-.24.13.08a1.77,1.77,0,0,1,.38.08l.39-.23-.13-.08a.84.84,0,0,1-.64-.15.86.86,0,0,0-.51-.16,3.32,3.32,0,0,1-1.54-.23,3.57,3.57,0,0,0-1.54-.23c-.13,0-.25-.08-.38-.08s-.64-.15-1-.23a2.67,2.67,0,0,1-.89-.16,5.18,5.18,0,0,1-1.93-.38c-.12,0-.38-.16-.51-.08a2.73,2.73,0,0,1-1.15-.15,3.08,3.08,0,0,0-1.15-.16c-.65.08-1-.23-1.67-.15a1.57,1.57,0,0,0-.9-.16,2.36,2.36,0,0,1-1-.07,1.26,1.26,0,0,0-.9.07c-.13.08-.13.08-.26,0s-.25-.07-.51,0-.25-.07-.38-.15a.71.71,0,0,0-.77,0,1.85,1.85,0,0,1-.9.08c-.38-.16-.38-.16-.38.07,0,.08-.13.16-.26.16h-1c0,.08-.13.15-.26.23s-.13.08,0,.15h.77c.25.08.38-.23.64-.15a.63.63,0,0,0,.51.08h.26c.25.07.51.23.77.31s.64,0,.89.15.64,0,.52.23-.26.16-.26.31-.13.08-.26,0c-.38-.08-.25-.39-.64-.46a3.32,3.32,0,0,0-.89,0,.42.42,0,0,0-.64.07,1.23,1.23,0,0,1-.9.16,2.74,2.74,0,0,0-.9-.16,1.37,1.37,0,0,1-.64-.15,3.32,3.32,0,0,1-1-.31l-.26-.15c.13,0,.13-.08.26-.08h.64c.12,0,.25,0,.25-.08s.13-.07.13-.15-.13-.16-.13-.16h-.77c-.38.08-.64-.15-1-.15a1.37,1.37,0,0,1-.9-.23c-.26-.16-.64-.08-.77-.23a.86.86,0,0,0-.64,0c-.51.07-.77-.24-1.15-.16a2.79,2.79,0,0,1-1.15,0,2.62,2.62,0,0,1-.9-.23c-.26-.08-.51-.08-.64.08s-.13.07-.26,0a.22.22,0,0,0-.13-.23c0-.24-.25-.31-.64-.39a1.93,1.93,0,0,0-.38.08c0,.15,0,.31-.39.31H228a5.78,5.78,0,0,1-1.16-.16c-.38-.08-.89.08-1.15-.15-.26,0-.64-.08-.9.15a.4.4,0,0,1-.51,0,1.91,1.91,0,0,0-.51-.23s-.26,0-.26.08-.12.31-.51.31h-.64s-.13-.08-.13-.16-.13-.15-.13-.15-.12.07-.25.15-.26.23-.39.16a1.53,1.53,0,0,0-.89-.16h-1.16a1.45,1.45,0,0,1-1.15-.23.51.51,0,0,0-.64,0,3.1,3.1,0,0,1-1.67.08c-.13,0-.13-.08-.25-.08a2.72,2.72,0,0,1-1.54-.15h-1.54c-.38,0-.77.15-1.15-.08s-.77,0-1-.08c-.25-.31-.77-.08-1.15-.23a1.14,1.14,0,0,0-.51-.08,1.84,1.84,0,0,1-.9-.07.88.88,0,0,0-.64,0,4.66,4.66,0,0,1-1.79.23c-.39,0-.39-.08-.39-.23s-.13-.08-.25,0a.44.44,0,0,1-.52,0s-.12,0-.12-.08c-.39.31-1,.15-1.67.23a2.48,2.48,0,0,1-1-.15,3.32,3.32,0,0,0-.89,0c-.26-.24-.64-.16-1-.16-1.15,0-2.3.08-3.33.08-.38,0-.64,0-.64-.23,0,0-.26-.08-.26,0s-.38.15-.64.15l-7.81.23c-.39,0-1-.07-1.28.23-.13,0-.13-.07-.26-.07a.58.58,0,0,1-.26-.08,1.81,1.81,0,0,1-.64.15c-.25.08-.51,0-.77.08,0,0-.12,0-.12.08s0,.08.12.08.64-.08.9.07.51.08.77.23a1.23,1.23,0,0,0,.9-.07,2.12,2.12,0,0,1,1-.31l8-.23a9.81,9.81,0,0,0,1.53-.08c.26.31.9,0,1.28.23.13.08.39,0,.64,0,.77,0,1.54-.08,2.31-.08a2.24,2.24,0,0,1,1,.08c.13.08.51,0,.77,0s.89-.15,1.15.16h.9a4,4,0,0,1,1.66.07h.13c.51.08,1.15-.15,1.66.08a6.23,6.23,0,0,0,1.67,0c.38,0,.77.23,1.15.15a3.23,3.23,0,0,1,1.16,0,2.67,2.67,0,0,0,.89.16,2,2,0,0,1,1.41.31.86.86,0,0,0,.64.15c.26,0,.52-.08.52-.15a.69.69,0,0,0-.39-.08l-.13-.08c0-.07,0-.07.13-.15a3.39,3.39,0,0,1,.9,0c.26,0,.13.15,0,.15s-.13.08,0,.16h.77s.13.07.13.15c.76,0,1.53-.08,2.43-.08l.13.08s0,.08-.13.08h-.26l-.12.08.12.07h.52a9.18,9.18,0,0,1,2.56-.23,6.42,6.42,0,0,0,2.43.08,1.9,1.9,0,0,1,.9.15c.13.08.38,0,.64,0a7.79,7.79,0,0,0,1.28-.07c.39-.08.77.23,1.16.15s.51.23.89.16a3.39,3.39,0,0,1,.9,0c.51,0,.9-.16,1.28.15a8.26,8.26,0,0,1,1.41,0c.39,0,.64.23,1,.15s.89,0,1.28-.07h1.41s.12,0,.12.07V8c-.25.08-.64.08-.51.31,0,.08-.38.08-.51.08-.39,0-.64-.23-1-.16a3.32,3.32,0,0,1-.89,0c-.39,0-.64-.23-1-.15s-.77,0-1.15.08c-.26-.24-.77-.16-1.15-.16h-1.28a2.49,2.49,0,0,1-.77-.08,6.23,6.23,0,0,0-1.67,0,.83.83,0,0,0-.51.16c-.26.08-.26,0-.26-.08a.37.37,0,0,0-.51-.15.51.51,0,0,1-.64,0s-.39,0-.39.07a.39.39,0,0,1-.51,0c-.13-.07-.51-.07-.64-.15a1.52,1.52,0,0,0-1.15.08,7.71,7.71,0,0,1-1.54.38l-.13.08.13.08h1.15c.39-.08.64.15,1,.15a17.57,17.57,0,0,0,2-.08,3.23,3.23,0,0,0,1.92.08,4.62,4.62,0,0,1,1.15.16h1.16c.38.3,1,.07,1.54.15a3.45,3.45,0,0,1,1.53.08,8.38,8.38,0,0,0,1.41.07H235s.13,0,.13.08,0,.08-.13.08-.25.08-.38.08l-.13.07.13.08h.9c.38-.31,1-.15,1.66-.23l.13.08s0,.07-.13.07h-.64l-.13.08c0,.08.13.08.13.08.51-.08.77.15,1.16.15h1.15a4,4,0,0,0,1.92.08s.13-.08,0-.15h-.64c-.13,0-.13-.08-.13-.08s0-.08.13-.08h.64a.58.58,0,0,1,.26.08c.13.15-.26.08-.13.08.51,0,.9-.08,1.15.07s.13,0,.26,0a.74.74,0,0,1,.38-.07,5.62,5.62,0,0,1,1.16,0c.25,0,.64.15.89.15s.64.23,1,.15h1l.13.08s0,.08-.13.08a1.77,1.77,0,0,0-.38.08v.38l.13.08.12-.08a.71.71,0,0,1,.77,0c.13.08.26.16.26.23s0,.08-.13.16c-.51-.23-1.15,0-1.79-.16v-.07l.13-.08c.25-.23.25-.23-.13-.39-.13,0-.13-.07-.26-.07s-.13.07-.13.15v.08c0,.31,0,.31-.51.31a4,4,0,0,1-.9-.08c-.38-.08-.76-.08-1.15-.16,0,0-.26,0-.26.08s.13.31-.38.31h-.64a7.6,7.6,0,0,0-1.41.08c-.51,0-.77-.31-1.28-.16l-.13-.07c0-.08.13-.08.13-.08h1.54c.25.23.77.15,1.15.15.13,0,.13-.07.26-.07l-.26-.16a.86.86,0,0,0-.51-.15c-.39,0-.9.15-1.16-.08s-.76.08-1-.15c0-.08-.26-.08-.39-.08-.76,0-1.66.08-2.43.08-.26,0-.26-.08-.39-.24s-.12-.15-.25,0a1.16,1.16,0,0,1-.51.08,2.29,2.29,0,0,0-1.28.23L233.2,10c0-.16-.13-.31-.51-.24s-.77-.23-1.28-.15-.9,0-1.28.08c0,0-.13.07-.13.15l.13.08h.12a.34.34,0,0,1,.26.08l-.13.07a7.66,7.66,0,0,0-1.41.08c-.25,0-.51,0-.64.15s-.38.08-.38,0a2.23,2.23,0,0,0-.77-.15H225c-.51-.31-1.41.15-1.92-.23a8.26,8.26,0,0,1-1.41,0c-.26,0-.38.31-.77.08a1.25,1.25,0,0,0-.77,0c-.38.07-.64-.24-1-.16a1.74,1.74,0,0,1-.9-.08,1.28,1.28,0,0,0-.9.08c-.25.16-.38.08-.64,0s-.9.08-1.15-.23c-.26.39-.64-.08-1,0s-.89.15-1.15-.08h-.9a4,4,0,0,1-1.66-.07h-.9c-.38,0-.77.07-1-.16a.91.91,0,0,0-.65,0c-.25.23-.38.08-.76,0a2.49,2.49,0,0,0-.77,0,2.11,2.11,0,0,1-1-.08c-.25.08-.38.08-.64.16a2.46,2.46,0,0,0-1.28-.16c-.51,0-1,.16-1.28-.15h-1.28a7.55,7.55,0,0,0-1.41.08c-.26,0-.39-.16-.51-.16a1,1,0,0,1-.52-.15,1.48,1.48,0,0,0-1,.15c-.13.08-.13.08,0,.16s.38.23.64.15c.77,0,1.54-.08,2.3-.08,0,0,.13,0,.13.08s0,.08-.13.16a.75.75,0,0,1-.64.07,1.54,1.54,0,0,0-1.28.16.55.55,0,0,0-.25.07c-.26,0-.39-.3-.64-.07s-.39.07-.64.07a1.64,1.64,0,0,1-.9-.15c-.13-.15-.39-.15-.64-.15s-.51,0-.39.15-.38.23-.25.46a.58.58,0,0,1-.26.08s-.13,0-.13-.08c-.25-.31-.38-.31-.51-.15s-.77.15-.9.31a11.16,11.16,0,0,1-1.53,0c-.13,0-.26-.16-.52-.16s-.64.23-1,.23-.51-.23-.9-.15c-.13,0-.26.08-.38.08a.64.64,0,0,1-.52.07c-.12,0-.12-.07-.25-.07-.39-.08-.77.07-1.15-.08a3.71,3.71,0,0,0-1.29,0,3.48,3.48,0,0,1-1.53-.15,2.15,2.15,0,0,1-.39.07c-.13,0-.38.16-.38.08a4.2,4.2,0,0,0-1.93-.08c-.38,0-.64-.23-1-.15a6.88,6.88,0,0,0-1.28.08,1.51,1.51,0,0,0-1,.23,11.2,11.2,0,0,0-1.53.07c-.13,0-.13-.07-.26-.07a.64.64,0,0,1-.38-.08c-.39-.08-.52.23-.77.23a2.31,2.31,0,0,0-1-.15h-.89c-.26,0-.52.07-.65,0a3.51,3.51,0,0,0-1.79-.08c-.38,0-.38-.15-.38-.23l-.13-.08-.13.08c0,.15,0,.23-.26.23h-.77c-.51.08-.51.08-.64,0a.51.51,0,0,0-.64,0h-.25a1.74,1.74,0,0,1-.9-.08c-.26-.15-.64,0-.9-.07s-.12-.08-.25-.08h-.9c-.26-.23-.64-.16-1-.16h-.89a11.6,11.6,0,0,1-1.67,0c-.13,0-.13-.07-.13-.15s-.38-.23-.51-.08L160,9.8c-.13.08-.13.08-.26,0a1.29,1.29,0,0,0-.51-.07c-.39,0-.39,0-.9-.31-.13-.08-.51,0-.51.08v.38l-.13.08c-.13,0-.25,0-.25-.08,0-.31-.65-.38-.9-.62h-.9s-.13.08-.13.16v.23c0,.15-.38.23-.51.15l-1.15-.46s-.26,0-.26.08,0,.08.13.15.13.08.13.16a.64.64,0,0,0-.26.07,4.76,4.76,0,0,1-.64-.15h-1a3.15,3.15,0,0,0-.76-.23c-.39-.16-.39-.08-.64.15l-.13.08c-.13,0-.13-.08-.26-.08s0-.23-.38-.23a13.55,13.55,0,0,0-1.8.08c-.12,0-.12.08,0,.15s.13.08.13.16a.57.57,0,0,0-.25.07.79.79,0,0,1-.39-.15c-.26-.08-.51,0-.64-.15-.13.07-.38.15-.51.23a1.07,1.07,0,0,1-.39.07A4.16,4.16,0,0,0,144,9.73c-.26,0-.51,0-.51-.23a.58.58,0,0,0-.26-.08H142a2.22,2.22,0,0,1-1.28-.16c-.26,0-.77-.07-.77.31a.58.58,0,0,1-.26.08h-.25c-.13-.15-.51-.08-.64-.15s-.39,0-.64.07c0,0-.13,0-.13-.07s-.39-.16-.51-.08a8.81,8.81,0,0,1-1.41.23,9.87,9.87,0,0,0-1.54.08c-.64,0-.64.07-.77,0s-.13-.08-.51,0a2.08,2.08,0,0,1-1.16,0c-.25-.08-.25,0-.51.07a1.44,1.44,0,0,1-.64.08c-1.15,0-2.3.08-3.33.08a2.81,2.81,0,0,1-1.15-.08c-.13-.08-.39,0-.64,0a9.87,9.87,0,0,0-1.54.08c-.39,0-.51-.16-.9-.16s-.38.24-.77.24a2,2,0,0,1-1-.16h-.26a2.94,2.94,0,0,1-1.79.08A.52.52,0,0,0,119,10c-.13.15-.52.15-.77.07s-.52-.23-.77,0c0,0-.39,0-.39-.07a.68.68,0,0,0-.77,0,.37.37,0,0,1-.38,0c-.13,0-.13-.08-.26-.08s-.38-.31-.64,0c-.25-.16-.51-.16-.64,0a1.15,1.15,0,0,1-1,.15,2.52,2.52,0,0,0-1.28,0,1.17,1.17,0,0,1-1,0,.63.63,0,0,0-.64.08c-.13.08-.13.08-.26,0s-.12-.08-.25-.15-.39-.16-.64,0-.52.07-.64.23c0,0-.26.07-.26,0a4.12,4.12,0,0,0-1.67-.16,13.41,13.41,0,0,0-1.79.08c-.38,0-.64,0-.77.23h-.25c-.26-.08-.39-.23-.64,0H103a1.78,1.78,0,0,0-1.28.08,1.88,1.88,0,0,1-1.28,0,4,4,0,0,0-1.93.08c-.12,0-.12.07-.25,0a.69.69,0,0,0-.39-.08c-.89,0-1.79.08-2.69.08a.86.86,0,0,0-.51.15c-.13.08-.38.08-.38,0a2,2,0,0,0-.77-.15,15.48,15.48,0,0,0-1.8.07c-.38.31-1,.16-1.66.23h-.39a1,1,0,0,0-1.15.08c-.39,0-.64.31-1.15.23s-.77.08-1-.07-.38,0-.64,0c-.51-.08-1.15.15-1.67-.08h-.12a.87.87,0,0,1-.52.15,17.57,17.57,0,0,0-2,.08c-.64.08-1.28-.15-1.79.23-.51-.31-1.15-.07-1.67-.15H76.24a2.18,2.18,0,0,0-1,.15c-.51-.31-1.15-.07-1.66-.07a17.6,17.6,0,0,0-1.92.07c-.64,0-1.16.08-1.8.08-.25,0-.51,0-.64.15a4,4,0,0,1-1.66-.07h-.26c-.38.31-1,.15-1.67.23a12.47,12.47,0,0,0-1.66.08,6,6,0,0,0-1.67.07,5.35,5.35,0,0,1-1.54.16,14.24,14.24,0,0,0-1.66.07c-.51,0-.77.24-1.28.24a9.9,9.9,0,0,0-1.54,0,8.68,8.68,0,0,0-1.41.07,7.66,7.66,0,0,0-1.41.08,12.47,12.47,0,0,0-1.66.08,8.61,8.61,0,0,0-1.41.07h-.52a.86.86,0,0,0-.51.16,1.76,1.76,0,0,1-.64.08A5.18,5.18,0,0,0,46.77,13c-.51.31-1.15.15-1.8.23-.38,0-.51-.23-.89-.15a6.42,6.42,0,0,1-1.16,0h-1c-.39,0-.9-.08-1.15.23H37a7.85,7.85,0,0,0-1.28.07c-.39,0-.51.24-1,.24H33.57a6.31,6.31,0,0,1-1.15,0c-.52,0-.77.31-1.28.23a8.28,8.28,0,0,0-1.41.08L29.6,14l.13.08h.89l8.08-.23c.12,0,.12.08.25.08l-.51.23A1.75,1.75,0,0,0,37,14.2a.57.57,0,0,1-.51,0c-.13-.07-.39-.15-.51-.07-.39.31-1,.15-1.54.15a5.81,5.81,0,0,0-2.31-.08h-.64l-.13.08.13.08h.9l.13.08c0,.07-.13.15-.13.07a.87.87,0,0,0-.52.16,1,1,0,0,1-.38.07c-.38-.15-.64-.23-.9,0h-.25c-.13,0-.13-.07-.26-.07-.26-.16-.77.07-1-.16-.13-.07-.13-.07,0-.31v-.07c0-.08,0-.08-.13-.16a.34.34,0,0,0-.26.08c-.13,0-.25.08-.38.08h-.9a9.75,9.75,0,0,0-2.69.23c-.13.08-.26,0-.51,0a6.83,6.83,0,0,0-1.28.08c-.13,0-.13.07-.13.07l.13.08c.38,0,.76-.08,1,.15l.26-.15s.12,0,.12-.08c0,.08.13.08.13.16s0,.15-.13.15a.52.52,0,0,1-.25.08c-.9,0-1.79.08-2.69.08-.39,0-.39.15-.64.23s-.13.07,0,.15.38.23.64.16c.77,0,1.54-.08,2.3-.08l.13.08s0,.07-.13.07H22.42c-.38.31-.89.16-1.41.24-.12,0-.38-.16-.51-.16s-.26.16-.51.16-.64.15-1,.23c-1.15,0-2.3.07-3.33.07a3.55,3.55,0,0,0-1.54.16c-.12.08-.38,0-.64,0-.77,0-1.53.08-2.3.08-.52,0-.77.3-1.28.23a8.3,8.3,0,0,0-1.41,0c-.39,0-.39.23-.77.23a.86.86,0,0,1-.77.15c-.39-.07-.64.23-1,.23a3.9,3.9,0,0,0-1,.08,1.57,1.57,0,0,1-.9.16,2.54,2.54,0,0,0-1.15.23,4.5,4.5,0,0,1-1.15.23H.77c-.39,0-.51.08-.64.23L0,18.22c.13,0,.13.08.26.08h.89s.13,0,.13.07,0,.08-.13.08a1.91,1.91,0,0,1-.51.23.67.67,0,0,1-.38.08.73.73,0,0,0,.38.15c.13,0,.13.08.26.08h.77c.12,0,.25.23.51.15.51-.07.77.24,1.28.16a3.14,3.14,0,0,0,1.15-.23A13.55,13.55,0,0,0,6.41,19c.12,0,.25.08.25.15a.66.66,0,0,0,.77.31,4.05,4.05,0,0,0,1.67-.23c0-.08.25,0,.51,0,.77,0,1.54-.08,2.31-.08a5.13,5.13,0,0,1,2.17.08,7,7,0,0,1,1.29,0,5.76,5.76,0,0,1,2.3.08,1.91,1.91,0,0,1,.39-.08,1.19,1.19,0,0,1,.89-.08s.13.08.13.16,0,.15-.13.15a6.94,6.94,0,0,0-1.28.08l-.13.08.13.07h2.56c.52-.07.77.16,1.16.16,1,0,2.18-.08,3.2-.08a.9.9,0,0,0,.39-.15c.12,0,.51-.08.64-.08a5.4,5.4,0,0,0,1.92.08h.77s.13,0,.13.07,0,.08-.13.08a1.51,1.51,0,0,0-.52.08c-.89,0-1.66.08-2.56.08a8.74,8.74,0,0,0-1.41.07c-.38,0-1-.07-1.28.16a1.83,1.83,0,0,0-.64-.16c-1.92.08-3.84.16-5.77.16a.88.88,0,0,0-.64.23.61.61,0,0,1-.64.15,4.51,4.51,0,0,0-1,.16c-.26.08-.64,0-.9.08s-.13.07,0,.15.39.08.13.15-.38.16-.64.24-.51,0-.77.07c-.77,0-1.67.08-2.43.08,0,0-.13.08-.13.15l.13.08a12.47,12.47,0,0,0,1.66-.08.87.87,0,0,1,.51.08.35.35,0,0,0,.39,0c.13,0,.25-.15.38-.15a4.74,4.74,0,0,0,1.8-.23c.64,0,1.28-.08,1.92-.08h.77a1.76,1.76,0,0,0,.89-.16s.26-.07.26,0a1.57,1.57,0,0,0,.9.16c.38,0,.51.23.89.15a1.36,1.36,0,0,0,.64.16c1.29-.08,2.57-.08,3.85-.08.38,0,.38-.15.51-.23a1.86,1.86,0,0,1,.9-.31h.25a3.5,3.5,0,0,0,1.54.08c.13,0,.26-.16.39-.23s.25-.08.51,0a4.75,4.75,0,0,0,1.92-.16,6.27,6.27,0,0,1,1.28-.08,5.81,5.81,0,0,0,2.31.08h.13c.13,0,.25.08.38.08-.13,0-.13.08-.26.08a.86.86,0,0,0-.51.15s-.13.08-.13.15l.13.08h1.28c.52,0,.64-.15.77-.38,0-.08,0-.16.26-.16s.13.08.26.08h.12a.41.41,0,0,1,.52,0,1.74,1.74,0,0,0,1.41.15s.12-.07.12-.15c.13-.23.26-.23.52-.16a1.91,1.91,0,0,0,.76.16h1.16a3.08,3.08,0,0,1,.77.15c.12.08.25-.15.64-.15s1-.16,1.28.15a5.07,5.07,0,0,0,1.54-.15,1.77,1.77,0,0,1,1.28,0,.42.42,0,0,0,.51-.08,2.85,2.85,0,0,1,1.79-.31c.39.23.9.08,1.41.08a.9.9,0,0,0,.39-.15v-.16a1,1,0,0,0-.39-.08c-.25.24-.51,0-.77,0a17.65,17.65,0,0,0-2,.08c-.12,0-.12-.08-.25-.08l.25-.15a1,1,0,0,1,1-.08c.26.08.51.08.64-.08a1,1,0,0,1,.38-.07.78.78,0,0,0,.9,0c.51,0,1.15-.08,1.67-.08.13,0,.25.15.51.15.64,0,1.28-.07,1.92-.07a6.34,6.34,0,0,1,2.44-.23c1.28-.08,2.43-.08,3.71-.16A3.14,3.14,0,0,0,61.89,19c.13-.08.38,0,.64,0,1.66-.08,3.2-.08,4.87-.15a1.44,1.44,0,0,0,1-.24h.13c.26,0,.51.24.9.16a3.32,3.32,0,0,1,.89,0s.13,0,.13.08l-.13.07c-.38,0-.89.08-1.28.08l-.12.08s0,.07.12.07h.52c1.15,0,2.3-.07,3.33-.07a6.91,6.91,0,0,1,1.79.07.65.65,0,0,0,.64-.07c.13-.08.13-.08.26,0s.25.07.38,0l.26-.16c-.13,0-.26-.07-.39-.07h-.76s-.13,0-.13-.08,0-.08.13-.08h1.66c.13,0,.13.08,0,.16s-.26.07,0,.15.39.15.51.08.13-.08.26-.08c.26.23.77.15,1.15.15l7.56-.23a9.43,9.43,0,0,1,3,.08h.13a6.49,6.49,0,0,1,2.43-.23c.9-.08,1.67-.08,2.57-.08.12,0,.25.08.38.08a1.5,1.5,0,0,0,1-.08,1,1,0,0,1,.9,0,1.77,1.77,0,0,0,1.28,0,1.38,1.38,0,0,1,.77-.08,7.2,7.2,0,0,0,2.56.08c.26,0,.39-.23.64,0h3c.26.23.77.16,1.15.16s.52-.24,1-.24H109a5.07,5.07,0,0,1,1,0c.51,0,.89.16,1.53.16s1,0,1.54-.08a12.61,12.61,0,0,0,1.67-.08c.38,0,.38,0,.76.31s.26.16,0,.23h-.51l-.13.08.13.08c1,0,1.93-.08,2.82-.08,0,0,.13,0,.13-.08v-.07c-.13-.08-.51,0-.64-.16a1,1,0,0,0-.64-.23h-.13s-.13,0-.13-.08,0-.07.13-.07h1a.66.66,0,0,0,.9-.08c.13-.08.26,0,.52,0s.64.23,1,.15a3.87,3.87,0,0,1,.9,0c.12,0,.25.08.38.08a.52.52,0,0,0,.51-.08,1.53,1.53,0,0,1,1-.07,4.62,4.62,0,0,0,1.41.23l.13.08c0,.07-.39.15,0,.23h.51c.38,0,.64.23,1,.15a1.51,1.51,0,0,0,.52-.08s.13-.07.13-.15-.13-.08-.13-.15-.39-.16-.13-.16.51-.23.77-.23a8.22,8.22,0,0,1,1.92,0c.13,0,.38.08.51.08s.13.07,0,.15a.83.83,0,0,1-.51.16,9.52,9.52,0,0,0-1.41.07s-.13,0-.13.08,0,.08.13.08a3.35,3.35,0,0,1,.9,0,5.3,5.3,0,0,0,1.53.15,1,1,0,0,0,.52-.15c.13-.08.13-.16,0-.16a.9.9,0,0,0-.39-.15c-.13-.08-.13-.08,0-.16l.13-.07a2.74,2.74,0,0,0,.9-.16c.25.23.77,0,1,.16a.72.72,0,0,0,.77,0c.13-.08.13-.08.26,0a1.09,1.09,0,0,0,1,.23.34.34,0,0,1,.26.08,1.74,1.74,0,0,0,1.15.23c.26.15.52.23.64,0,.13.07.26.07.39.15.25-.23.51,0,.77,0s.25,0,.25-.08c.13-.23.26-.3.64-.38,0-.08,0-.08-.12-.16s-.26-.15,0-.15h.64l7.17-.23c.39,0,.9-.08,1.15.15a2.15,2.15,0,0,1,.39-.07.58.58,0,0,0,.26-.08,2.52,2.52,0,0,0,.89.38.69.69,0,0,0,.39.08c.12,0,.38-.08.38.08a1.93,1.93,0,0,1-.38.08l-.13.07c0,.08.13.08.13.08h.51c.51-.08.51-.08.64.23l.13.08c.12,0,.13-.08.13-.08s0-.23.25-.23.39-.08.39-.23,0-.31.25-.39.13-.15.26-.15a3.36,3.36,0,0,1,1.54.08c.12.07.25,0,.38,0a5.53,5.53,0,0,1,1.15,0,6.47,6.47,0,0,1,2.44.07h1c4.87-.15,9.61-.23,14.48-.38a4.12,4.12,0,0,1,1.67.15h.25c.26.08.52-.31.9,0h1.15a1.55,1.55,0,0,1,.9.16h.13c.26,0,.26-.08.26-.16s-.13-.15-.26-.15H175.8s-.13,0-.13-.08,0-.08.13-.08c.9,0,1.79-.07,2.69-.07,0,0,.13.07.13.15a1.81,1.81,0,0,1,.64-.15,4.91,4.91,0,0,1,1.53,0,2.91,2.91,0,0,0,.77.07c1,0,2.18-.07,3.21-.07.38,0,.89-.16,1.28.07s.9-.07,1.15.23h.39a.42.42,0,0,1,.51,0,1.15,1.15,0,0,0,.89,0c.13-.07.26-.15.39,0a.41.41,0,0,0,.51.16,4.92,4.92,0,0,1,2.05-.16l.13.08h.9c.38-.08.13-.31.25-.46s0-.08.13-.08h.13c0,.08,0,.08.13.16s.13.15.38.15.26-.08.26-.15,0-.24.38-.24c.77,0,1.67,0,2.44-.07.25,0,.38.07.51.07s.38.08.38,0a3.36,3.36,0,0,1,1.54-.15.9.9,0,0,1,.39.15c.12,0,.25.24.51.16s0-.16.13-.23,0-.08.12-.08.13,0,.13.08.13.31.64.31h.52a1,1,0,0,0,.77-.24.88.88,0,0,1,.51-.15h1.41c.25.23.89,0,1.15.23s.26,0,.38-.08c.39-.15.65-.07.65.16v.15c0,.08-.13.16-.39.16a2.53,2.53,0,0,1-.77-.08c-.13-.08-.38-.08-.38,0a1.66,1.66,0,0,1-.9.15c-2.05.08-4.1.16-6.15.16a1.24,1.24,0,0,0-.77.23s-.13.08,0,.08l.13.07c1.41,0,2.82-.07,4.1-.07.13,0,.13-.08.26-.08a.57.57,0,0,1,.51,0c.13,0,.26.08.38.08a8.25,8.25,0,0,1,1.41,0c.39.07.52.23.52-.08,0-.08.12-.08.25,0a.35.35,0,0,0,.39,0,.16.16,0,0,1,.25,0c0,.23.13.23.51.23s.52,0,.52-.15.13-.23.25-.31.26-.08.52,0h.12c0-.08.13-.08.13-.16s-.38-.23-.64-.38V17.6l.13-.08c.9,0,1.79-.07,2.69-.07.38,0,.51.23.9.15s.38-.15.64-.15l.13.07a1.77,1.77,0,0,0,1.28,0,.37.37,0,0,1,.38,0c.13.08.26.08.39.16s.13.08.25,0,.39-.16.64-.16.52.24.9.16a1.74,1.74,0,0,1,.9.08,2.79,2.79,0,0,0,.77,0,3,3,0,0,1,1.15.07c.13.08.38,0,.64,0,.64,0,1.28-.07,1.92-.07a2.93,2.93,0,0,1,1.41.07c.13.08.39,0,.64,0,.9,0,1.67-.07,2.56-.07.39,0,1-.16,1.29.15.51,0,.89.08,1.28-.23a.47.47,0,0,1,.51.15c0,.16.13.23.38.16s.52,0,.52-.08c.13-.39.38-.31.77-.15h.25c.52.07,1.16-.16,1.67.07a.62.62,0,0,1,.25-.07,1.91,1.91,0,0,0,.39-.08,2.16,2.16,0,0,0,1,.15c.64,0,1.41-.23,1.92.08a1.28,1.28,0,0,0,.77-.08.65.65,0,0,1,.64-.07,6.34,6.34,0,0,0,1.67.15,2.94,2.94,0,0,1,1.41.08c.13.07.26,0,.51,0a2.49,2.49,0,0,1,.77,0c.39.07.51-.23.77-.16a2.53,2.53,0,0,0,.77.08h1.79a.88.88,0,0,0,.51-.15,1,1,0,0,1,.39-.08,1.66,1.66,0,0,0,.9.15,3.41,3.41,0,0,1,1.79.16s.26,0,.26-.08a.55.55,0,0,1,.51-.08l.13.08a4.43,4.43,0,0,1,1.41,0,3,3,0,0,0,1.15.08c.38,0,.64.23,1.15.15a1.21,1.21,0,0,1,1,.08h1.15c.39,0,.51.08.64.23s.13.08,0,.15-.25.24,0,.39.52.15.52.39c0,.07.12.15.38.07s.25-.07.25-.15c-.12-.23.13-.39.39-.54s.38-.23.64-.08a3.31,3.31,0,0,0,.9.23,1.25,1.25,0,0,0,.77,0c.51-.07.76.16,1.15.16a2.21,2.21,0,0,1,1,.07,1.27,1.27,0,0,0,.77,0,.77.77,0,0,1,.9,0,.94.94,0,0,0,.77-.07,1.14,1.14,0,0,1,.77-.16.52.52,0,0,1,.25.08c0,.31.39.23.77.31s.52.15,1-.16a.74.74,0,0,1,.38-.07.69.69,0,0,0,.39-.08l.12-.15a1.51,1.51,0,0,0-1.28-.47c-.12,0-.38-.15-.51-.15-.38,0-.51-.08-.51-.23a1.91,1.91,0,0,0-.39-.08c-.12,0-.25-.08-.25-.15-.39,0-.9.07-1.15-.16-.65-.08-1.16-.31-1.8-.39,0,0,0-.07-.13-.15s0,0,.13,0v.08h-.13l-.13-.08H262a.55.55,0,0,0,.26.08,6.84,6.84,0,0,1,1.28,0,1.35,1.35,0,0,1,.77.38c.12.16.64,0,.64.24a2.65,2.65,0,0,1,1.54.15h.25a2,2,0,0,1,1.54.23h.38a.22.22,0,0,0,.13-.23,2.72,2.72,0,0,0-.64-.46c-.13-.08.13-.16.26-.16s.38-.08.25-.23,0-.31.52-.31c.12,0,.25-.15,0-.31s-.39-.23-.13-.46a1.15,1.15,0,0,0,.51-.46c0-.16.51-.24.51-.39,0-.31.39-.23.64-.23s.13-.08.26-.08-.13-.08-.13-.15a.83.83,0,0,0-.51-.16c-.9,0-1.67,0-2.56.08-.64,0-.64.08-.77,0a2.08,2.08,0,0,0-1.28-.31c-.13,0-.26-.15-.52-.23l.52-.31h.77c.25,0,.38.23.64.16a.81.81,0,0,1,.64.15c.12.08.51,0,.51-.15s.26-.24.38-.39.13-.08.26,0,.51.08.9.08c0,0,.13-.08.13-.16s-.52-.23-.39-.46a.58.58,0,0,0-.26-.08c-.12,0-1,.31-1,.31,0,.23-.13.23-.51.23h-.64a3.82,3.82,0,0,1-1.16-.15,3.05,3.05,0,0,0-1.15-.16c-.26-.23-.64-.07-1-.15a6.57,6.57,0,0,0-1.29-.16s-.12-.07-.12-.15,0-.15-.26-.08a.81.81,0,0,1-.39.16c-.25.15-.25.15-.38,0a1.41,1.41,0,0,0-.77-.39c-.26-.08-.26-.15-.26-.23S260.11,12,260,12s-.13.08-.26.08.13,0,.13.08.13.07.13.15a1.77,1.77,0,0,0-.38.08c-3.59-1.31-4.1-1.08-4.75-1.08h0c0-.08.13-.08.13-.08v.08l-.13.08C254.73,11.43,254.73,11.43,254.85,11.35Z" transform="translate(0 0)"/><path class="a" d="M110.19,5.87a.37.37,0,0,1,.26.07l-.13.08c-.13-.08-.13-.08-.13-.15ZM76.62,7c.77,0,1.54-.08,2.31-.08A3.5,3.5,0,0,1,80.47,7a1,1,0,0,1,1,0c.9,0,1.67-.08,2.56-.08.13,0,.13-.08.26-.15s.51-.08.64-.08a7.79,7.79,0,0,0,2.31.08h.64a7.38,7.38,0,0,1,2.95-.24c4.35-.15,8.71-.23,13.19-.38A3.92,3.92,0,0,0,106,5.94a1.16,1.16,0,0,0,.52.16A9.81,9.81,0,0,0,108,6c.13,0,.26-.08.39-.08s.38-.15.51,0a3.75,3.75,0,0,0,.9.24,6.27,6.27,0,0,0,1.15,0c.39,0,.39,0,.64-.31s.13-.23,0-.23a2.62,2.62,0,0,1-1.53-.16,3.13,3.13,0,0,0-1.67.23s-.39,0-.39-.07c-.25-.16-.25-.08-.51,0a.58.58,0,0,0-.25.07c-.26.08-.39-.23-.64-.07a1.37,1.37,0,0,1-.77.07,3.39,3.39,0,0,1-.9,0c-.38-.07-.51.31-.9.08s-.64,0-.89,0h-1.41s-.13,0-.13.08l-.13.07-.13.08h-1l-24.73.7h-.39a1.81,1.81,0,0,1-.89-.08c-.26-.16-.26-.08-.52,0a.64.64,0,0,1-.38.08l-.13.07s0,.08.13.08h.51A14.84,14.84,0,0,0,76.62,7Z" transform="translate(0 0)"/><path class="a" d="M28.7,9.5h.51c.13,0,.13.07.13.07s0,.08-.13.08h-.64a.58.58,0,0,1-.26-.08c-.13-.15.26-.07-.25-.23.12,0,.12.08.12.08V9.5h-.12l-.13-.08A1.43,1.43,0,0,1,28.7,9.5Zm3.2-.31a8.26,8.26,0,0,1,1.41,0c.38,0,.51-.08.64-.24l.13-.07c-.13,0-.13-.08-.26-.08a1.79,1.79,0,0,0-.64.08.91.91,0,0,1-.51.15H30.62c-.26-.15-.39-.08-.51.08C30,9,29.85,9,29.72,9c-.25.31-.51,0-.9,0a3.32,3.32,0,0,1-.89,0,4.64,4.64,0,0,0-1.41.24l-.13.07.13.08h.9c.12,0,.12.08.12.08l-.12.08a1.24,1.24,0,0,1-1,.15c-.13,0-.13-.15-.38,0a1.67,1.67,0,0,1-1,.08,2.2,2.2,0,0,0-1,0c-.13,0-.26.07-.39.07-.51,0-.64.24-1.15.24H21.27l-.13.07.13.08a2.16,2.16,0,0,1,1,.15h.26a1.4,1.4,0,0,1,.77-.15,9.77,9.77,0,0,1,1.53,0c.52,0,.77-.31,1.28-.23a8.3,8.3,0,0,0,1.41,0A7.55,7.55,0,0,0,29,9.88h1.41a1,1,0,0,0,.52-.15c.12-.08.38.23.51,0s.51-.08.77-.08l9.09-.23h1.16l.13-.08s-.13,0-.13-.08a1.51,1.51,0,0,0-.64-.15c-.9.08-1.67.08-2.57.08l-.12-.08c0-.08.12-.08.12-.08h.64L40,9l-.13-.07c-.89,0-1.79.07-2.69.07a7.4,7.4,0,0,1-2.3.24c-.39.07-.13.15,0,.23s.13.08,0,.15c-.77,0-1.54.08-2.18.08a9.94,9.94,0,0,0-1.54.08h-.77c-.25,0-.38.15-.64.15h-.25c0-.08,0-.08.12-.15a1.72,1.72,0,0,1,.52-.23A8.83,8.83,0,0,1,31.9,9.19Z" transform="translate(0 0)"/><path class="a" d="M183.62,8.34a3.74,3.74,0,0,0,1.28.15c.13-.46.77-.38,1.41-.38a3.88,3.88,0,0,0,1.66.15c.39,0,.77-.08,1,.15h1.66s.13,0,.13-.07V8.26c-.38,0-.64-.23-1.15-.23a10,10,0,0,0-1.54.08,1.81,1.81,0,0,1-.89-.08c-.13-.08-.39,0-.64,0A6.93,6.93,0,0,1,184.39,8c-.13-.08-.52,0-.77,0s-.52,0-.64-.15a1,1,0,0,0-.77-.16,13.55,13.55,0,0,1-1.8.08l-.12-.08s0-.07.12-.07h.9l.13-.08c0-.08-.13-.08-.13-.08a7.66,7.66,0,0,0-1.41.08c-.38,0-.51.23-1,.23h-4.62c-.51.08-1-.23-1.66-.15s-1.15,0-1.8.07c0,0-.12,0-.12-.07s.12-.08.25-.08a15.41,15.41,0,0,0,1.92-.08,1.74,1.74,0,0,0,.64-.08l.13-.07-.13-.08h-.76c-1,0-2.18.08-3.21.08-.38,0-.38,0-.38.31s0,.23.51.23h1.15c.39,0,.9-.08,1.16.15a.46.46,0,0,1,.51-.08c.13.08.38,0,.64.08a7,7,0,0,1,2.18.16,6.84,6.84,0,0,1,1.28,0,5.8,5.8,0,0,1,2.31.07h.25a21.36,21.36,0,0,0,2.18-.07,5.26,5.26,0,0,0,2.18.07c.26,0,.26.16.26.23Z" transform="translate(0 0)"/><path class="a" d="M144.4,7.18a12.54,12.54,0,0,0,1.67-.08,2.13,2.13,0,0,1,1,.08c.12.08.38,0,.64,0a17.57,17.57,0,0,0,2-.08H150c.13,0,.13.08.13.16v.07a.58.58,0,0,1-.26.08.91.91,0,0,1-.38-.15H148a8.74,8.74,0,0,0-1.41.07c-.51.08-.77-.15-1.15-.15-.9,0-1.8,0-2.69.08,0,0-.13,0-.13.07v.08a10,10,0,0,0,1,.23.64.64,0,0,1,.26-.07c.13,0,.13-.08.26-.08.64.31,1.41,0,2.18.08.51.07,1.15-.16,1.66.07.13.08.39,0,.64,0,.9,0,1.67,0,2.57-.07.51,0,.76.23,1.28.15A9.81,9.81,0,0,1,154,7.64a8.61,8.61,0,0,0,1.41-.07c.26,0,.39.15.52.15h.89a1.92,1.92,0,0,1,.64-.15l.13-.08c-.13,0-.13-.08-.25-.08a13.55,13.55,0,0,0-1.8.08,2.65,2.65,0,0,1-.77-.16c-.13-.07-.25.16-.64.16h-.51a7.11,7.11,0,0,0-1.28-.16,8.34,8.34,0,0,0-1.41.08l-.13-.08s0-.07.13-.07c1.28,0,2.56-.08,3.84-.08,0,0,.13,0,.13-.08V7c-.26-.07-.38-.23-.64-.23-.51.08-1.15-.15-1.67.16-.25-.08-.51-.08-.76-.16a.71.71,0,0,0-.77,0,2.93,2.93,0,0,1-1.67,0c-.25-.07-.38-.07-.51.08a.63.63,0,0,1-.51.08,4.78,4.78,0,0,1-.9-.16,3.91,3.91,0,0,1-.9-.07,5.82,5.82,0,0,0-2.3.07,1.52,1.52,0,0,1-1,0c-.13-.07-.13-.07-.26,0s-.25.16-.51.16-.25.07-.38.07c.13.16.38.08.51.08A12.47,12.47,0,0,0,144.4,7.18Z" transform="translate(0 0)"/><path class="a" d="M55,19.3H51.38a4.32,4.32,0,0,1-1,0,2.25,2.25,0,0,0-1-.08c-2.17.08-4.35.16-6.53.16a21.36,21.36,0,0,0-2.18.07l-.13.08.13.08h.9c.51,0,.77.23,1.28.15s.9,0,1.41-.08a11.41,11.41,0,0,0,1.54-.07,8.4,8.4,0,0,0,1.41-.08,8.4,8.4,0,0,0,1.41-.08h.76c.26.23.77.08,1,.16a3.06,3.06,0,0,0,.9.15,13.41,13.41,0,0,0,1.79-.08,1.9,1.9,0,0,0,.9-.15h.25c.77,0,1.54,0,2.44-.08a5,5,0,0,0,2.18-.23c.38.23.51,0,.64-.08l-.13-.07C57.92,19.22,56.38,19.22,55,19.3Z" transform="translate(0 0)"/><path class="a" d="M162.47,7.49c2.82,0,3.2-.08,3.59-.08a1.25,1.25,0,0,1,.76.08c.26.23.39-.23.65,0,.12.08.51.08.64.15s.25,0,.38-.07.26-.16.13-.16-.26-.15-.39-.15h-.38c-.38,0-.9.15-1.15-.08a.55.55,0,0,0-.26.08c-.26.15-.38.07-.64,0a1.17,1.17,0,0,0-.9,0,1.78,1.78,0,0,1-1.41.07,1.91,1.91,0,0,0-.89,0c-.13.08-.39.08-.52.16s-.12.23-.25.31h-.13s-.13,0-.13-.08,0-.46-.64-.46c0,0-.13-.08-.13-.16s0-.15-.25-.15l-.13.07a3,3,0,0,1-1.16.08A3,3,0,0,0,158.11,7s-.13.08-.13.16.13.15.26.23h.26a.55.55,0,0,1,.64-.08c.12.08.38,0,.64,0a.52.52,0,0,1,.25.08c.13.08,0,.08-.12.08h-1.29c-.38,0-.51.08-.64.23l-.12.08.12.07a8.44,8.44,0,0,1,1.93.16A17.57,17.57,0,0,1,162,8a11.27,11.27,0,0,0,1.66.16A9.94,9.94,0,0,1,165.16,8a1.43,1.43,0,0,0,.51-.08l.13-.08s-.13,0-.13-.07-.13-.08-.64,0h-.13c-.38,0-.51-.23-.89-.16a3.39,3.39,0,0,1-.9,0L163,7.57c0-.08.13-.08.13-.08h-.64A11,11,0,0,1,160,7.41h.13c.13,0,.26.08,0,.16Z" transform="translate(0 0)"/><path class="a" d="M126.21,7.1A.34.34,0,0,1,126,7l.13-.07C126.08,7,126.21,7,126.21,7.1Zm9.09.16c.77,0,1.54-.08,2.44-.08l.13-.08c0-.08-.13-.08-.13-.08h-1.15a4.64,4.64,0,0,1-1.8-.07c-.13-.08-.51,0-.77,0a2.2,2.2,0,0,1-1-.08,4,4,0,0,0-1.92.15.44.44,0,0,1-.52-.07.57.57,0,0,0-.51,0,2,2,0,0,1-1.15.15s-.13,0-.13-.08c-.13-.46-.77-.23-1.28-.23-1.16,0-2.31.08-3.46.08a1.2,1.2,0,0,0-.77.31v.15c0,.08.13.08.26.08.51-.08,1,.16,1.53-.15.26.07.39.15.64.07.9,0,1.8-.07,2.69-.07,1.29,0,2.7-.08,4-.08.13,0,.25.08.25.15s-.12.16-.25.16H132c-.12,0-.12.08-.25.08.13,0,.13.07.25.07h1.16a1.36,1.36,0,0,1,.64.16.66.66,0,0,0,.38-.08s.13-.08,0-.15-.13-.16-.13-.16h-.89L133,7.33c0-.07.13-.07.13-.07Z" transform="translate(0 0)"/><path class="a" d="M241.14,18.53a8.34,8.34,0,0,0,1.41-.08s.13,0,.13-.08V18.3a2.85,2.85,0,0,1-.77-.24c-.77.16-1-.38-1.67-.38v-.16c.13-.07.13-.15,0-.15a2,2,0,0,1-1-.16c-.38.08-.77-.07-1.15.16a3,3,0,0,1-.9.08c-.51-.08-.64.23-1.15.23-.13,0,0,.31-.26.38s0,.16,0,.08c.39-.08.64.23,1,.16.12-.08.38,0,.64,0,.64.07,1.41-.24,1.92.15A14.41,14.41,0,0,0,241.14,18.53Z" transform="translate(0 0)"/><path class="a" d="M216.67,7.8h.77s.13,0,.13-.08V7.64c-.51,0-.77-.23-1.28-.15s-.9,0-1.28.08a9.44,9.44,0,0,0-2.18-.16c-.38,0-.77-.15-1.28-.15s-.9,0-1.28.07-.52-.23-1-.15-.77,0-1.15.08a5.09,5.09,0,0,0-2.18-.08h-.77c-.26,0-.26-.16-.51-.16a13.41,13.41,0,0,0-1.79.08l-.13.08c0,.08.13.08.13.08a2.16,2.16,0,0,1,1,.15c.26-.31.51.08.9,0s.77,0,1.15-.08c.64-.07,1,.24,1.67.16a1.25,1.25,0,0,1,.77,0,5.4,5.4,0,0,0,1.92.08c.38,0,.51.15.89.15h2.05c.52.31,1.16.08,1.8.15.25,0,.51.24.89.16A1,1,0,0,1,216.67,7.8Z" transform="translate(0 0)"/><path class="a" d="M176.06,16.6c-.26,0-.39.15-.26.23s.13.15.38.15c.64,0,1.41-.07,2.06-.07,0,0,.12,0,.12.07v.08a.89.89,0,0,1-.89.15c-.13,0-.13-.07-.26-.07-.64,0-1.28.07-1.92.07,0,0-.13.08-.13.16s0,.15.13.15h.64a2.2,2.2,0,0,1,1,.08c.13.08.39,0,.64,0s.52-.15.77-.23h2c.13,0,.26-.08.26-.16s.26-.23.38-.15a2.81,2.81,0,0,0,1.16,0c0-.08-.13-.15-.13-.15h-1.41a3,3,0,0,1-1.15-.08c-.13-.08-.39,0-.64,0-.9,0-1.67.08-2.57.08C176.18,16.75,176.06,16.75,176.06,16.6Z" transform="translate(0 0)"/><path class="a" d="M195.66,18c-.64,0-1.28.07-1.92.07s-1.41.24-1.92-.07c-1,0-2,.07-3.08.07v.08l.13.08H190c.13,0,.26.08.39.08-.13,0-.26.07-.39.07-.76,0-1.53.08-2.3.08l-.13.08.13.07c.9,0,1.79-.07,2.69-.07.13,0,.25,0,.25-.08s.26-.08.52,0a1.89,1.89,0,0,0,1.15-.08,2.87,2.87,0,0,1,.77-.07c1.66-.08,3.46-.08,5.13-.16a2.89,2.89,0,0,1,1.15.16h.25c.13,0,.13-.08,0-.16A1.81,1.81,0,0,0,199,18Z" transform="translate(0 0)"/><path class="a" d="M18.45,13.28a7.81,7.81,0,0,1-1.28,0c-.51,0-.77.31-1.28.23a6.84,6.84,0,0,0-1.28,0,7.6,7.6,0,0,0-1.41.08,6.25,6.25,0,0,1-1.28.23,6.83,6.83,0,0,0-1.28.08,6.23,6.23,0,0,1-1.29.23v.07l.13.08c.77,0,1.67,0,2.44-.08.38,0,.64-.23,1.15-.23h2.44c.38,0,.38-.23.76-.23h1.67c.38,0,.51-.23,1-.23h1.16l.13-.08c-.13,0-.13-.08-.26-.08A12.33,12.33,0,0,0,18.45,13.28Z" transform="translate(0 0)"/><path class="a" d="M209.88,17.83c.13,0,.13.08.26.08a6.84,6.84,0,0,1,1.28,0,.63.63,0,0,0,.64-.08s.26-.07.26,0a2,2,0,0,0,1.15.16,3.44,3.44,0,0,1,1.28,0,3,3,0,0,0,1.15.07h1.29c.12,0,.25.16.51.16s.51.08.51-.08c0,0-.13-.15-.25-.15a1.67,1.67,0,0,0-1.16-.23,1.18,1.18,0,0,1-1-.16c-.13.08-.26.08-.39.16-.25-.24-.77-.16-1.15-.16H213c-.39,0-.9.08-1.16-.15a11.2,11.2,0,0,0-1.53.07C210.27,17.6,210.14,17.76,209.88,17.83Z" transform="translate(0 0)"/><path class="a" d="M21.27,9.5a13.41,13.41,0,0,0,1.79-.08l.13-.08-.13-.08h-.51a3.44,3.44,0,0,1-1.28,0,3,3,0,0,0-1.15-.07L20,9.11c0-.08.13-.08.13-.08A3.36,3.36,0,0,0,21,9l.13-.07L21,8.8a11.46,11.46,0,0,1-1.66,0c-.39,0-.52.23-1,.23a5.53,5.53,0,0,0-1.15,0,6,6,0,0,1-2.05.23,8.66,8.66,0,0,1-1.41.24l-.13.07.13.08a13.41,13.41,0,0,0,1.79-.08c.39,0,.39-.23.77-.23h1.67a2.58,2.58,0,0,1,1.15-.15c.13,0,.13.07,0,.15L19,9.42c-.13.08-.13.15,0,.15C19.86,9.57,20.63,9.5,21.27,9.5Z" transform="translate(0 0)"/><path class="a" d="M192.46,17.06a2.91,2.91,0,0,0-.39.15,1.88,1.88,0,0,1-1.15,0,1.34,1.34,0,0,0-.52-.07,11.2,11.2,0,0,0-1.53.07c-.39.08-.52-.23-1-.15a3.32,3.32,0,0,1-.89,0h-1.16c-.13,0-.25-.08-.38-.08s-.39-.07-.39,0l-.38.23a2,2,0,0,0,.51.24h.39a.39.39,0,0,1,.51,0,3.65,3.65,0,0,0,1.28,0,5,5,0,0,1,1,.07,2.61,2.61,0,0,0,1.54-.07c.13,0,.39-.08.39,0a1.62,1.62,0,0,0,.89.15,4.09,4.09,0,0,1,1.67.08.55.55,0,0,0,.26-.08.23.23,0,0,1,.12-.23c.13-.16.13-.23-.12-.23A1.79,1.79,0,0,0,192.46,17.06Z" transform="translate(0 0)"/><path class="a" d="M141.71,7.8c.26,0,.39-.16.26-.23s-.38-.31-.38-.55c0-.07-.13-.15-.39-.07s-.26.07-.26.15v.23l-.12.08a5.81,5.81,0,0,0-2.31-.08c-.26,0-.64,0-.77.16a3.58,3.58,0,0,0-1-.16h-1.8a1.46,1.46,0,0,0-.51.08l-.13.08a1.16,1.16,0,0,0,.77.23c.26-.23.77-.15,1.15-.23s.52.23.9.15a3.87,3.87,0,0,1,.9,0h2.18c.38,0,.76-.07,1,.16Z" transform="translate(0 0)"/><path class="a" d="M55,18.76a5.53,5.53,0,0,1,1.15,0c.65.08.9-.23,1.41-.23h1.41a9.87,9.87,0,0,0,1.54-.08c.13,0,.13-.15.13-.23s-.13-.16-.13-.16a10,10,0,0,0-1.54.08.82.82,0,0,0-.38.16c-.51-.31-.9-.08-1.41,0a14.23,14.23,0,0,1-1.79.07,3.55,3.55,0,0,0-1.8.23,1,1,0,0,1-.38-.07c-.13-.08-.13-.08-.26,0s-.13.07,0,.15.13.16.13.16A17.64,17.64,0,0,1,55,18.76Z" transform="translate(0 0)"/><path class="a" d="M129,6.33a13.41,13.41,0,0,0,1.79-.08c.26,0,.51.08.77.08a1,1,0,0,0,1-.23l.13-.08-.13-.08h-.51a2.65,2.65,0,0,1-1.54-.15.73.73,0,0,1-.38.15c-.26-.23-.77-.15-1.15-.15h-1.28a2.72,2.72,0,0,1-1.54-.15,3.91,3.91,0,0,0-.9.07s-.13.08-.13.16.13.23.26.15c.64-.15,1.15.16,1.79.16A3.58,3.58,0,0,0,129,6.33Z" transform="translate(0 0)"/><path class="a" d="M117.24,5.64c.13,0,.25.07.25.15s-.38.08-.51,0V5.71S117,5.64,117.24,5.64ZM116,6.18a2.15,2.15,0,0,0,1.41-.24.64.64,0,0,0,.89,0,.55.55,0,0,1,.26.08c.13,0,.13.08.26.08.25.23.38,0,.51-.08s.25-.08.13-.08-.39-.3-.77-.23H118c-.13,0-.26-.07-.13-.15s.25-.16,0-.16a1,1,0,0,1-.51-.07c-.26-.08-.39-.08-.52,0l-.25.15c-.13.08-.13.08-.52,0h-.76c-.13,0-.13.08,0,.16s.25.15,0,.15a.85.85,0,0,0-.64.23s-.13.08-.13.16l.13.07C115.19,6.25,115.57,6.18,116,6.18Z" transform="translate(0 0)"/><path class="a" d="M67.91,7.18c1.29,0,2.57-.08,3.85-.08L71.89,7c0-.07-.13-.07-.13-.07h-1c-.25,0-.38,0-.51-.16H70c-.25,0-.25.31-.64.08a1.42,1.42,0,0,0-.64-.08c-1,0-2.05.08-3.07.08a1.9,1.9,0,0,0-.77.23h-.77l-.13.08.13.08C65.35,7.26,66.63,7.18,67.91,7.18Z" transform="translate(0 0)"/><path class="a" d="M195.65,5.94A17.65,17.65,0,0,0,193.6,6a.91.91,0,0,1-.51-.08c-.25-.15-.51,0-.77-.07a1.3,1.3,0,0,1-.89.23l-.13.08c0,.07.13.07.13.07A11.2,11.2,0,0,0,193,6.18a1,1,0,0,1,.52.07c.12.08.38.08.38,0a1.42,1.42,0,0,1,.77-.15c.26,0,.51.08.77.08a3.87,3.87,0,0,0,.9,0c.12,0,.25-.16.51-.16s.26.16.38.08.39.23.64.08.13-.31.26-.39L198,5.71A20.07,20.07,0,0,1,195.65,5.94Z" transform="translate(0 0)"/><path class="a" d="M23.83,8.72c.52-.07,1,.08,1.41-.23h1.28l.13.08c0,.08-.38.08-.13.15s.39.08.39,0,.38-.15.64-.15a13.41,13.41,0,0,0,1.79-.08.58.58,0,0,0,.26-.08c.13-.07,0-.07-.13-.07a1.85,1.85,0,0,1-.9-.08.64.64,0,0,0-.38-.08c-1,0-2.18.08-3.2.08-.39,0-.64.23-1.16.23H22.68l-.13.08c0,.08.13.08.13.08A3.12,3.12,0,0,0,23.83,8.72Z" transform="translate(0 0)"/><path class="a" d="M251,18.76h-1.28s-.13,0-.13.08,0,.07.13.07c.9-.07,1.41.39,2.31.31a2.46,2.46,0,0,0,1.28.16H254l.13-.08-.13-.08c-.13,0-.39,0-.39-.08-.25-.23-.77-.23-1.15-.38a4.35,4.35,0,0,0-1,0Z" transform="translate(0 0)"/><path class="a" d="M203.48,6.56h1.15s.13,0,.13-.08,0-.07-.13-.07h-.51c-.39,0-.9.15-1.16-.08h-.25a8.26,8.26,0,0,1-1.41,0c-.39,0-.77-.15-1.28-.15s-.64-.24-.9-.31-.51,0-.51.15v.23c0,.08.13.08.13.16h.64a2.32,2.32,0,0,1,1.28.15c.25.08.77-.08,1.15.16A6.35,6.35,0,0,1,203.48,6.56Z" transform="translate(0 0)"/><path class="a" d="M164.65,17.76h0a7.77,7.77,0,0,0,1.28,0,2.87,2.87,0,0,1,.77.07c.26.16.26-.15.64-.15a1,1,0,0,1,.64.08c.13.07.13.07.39,0a1.77,1.77,0,0,1,1.28,0,2.17,2.17,0,0,1,.38.07,7.47,7.47,0,0,1,2.31-.23l.12-.08-.12-.07-7.31.23c-.38-.08-.38,0-.38.08Z" transform="translate(0 0)"/><path class="a" d="M35.1,7.87A9.81,9.81,0,0,0,33.57,8c-.26.31-.9.16-1.28.23l-.13.08c0,.08.13.08.13.08a15.41,15.41,0,0,0,1.92-.08.94.94,0,0,0,.51-.15.33.33,0,0,1,.38,0c.13,0,.26.15.39.15.9,0,1.66-.08,2.56-.08l.13-.07L38.05,8H36.77C36.26,7.72,35.62,8,35.1,7.87Z" transform="translate(0 0)"/><path class="a" d="M175.67,8h-.9l-.13.08c0,.07.13.07.13.07a3,3,0,0,1,1.16.08c.25.08.64,0,1,.08a4,4,0,0,0,1.92.07s.13-.07.13-.15-.13-.15-.26-.15h-1.15c-.38.07-.64-.16-1-.16A2.59,2.59,0,0,1,175.67,8Z" transform="translate(0 0)"/><path class="a" d="M188,7.18c1.28,0,2.44-.08,3.72-.08l.13-.08L191.69,7l-7.31.23-.12.08.12.07C185.54,7.26,186.82,7.26,188,7.18Z" transform="translate(0 0)"/><path class="a" d="M134.66,6.41c.52.07.9-.23,1.41-.23A15.66,15.66,0,0,0,138,6.1h.51l.13-.08-.13-.08c-1.8.08-3.59.08-5.38.16l-.13.08.13.07C133.64,6.1,134.15,6.48,134.66,6.41Z" transform="translate(0 0)"/><path class="a" d="M196,8.57h.39c.12,0,.12-.08.12-.16s-.12-.15-.25-.15h-.64a4,4,0,0,1-.9-.08,2.06,2.06,0,0,0-1.15.08,1.24,1.24,0,0,1-1.15-.08h-.26s-.13,0-.13.08v.08c.26.07.26.23.64.23a6.84,6.84,0,0,1,1.28,0,2.64,2.64,0,0,1,1.54.15C195.53,8.57,195.79,8.57,196,8.57Z" transform="translate(0 0)"/><path class="a" d="M143,5.94a9.94,9.94,0,0,0-1.54.08l-.13.08c0,.08.13.08.13.08h2c.38-.08.64.15,1,.15,1,0,2.05-.08,3.07-.08l.13-.07c0-.08-.13-.08-.13-.08H147c-.64-.08-1.41.23-1.92-.16Z" transform="translate(0 0)"/><path class="a" d="M121.34,6.25a9.45,9.45,0,0,0,1.41-.07,1.42,1.42,0,0,1,.77.15s.26.08.26,0a4.86,4.86,0,0,1,1.15-.23l.13-.08-.13-.08a3.39,3.39,0,0,1-.9,0c-.38-.07-.77-.23-1,0-.77,0-1.54.08-2.18.08-.13,0-.13-.08-.26-.08s-.25-.07-.38-.07-.26.23-.51.15V6.1l.13.08a9.42,9.42,0,0,0,1.53.07Z" transform="translate(0 0)"/><path class="a" d="M213.6,17.52h.25l.13-.07-.13-.08a2.28,2.28,0,0,1-1-.16,6.38,6.38,0,0,0-1.16,0c-.38,0-.64-.15-1-.15s-.9,0-1.28.08a6.46,6.46,0,0,0-1.16.07l-.12.08s0,.08.12.08H209c.39,0,.9-.16,1.16.15h1.41a2,2,0,0,1,1.15.16A4.78,4.78,0,0,1,213.6,17.52Z" transform="translate(0 0)"/><path class="a" d="M25.88,11.12H24.73c-.39,0-.51.23-1,.23H22.55s-.13.08-.13.15c.26.08.39.31.64.08a.69.69,0,0,1,.39-.08,17.6,17.6,0,0,0,1.92-.07,1.44,1.44,0,0,0,.64-.08c.26-.23.64-.08,1-.23V11L26.91,11C26.78,11.12,26.27,11.12,25.88,11.12Z" transform="translate(0 0)"/><path class="a" d="M74.06,18.91a6.35,6.35,0,0,0,1.15-.07c.13,0,.13-.16.13-.24s-.13-.15-.13-.15h-.9a2.14,2.14,0,0,0-1-.15.82.82,0,0,0-.64.23.22.22,0,0,0-.13.23c0,.08.13.15.39.08A5,5,0,0,0,74.06,18.91Z" transform="translate(0 0)"/><path class="a" d="M172.34,8.34h.51s.13,0,.13-.08,0-.08-.13-.15a.81.81,0,0,0-.39-.16c-.51-.08-1.15.16-1.66-.15a11.34,11.34,0,0,0-1.54.07c-.13,0-.13.16-.13.24s.13.15.13.15h.64a3.2,3.2,0,0,1,1.67.15A2.83,2.83,0,0,1,172.34,8.34Z" transform="translate(0 0)"/><path class="a" d="M247.17,19.22h-.64c-.52,0-.9.16-1.28-.15h-.9s-.13,0-.13.07v.08c.38,0,.64.23,1.15.23h.9c.38,0,.9-.15,1.15.08a1.8,1.8,0,0,1,.9-.15c.13,0,.26.07.13.15s-.13.15.13.15.38-.15.51-.23-.26-.31-.38-.31C248.32,19.14,247.68,19.22,247.17,19.22Z" transform="translate(0 0)"/><path class="a" d="M106.86,7a9.94,9.94,0,0,0,1.54-.08l.13-.08-.13-.07h-1.28a2.38,2.38,0,0,0-1.28-.16h-1.28l-.13.08c0,.08,0,.08.13.15a.81.81,0,0,0,.51.16A7.66,7.66,0,0,0,106.86,7Z" transform="translate(0 0)"/><path class="a" d="M1,20.77c.64.07.89-.31,1.53-.24a6.84,6.84,0,0,0,1.28,0L4,20.46l-.13-.08H2.43c-.12,0-.25-.08-.38-.08a2,2,0,0,0-.9,0,1,1,0,0,1-.64.16c-.25,0-.38.07-.25.23s.12.15.38.15C.64,20.77.9,20.77,1,20.77Z" transform="translate(0 0)"/><path class="a" d="M112.63,6.1h.77c.12,0,.25-.16.51-.16s.38-.07.25-.15a.81.81,0,0,0-.51-.23h-1.54l-.38.46.13.08h.77Z" transform="translate(0 0)"/><path class="a" d="M180.92,5.79h.9s.13,0,.13-.08,0-.07-.13-.15a.83.83,0,0,0-.51-.16c-1,0-2.05.08-2.95.08l-.13.08.13.08c.39,0,.9-.16,1.28.15Z" transform="translate(0 0)"/><path class="a" d="M205.14,17.83h0a8.77,8.77,0,0,0,2.05,0A1.34,1.34,0,0,1,208,18h.38c.26-.16.39-.08.65,0s.38,0,.64,0l.12-.08a.73.73,0,0,0-.38-.15c-.38-.16-1,.07-1.41-.16-.38.31-.9.16-1.28.16a10.42,10.42,0,0,0-1.54.07Z" transform="translate(0 0)"/><path class="a" d="M194.89,7c.77,0,1.54-.07,2.31-.07l.12-.08c0-.08-.12-.08-.12-.08a7,7,0,0,1-1.29,0c-.25,0-.38-.23-.64-.07a4.19,4.19,0,0,1-1.92.15c-.13,0-.25-.15-.38-.08s-.51.08-.64.23V7.1l.13.08A12.36,12.36,0,0,1,194.89,7Z" transform="translate(0 0)"/><path class="a" d="M120.57,6.79h-1.15c-.13,0-.13.08-.26.08.13,0,.13.08.26.08h1.15c.52,0,.52,0,.64.31,0,.15.26.23.39.15s.38-.23.64-.23l.13-.08c-.13,0-.13-.08-.26-.08s-.38-.07-.13-.15.13-.15-.12-.15S121,6.79,120.57,6.79Z" transform="translate(0 0)"/><path class="a" d="M247.94,6.72h-.26c-.12,0-.12.07-.12.07l.12.08a3.09,3.09,0,0,1,1.16.15c.25.08.64.16.89.24s.65.15.9.23.39,0,.39-.08,0-.23-.13-.23c-.39,0-.64-.23-.77-.16-.51.08-.77-.15-1.15-.15A3.74,3.74,0,0,0,247.94,6.72Z" transform="translate(0 0)"/><path class="a" d="M100.08,4a21.16,21.16,0,0,0,2.17-.07l.13-.08-.13-.08c-.12-.07-.25-.31-.51-.07,0,.07-.25.07-.38.07-.9,0-1.92.08-2.82.08H97.9l-.13.08c0,.07.13.07.13.07A19.82,19.82,0,0,0,100.08,4Z" transform="translate(0 0)"/><path class="a" d="M186.05,8.49h-.9c-.12,0-.25,0-.12.08l.12.08c.64-.08,1.16.23,1.8.15a2.13,2.13,0,0,1,.64.15c.13,0,.26,0,.26-.07s.12-.08,0-.16a.93.93,0,0,0-.64-.31C186.82,8.41,186.44,8.49,186.05,8.49Z" transform="translate(0 0)"/><path class="a" d="M206.29,1.93h.39l.12-.08-.12-.07a2.47,2.47,0,0,1-1-.16c-.38-.08-.77.08-1.15,0a2.31,2.31,0,0,0-1-.15c-.12,0-.12.07-.12.07l.12.08a1.3,1.3,0,0,1,.64.16,2.84,2.84,0,0,0,.77,0,4.41,4.41,0,0,1,.64.15A2.49,2.49,0,0,0,206.29,1.93Z" transform="translate(0 0)"/><path class="a" d="M15.89,14.36h1.28c.25-.08.38-.23.64-.23l.13-.08L17.81,14a1.44,1.44,0,0,0-.64.08.51.51,0,0,1-.64,0h-.26a3.85,3.85,0,0,1-1.28.23l-.13.08.13.08A4,4,0,0,0,15.89,14.36Z" transform="translate(0 0)"/><path class="a" d="M50.74,8.88c.51,0,.89-.08,1.28-.08,0,0,.12,0,.12-.08s0-.07-.12-.07h-.64c-.39,0-.77.07-1-.16h-1s-.13.08-.13.16.13.15.13.15A9.07,9.07,0,0,0,50.74,8.88Z" transform="translate(0 0)"/><path class="a" d="M185.54,3.55a9.81,9.81,0,0,0,1.53-.08l.13-.07-.13-.08c-1.15,0-2.3.08-3.45.08l-.13.07.13.08A7.71,7.71,0,0,0,185.54,3.55Z" transform="translate(0 0)"/><path class="a" d="M183.61,17.29a1.51,1.51,0,0,0,.52-.08l.12-.15-.51-.31s-.13,0-.13.08c-.25.23-.77.08-1.15.15-.13,0-.26,0-.13.08s.13,0,.13.08S183,17.29,183.61,17.29Z" transform="translate(0 0)"/><path class="a" d="M207.32,16.83h1.15l.13-.08c0-.08-.13-.08-.13-.08h-.76a2,2,0,0,1-1.16-.15c-.13-.08-.38,0-.64,0,0,0-.13.08-.13.15s.13.16.26.24A5.6,5.6,0,0,1,207.32,16.83Z" transform="translate(0 0)"/><path class="a" d="M201.43,18.22a6.94,6.94,0,0,0,1.28-.08s.13-.08.13-.15l-.13-.08c-.39,0-.9.15-1.28-.15a1.35,1.35,0,0,0-.77.07.86.86,0,0,1-.51.16l-.13.07c0,.08.13.08.13.08A7.55,7.55,0,0,0,201.43,18.22Z" transform="translate(0 0)"/><path class="a" d="M238.84,5.94h-.26c-.13,0-.26,0-.13.08s.13.08.26.08a2.41,2.41,0,0,1,1,.15c.26.08.77-.07.9,0a1.74,1.74,0,0,0,.9.08s.13,0,.13-.08V6.18a2.75,2.75,0,0,1-.77-.24c-.26-.07-.77.08-1-.07S239.22,5.94,238.84,5.94Z" transform="translate(0 0)"/><path class="a" d="M203.6,17.83c.26,0,.64-.07,1-.07l.13-.08-.13-.08h-.26a3.48,3.48,0,0,1-1.53-.15c-.13-.08-.39,0-.64.07,0,0-.13.08-.13.16s.13.15.13.15Z" transform="translate(0 0)"/><path class="a" d="M195.53,1.54H196l.13-.07L196,1.39c-.51.15-.77-.15-1.28-.15a7.91,7.91,0,0,0-1.28.07l-.13.08.13.08a4.4,4.4,0,0,1,1,0A2.36,2.36,0,0,0,195.53,1.54Z" transform="translate(0 0)"/><path class="a" d="M115.58,7.8h-1.29l-.12.07c0,.08.12.08.12.08.9,0,1.93-.08,2.82-.08l.13-.07c0-.08-.13-.08-.13-.08C116.6,7.72,116.09,7.8,115.58,7.8Z" transform="translate(0 0)"/><path class="a" d="M167.72,8.11h.64l.13-.08L168.36,8c-.38,0-.76.08-1-.15h-.9l-.13.07c0,.08,0,.08.13.16a.87.87,0,0,0,.52.15A2.8,2.8,0,0,1,167.72,8.11Z" transform="translate(0 0)"/><path class="a" d="M254.85,18.45h.39c.13,0,.13-.08,0-.08s-.13-.23-.39-.31a3,3,0,0,0-.51-.15.22.22,0,0,1-.13.23c-.12.08-.25.16-.25.23s0,.23.25.23A1,1,0,0,1,254.85,18.45Z" transform="translate(0 0)"/><path class="a" d="M103.79,3.94a1.14,1.14,0,0,0,.51-.08s.13-.08.13-.15,0-.16-.13-.16a1.76,1.76,0,0,0-1.41.23l-.13.08.13.08Z" transform="translate(0 0)"/><path class="a" d="M15,20.38h1.16l.12-.08c0-.07-.12-.07-.12-.07-.9,0-1.67.07-2.57.07l-.13.08c0,.08.13.08.13.08A7.66,7.66,0,0,1,15,20.38Z" transform="translate(0 0)"/><path class="a" d="M268.56,15.21v-.16l-.13-.07c-.12,0-.12.07-.25.07,0,.16.13.31-.13.39s-.38,0-.64.08-.26.07-.26.15v.08c.13,0,.26.08.39.08s.13-.08.25-.08.13-.08.26-.08c.38,0,.38-.15.38-.31S268.56,15.28,268.56,15.21Z" transform="translate(0 0)"/><path class="a" d="M237,5.64h-.64c-.13,0-.13.07-.13.07l.13.08c.51-.15.9.15,1.28.15.77,0,.9,0,.77-.07s-.51-.08-.77-.23Z" transform="translate(0 0)"/><path class="a" d="M190.15,8.8c.13,0,.13.08.26.08a2,2,0,0,1,1.15.15c.13.08.38,0,.64,0s.13-.08.13-.15V8.72a.14.14,0,0,0-.26.08l-.13.08c-.51-.31-1-.08-1.66-.16C190.28,8.72,190.15,8.72,190.15,8.8Z" transform="translate(0 0)"/><path class="a" d="M263.05,11.43h.52s.13,0,.13-.08,0-.08-.13-.08a4,4,0,0,0-1.67-.15l-.13.07s0,.08.13.08.39.23.64.16Z" transform="translate(0 0)"/><path class="a" d="M198.73,6.72h-.89l-.13.07.13.08c.38,0,.89-.15,1.28.15.13-.15.51-.15.77-.23V6.72l-.13-.08A4.48,4.48,0,0,1,198.73,6.72Z" transform="translate(0 0)"/><path class="a" d="M161.32,17.91c.13,0,.25-.08.25-.15s-.12-.08-.25-.08-.26-.08-.39-.08-.13-.08-.25-.08a1.31,1.31,0,0,0-.9.24l.13.07h.25a.5.5,0,0,1,.64,0A1.18,1.18,0,0,0,161.32,17.91Z" transform="translate(0 0)"/><path class="a" d="M168.49.39h1l.13-.08c-.13,0-.13-.08-.26-.08-.77,0-1.41.08-2.18.08-.12,0-.25,0-.12.08s.12.07.25.07A6.4,6.4,0,0,1,168.49.39Z" transform="translate(0 0)"/><path class="a" d="M175.16.39h-1L174,.46c.12,0,.12.08.25.08.77,0,1.41-.08,2.18-.08.13,0,.26,0,.13-.07s-.13-.08-.26-.08C175.8.31,175.41.39,175.16.39Z" transform="translate(0 0)"/><path class="a" d="M179.77,8.18c0,.16.13.23.38.23a2.53,2.53,0,0,1,.77.08c.26.08.51.08.51,0s-.13-.15-.25-.15l-1-.23C179.9,8.11,179.9,8.18,179.77,8.18Z" transform="translate(0 0)"/><path class="a" d="M85.47,4.79a2.18,2.18,0,0,0,.64-.08s.12,0,.12-.08,0-.08-.12-.08-.39,0-.39-.07c-.25-.08-.38-.16-.64,0s-.38.07-.51.15l-.13.08c.13,0,.13.08.26.08Z" transform="translate(0 0)"/><path class="a" d="M209.11,2.39c.13,0,.13-.07.26-.07s0-.08-.13-.16A.81.81,0,0,0,208.6,2a.87.87,0,0,1-.51-.08c-.13-.08-.26,0-.26.08s0,.15.13.15C208.34,2.24,208.6,2.47,209.11,2.39Z" transform="translate(0 0)"/><path class="a" d="M195.53,17.45h.9l.12-.08-.12-.08a18.71,18.71,0,0,0-2.18.08l-.13.08.13.07A7.09,7.09,0,0,0,195.53,17.45Z" transform="translate(0 0)"/><path class="a" d="M46,8.65h.77l.13-.08c0-.08,0-.08-.13-.16s-.38-.23-.51,0c-.51,0-.9.08-1.41.08l-.13.08c0,.08.13.08.13.08Z" transform="translate(0 0)"/><path class="a" d="M200.27,19.3h-.64l-.13.08c0,.07.13.07.13.07s.39,0,.39.08a.7.7,0,0,0,.76,0,.69.69,0,0,1,.39-.08l.13-.07-.13-.08A3.39,3.39,0,0,0,200.27,19.3Z" transform="translate(0 0)"/><path class="a" d="M260.49,19.07c0-.16,0-.23-.39-.23a.82.82,0,0,1-.38-.16.58.58,0,0,1-.26.08v.31c0,.07.26.07.39.07H260C260.49,19.3,260.49,19.3,260.49,19.07Z" transform="translate(0 0)"/><path class="a" d="M29.73,8h-.65S29,8,29,8.11s0,.07.12.07.52-.07.52.23h.13c.25-.23.64-.15,1-.23l.13-.07L30.75,8Z" transform="translate(0 0)"/><path class="a" d="M229.23,17.45h.51l.13-.08-.13-.08c-.38,0-.77.08-1-.15a1.07,1.07,0,0,0-.39.07v.16c0,.08.13.15.13.15A2.06,2.06,0,0,1,229.23,17.45Z" transform="translate(0 0)"/><path class="a" d="M114.55,6.79h-.39s-.12,0-.12.08l.12.08a1.17,1.17,0,0,0,.9.15c.13,0,.26-.08.26-.15s-.13-.16-.26-.16S114.8,6.79,114.55,6.79Z" transform="translate(0 0)"/><path class="a" d="M180.54,18.06h-.64l-.13.08s0,.08.13.08a.66.66,0,0,1,.38.08c.52.15.52.15.9-.08,0,0,.13-.08.13-.16l-.13-.07A2.44,2.44,0,0,1,180.54,18.06Z" transform="translate(0 0)"/><path class="a" d="M55.74,9.11h.77L56.64,9,56.51,9A15.41,15.41,0,0,0,54.59,9l-.13.08.13.08A5.57,5.57,0,0,1,55.74,9.11Z" transform="translate(0 0)"/><path class="a" d="M156.45,17.83h.38s.13,0,.13-.07l-.13-.08a1.13,1.13,0,0,0-.89-.16c-.13,0-.26.08-.26.16s.13.15.26.15S156.19,17.91,156.45,17.83Z" transform="translate(0 0)"/><path class="a" d="M129.54,7.72h.77l.13-.08-.13-.07h-.25a.49.49,0,0,0-.64,0c-.13.07-.39,0-.64,0l-.13.07c0,.08.13.08.13.08A2.42,2.42,0,0,0,129.54,7.72Z" transform="translate(0 0)"/><path class="a" d="M62.14,18.22H61.5c-.26,0-.13.15-.13.15s.13.16.26.16h.26a1.31,1.31,0,0,1,.76-.16c.13,0,.13-.07.26-.07-.13,0-.26-.08-.38-.08S62.27,18.22,62.14,18.22Z" transform="translate(0 0)"/><path class="a" d="M109.81,8h-.64L109,8c0,.08.13.08.13.08A9.81,9.81,0,0,0,110.7,8l.13-.08c0-.08-.13-.08-.13-.08A3.36,3.36,0,0,1,109.81,8Z" transform="translate(0 0)"/><path class="a" d="M171.45.46h.64l.12-.07c0-.08-.12-.08-.12-.08a9.87,9.87,0,0,0-1.54.08l-.13.07c0,.08.13.08.13.08A3.39,3.39,0,0,1,171.45.46Z" transform="translate(0 0)"/><path class="a" d="M180.15.54h-.64l-.13.08c0,.07.13.07.13.07a11.34,11.34,0,0,0,1.54-.07l.13-.08c0-.08-.13-.08-.13-.08A3,3,0,0,1,180.15.54Z" transform="translate(0 0)"/><path class="a" d="M109.42,3.4a1,1,0,0,0-.38.07s-.13.08-.13.16.13.15.26.15a2.93,2.93,0,0,1,.76-.15c.13,0,.13-.08.26-.08-.13,0-.13-.08-.26-.08A1,1,0,0,0,109.42,3.4Z" transform="translate(0 0)"/><path class="a" d="M94.69,7.64h-.64l-.13.08c0,.08.13.08.13.08a10,10,0,0,0,1.54-.08l.12-.08c0-.07-.12-.07-.12-.07A3.91,3.91,0,0,1,94.69,7.64Z" transform="translate(0 0)"/><path class="a" d="M114.55,7.26h-.64l-.13.07c0,.08.13.08.13.08a10,10,0,0,0,1.54-.08l.12-.07c0-.08-.12-.08-.12-.08A3.43,3.43,0,0,1,114.55,7.26Z" transform="translate(0 0)"/><path class="a" d="M186.3,18.3H187l.12-.08-.12-.08a9.87,9.87,0,0,0-1.54.08l-.13.08.13.07A3.82,3.82,0,0,1,186.3,18.3Z" transform="translate(0 0)"/><path class="a" d="M262.55,19.53c.12-.31-.26-.31-.9-.23l-.13.08.13.07h.25c.39.08.13.16,0,.23s-.12.08,0,.16.52,0,.52-.08A.22.22,0,0,0,262.55,19.53Z" transform="translate(0 0)"/><path class="a" d="M201.94,5.94h-.64l-.13.08c0,.08.13.08.13.08A10,10,0,0,0,202.84,6l.12-.08c0-.07-.12-.07-.12-.07C202.58,5.87,202.2,5.94,201.94,5.94Z" transform="translate(0 0)"/><path class="a" d="M179.89,6.56h-.51l-.13.08.13.08c.39,0,.9-.16,1.28.15,0,0,.13,0,.13-.08s0-.31-.13-.31S180.15,6.56,179.89,6.56Z" transform="translate(0 0)"/><path class="a" d="M212.58,7c.38,0,.38,0,.25-.23l-.13-.07.13-.08c.13-.08.26-.16,0-.16a.66.66,0,0,0-.38.08c-.13.08.13.31-.39.31,0,.08,0,.15.13.15Z" transform="translate(0 0)"/><path class="a" d="M158.63,17.6H158l-.13.08.13.08h.64c.51.07.51.07.64,0s.13-.08.13-.16l-.13-.08h-.13A1.49,1.49,0,0,1,158.63,17.6Z" transform="translate(0 0)"/><path class="a" d="M105.32,17.37h-.38l-.13.08.13.07c.38,0,.77-.07,1,.16a1,1,0,0,0,.39-.08c0-.08-.13-.08-.13-.15A1.18,1.18,0,0,0,105.32,17.37Z" transform="translate(0 0)"/><path class="a" d="M185.15.93h.51l.13-.08-.13-.08h-1.28l-.13.08.13.08A1.44,1.44,0,0,0,185.15.93Z" transform="translate(0 0)"/><path class="a" d="M91.49,4.4h.64l.12-.08-.12-.07H90.84l-.12.07.12.08C91,4.48,91.23,4.4,91.49,4.4Z" transform="translate(0 0)"/><path class="a" d="M88.42,4.32H87.9s-.12,0-.12.08,0,.08.12.15.26.16.65,0h.25l.13-.07c0-.08-.13-.08-.13-.08A.66.66,0,0,0,88.42,4.32Z" transform="translate(0 0)"/><path class="a" d="M83.41,4.79h.26l.13-.08a.81.81,0,0,0-.39-.16c-.13,0-.25-.07-.38,0s-.13.16-.13.24.13.15.38.15Z" transform="translate(0 0)"/><path class="a" d="M165.93,3.63h.64l.13-.08-.13-.08h-1.28l-.13.08.13.08Z" transform="translate(0 0)"/><path class="a" d="M212.32,2.62h-.39c-.13,0,0,.16.26.16s.51.23.9.15c0,0,.12,0,.12-.07V2.78A1.2,1.2,0,0,0,212.32,2.62Z" transform="translate(0 0)"/><path class="a" d="M99.69,6.79a1,1,0,0,0-.39.08c-.13,0,0,.15,0,.23s.13.08.26,0,.51-.08.89-.15l.13-.08-.13-.08Z" transform="translate(0 0)"/><path class="a" d="M110.71,6.87h.64l.13-.08-.13-.07h-1.28s-.13.07-.13.15l.13.08A1.42,1.42,0,0,1,110.71,6.87Z" transform="translate(0 0)"/><path class="a" d="M41.89,8.8h.52l.13-.08-.13-.07H41.13L41,8.72l.13.08Z" transform="translate(0 0)"/><path class="a" d="M139.15,7.18a1.12,1.12,0,0,0,.51-.08s.13,0,.13-.08,0-.07-.13-.07-.76.07-1-.16l-.26.08c0,.08,0,.23.13.23S139,7.1,139.15,7.18Z" transform="translate(0 0)"/><path class="a" d="M187.2,5.79h-.51l-.13.08c0,.07.13.07.13.07H188l.13-.07c0-.08-.13-.08-.13-.08Z" transform="translate(0 0)"/><path class="a" d="M177,6.79h.26l.13-.07a.81.81,0,0,0-.39-.16c-.13,0-.25-.08-.38,0s-.13.16-.13.23.13.16.26.16C176.82,6.79,176.82,6.79,177,6.79Z" transform="translate(0 0)"/><path class="a" d="M156.19,7h-.51l-.13.08.13.08h.26c.51.08.51.08.64,0s.13-.08.13-.16L156.58,7A.77.77,0,0,1,156.19,7Z" transform="translate(0 0)"/><path class="a" d="M240.12,7.33a1.72,1.72,0,0,0,.38-.15.29.29,0,0,0-.12-.23.64.64,0,0,0-.52.07c0,.08-.12.08-.25.16s0,.08-.13.15h.64Z" transform="translate(0 0)"/><path class="a" d="M260.74,11h-.51l-.12.08s.12,0,.12.08c.26.15.26.15.64,0h.26l.13-.08-.13-.08Z" transform="translate(0 0)"/><path class="a" d="M241.66,17.6h.51l.13-.08-.13-.07h-1.28l-.13.07.13.08Z" transform="translate(0 0)"/><path class="a" d="M163.63,17.83h.51l.13-.07-.13-.08h-1.28l-.13.08.13.07Z" transform="translate(0 0)"/><path class="a" d="M173.74,17.6a1.74,1.74,0,0,0,.64-.08s.13-.07.13-.15-.13-.16-.25-.16-.77.24-.64.31Z" transform="translate(0 0)"/><path class="a" d="M243.71,18.22a1.91,1.91,0,0,0-.39.08c0,.15.64.3.9.23,0,0,.13-.08.13-.16s0-.15-.13-.15Z" transform="translate(0 0)"/><path class="a" d="M178.1.62h.52c.12,0,.25,0,.12-.08s-.12-.08-.25-.08h-.9l-.13.08.13.08Z" transform="translate(0 0)"/><path class="a" d="M96.87,4.09h.25L97.25,4c0-.07-.13-.07-.13-.07h-.9L96.1,4c0,.08.12.08.12.08Z" transform="translate(0 0)"/><path class="a" d="M77,5.33l.26-.16c-.13,0-.13-.08-.26-.08h-.77s-.13.08-.13.16l.13.08C76.37,5.4,76.62,5.33,77,5.33Z" transform="translate(0 0)"/><path class="a" d="M175.54,3.71l.26-.16c-.13,0-.13-.08-.26-.08h-.77s-.13.08-.13.16l.13.08Z" transform="translate(0 0)"/><path class="a" d="M181.69,3.47h-.25l-.13.08c0,.08.13.08.13.08h.89l.13-.08c0-.08-.13-.08-.13-.08Z" transform="translate(0 0)"/><path class="a" d="M43.56,8.72h.26L44,8.65l-.13-.08h-.9l-.12.08.12.07Z" transform="translate(0 0)"/><path class="a" d="M45,8.88h-.25c-.13,0-.26.07-.26.15v.08a.33.33,0,0,0,.38,0A.69.69,0,0,1,45.23,9c.13,0,.13-.08.25-.08-.12,0-.12-.07-.25-.07Z" transform="translate(0 0)"/><path class="a" d="M99.81,7.87h.13c.13,0,.13-.07.26-.07s0-.08-.13-.08c-.38-.15-.38-.15-.64,0,0,0,0,.08-.13.15a.34.34,0,0,1,.26.08A.53.53,0,0,1,99.81,7.87Z" transform="translate(0 0)"/><path class="a" d="M167.73,6.64c.12,0,.12.08,0,0,.38.08.89-.08.77-.23l-.13-.08C168.24,6.33,167.73,6.48,167.73,6.64Z" transform="translate(0 0)"/><path class="a" d="M121.21,7.8h.52l.13-.08-.13-.08h-.9s-.13.08-.13.16l.13.07C120.83,7.8,121.09,7.8,121.21,7.8Z" transform="translate(0 0)"/><path class="a" d="M186.82,6.72h.26c.12,0,.12-.08.25-.08s-.13,0-.13-.08c-.38-.23-.38-.23-.77,0-.12.08-.12.08,0,.16Z" transform="translate(0 0)"/><path class="a" d="M178.11,7.26l.25-.16c-.12,0-.12-.08-.25-.08h-.77s-.13.08-.13.16l.13.08A2.84,2.84,0,0,0,178.11,7.26Z" transform="translate(0 0)"/><path class="a" d="M211.55,6.87h.51c.13,0,.26,0,.13-.08s-.13-.07-.26-.07H211l-.13.07.13.08Z" transform="translate(0 0)"/><path class="a" d="M217.32,8.65h.25l.13-.08c0-.08-.13-.08-.13-.08h-.9l-.12.08c0,.08.12.08.12.08Z" transform="translate(0 0)"/><path class="a" d="M166.44.23H167c.12,0,.25,0,.12-.08s-.12-.07-.25-.07h-.9l-.13.07.13.08Z" transform="translate(0 0)"/><path class="a" d="M150.81,17.68h.52c.13,0,.25,0,.13-.08s-.13-.08-.26-.08h-.9l-.13.08.13.08Z" transform="translate(0 0)"/><path class="a" d="M31.39,21h.26l.12-.08-.12-.08c-.13,0-.39-.07-.52-.07s-.25-.08-.25,0v.07c0,.08.12.16.25.16Z" transform="translate(0 0)"/><path class="a" d="M213.73,17h.51l.13-.07-.13-.08h-.9s-.13.08-.13.15l.13.08C213.34,17,213.6,17,213.73,17Z" transform="translate(0 0)"/><path class="a" d="M119.68,17.83h.25l.13-.07c0-.08-.13-.08-.13-.08H119l-.13.08c0,.07.13.07.13.07Z" transform="translate(0 0)"/><path class="a" d="M201,17.52h-.26l-.13.08c0,.08.13.08.13.08h.9l.13-.08c0-.08-.13-.08-.13-.08Z" transform="translate(0 0)"/><path class="a" d="M186.31,18.6h.25l.13-.07-.13-.08h-.89l-.13.08.13.07Z" transform="translate(0 0)"/><path class="a" d="M232.69,17.52h.51l.13-.07-.13-.08h-.89s-.13.08-.13.15l.13.08A.64.64,0,0,1,232.69,17.52Z" transform="translate(0 0)"/><path class="a" d="M267.15,16.6c0,.15.52.31.77.23l.13-.08c-.25-.08-.25-.23-.64-.23A.55.55,0,0,1,267.15,16.6Z" transform="translate(0 0)"/><path class="a" d="M235.51,17.6h.25l.13-.08c0-.07-.13-.07-.13-.07h-.89l-.13.07c0,.08.13.08.13.08Z" transform="translate(0 0)"/><path class="a" d="M11.15,18.91c.38,0,.51-.07.51-.23s-.13-.08-.13-.15c-.13.15-.51.15-.77.23v.08l.13.07Z" transform="translate(0 0)"/><path class="a" d="M264.85,11.5c.38,0,.51-.07.51-.15s-.13-.16-.25-.16-.39.08-.39.16S264.72,11.5,264.85,11.5Z" transform="translate(0 0)"/><path class="a" d="M221.16,17.29l.25-.15c-.12,0-.12-.08-.25-.08h-.77s-.13.08-.13.15l.13.08Z" transform="translate(0 0)"/><path class="a" d="M222.31,18.3l.26-.16c-.13,0-.13-.08-.26-.08h-.77s-.13.08-.13.16l.13.08C221.67,18.37,221.93,18.3,222.31,18.3Z" transform="translate(0 0)"/><path class="a" d="M218.85,17.21h.51l.13-.07-.13-.08h-.9l-.12.08.12.07Z" transform="translate(0 0)"/><path class="a" d="M178.75,18.22a.57.57,0,0,1,.25.08c.26,0,.39-.08.26-.24s-.13-.15-.39-.15C178.87,18,178.75,18.06,178.75,18.22Z" transform="translate(0 0)"/><path class="a" d="M152,17.6h-.51c-.13,0-.25,0-.13.08s.13.08.26.08h.9l.12-.08-.12-.08Z" transform="translate(0 0)"/><path class="a" d="M165,.31c.13,0,.26-.08.38-.08V.15a1.89,1.89,0,0,0-.89,0V.23A4.64,4.64,0,0,1,165,.31Z" transform="translate(0 0)"/><path class="a" d="M182.08.85h.25l.13-.08-.13-.08h-.64l-.13.08.13.08Z" transform="translate(0 0)"/><path class="a" d="M107.5,3.63h.25l.13-.08-.13-.08h-.64l-.12.08.12.08Z" transform="translate(0 0)"/><path class="a" d="M167.86,3.55c.13,0,.25-.08.38-.08V3.4a1.66,1.66,0,0,0-.89,0v.07A1.43,1.43,0,0,0,167.86,3.55Z" transform="translate(0 0)"/><path class="a" d="M173.49,3.4c-.26,0-.39.07-.26.23s.13.08.13.15l.13-.07.25-.16s0-.08.13-.15Z" transform="translate(0 0)"/><path class="a" d="M172.08,3.4c-.13,0-.26.07-.39.07v.08a1.7,1.7,0,0,0,.9,0V3.47A4.82,4.82,0,0,1,172.08,3.4Z" transform="translate(0 0)"/><path class="a" d="M180.53,3.71h.39l.13-.08-.13-.08h-.64c-.13,0-.13.08-.26.08.13,0,.13.08.26.08Z" transform="translate(0 0)"/><path class="a" d="M51.64,8.34c.13,0,.26-.08.38-.08V8.18a1.89,1.89,0,0,0-.89,0v.08A1.43,1.43,0,0,0,51.64,8.34Z" transform="translate(0 0)"/><path class="a" d="M139.41,5.94c0,.08.38.31.51.31s.13,0,.13-.07V5.94Z" transform="translate(0 0)"/><path class="a" d="M24.73,9.42c.13,0,.26-.08.39-.08V9.26a1.93,1.93,0,0,0-.9,0v.08A1.46,1.46,0,0,0,24.73,9.42Z" transform="translate(0 0)"/><path class="a" d="M46.51,9h.26L46.9,9l-.13-.07h-.64L46,9l.13.08Z" transform="translate(0 0)"/><path class="a" d="M57.54,8.88h.25l.13-.08c0-.08-.13-.08-.13-.08h-.64L57,8.8c0,.08.13.08.13.08Z" transform="translate(0 0)"/><path class="a" d="M7.82,10.42H7.56l-.13.08c0,.08.13.08.13.08H8.2l.13-.08c0-.08-.13-.08-.13-.08Z" transform="translate(0 0)"/><path class="a" d="M210.14,5.33h.26l.13-.08-.13-.08h-.64l-.13.08.13.08Z" transform="translate(0 0)"/><path class="a" d="M119.42,7.87h.25l.13-.07-.13-.08H119l-.13.08.13.07Z" transform="translate(0 0)"/><path class="a" d="M113.4,8h.25l.13-.08-.13-.08H113l-.13.08L113,8Z" transform="translate(0 0)"/><path class="a" d="M99.17,8.41c.13,0,.26-.07.39-.07V8.26a1.7,1.7,0,0,0-.9,0v.08A1.68,1.68,0,0,0,99.17,8.41Z" transform="translate(0 0)"/><path class="a" d="M18.45,10.65h.25l.13-.07-.13-.08h-.64l-.13.08.13.07Z" transform="translate(0 0)"/><path class="a" d="M214.24,5.56c.12,0,.12-.08.25-.08s0-.08-.13-.08a.33.33,0,0,0-.25-.07s-.13,0-.13-.08c0,.08-.13.08-.13.15S214,5.56,214.24,5.56Z" transform="translate(0 0)"/><path class="a" d="M204.5,6h-.26l-.12.08c0,.08.12.08.12.08h.64L205,6.1c0-.08-.13-.08-.13-.08Z" transform="translate(0 0)"/><path class="a" d="M184.9,6.56h-.26l-.13.08c0,.08.13.08.13.08h.64l.13-.08c0-.08-.13-.08-.13-.08Z" transform="translate(0 0)"/><path class="a" d="M182.08,6.87c.13,0,.25-.08.38-.08V6.72a1.7,1.7,0,0,0-.9,0v.07A1.18,1.18,0,0,1,182.08,6.87Z" transform="translate(0 0)"/><path class="a" d="M183.36,7.1H183l-.12.08.12.08h.65c.12,0,.12-.08.25-.08-.13,0-.13-.08-.25-.08Z" transform="translate(0 0)"/><path class="a" d="M182.07,7.33h.39l.13-.07-.13-.08h-.64c-.13,0-.13.08-.26.08.13,0,.13.07.26.07Z" transform="translate(0 0)"/><path class="a" d="M211.16,16.91c.13,0,.13-.08.26-.08s0-.08-.13-.08a.34.34,0,0,0-.26-.08s-.13,0-.13-.07-.12.07-.12.15S210.9,16.91,211.16,16.91Z" transform="translate(0 0)"/><path class="a" d="M217.7,7h-.26l-.13.08c0,.08.13.08.13.08h.64l.13-.08c0-.08-.13-.08-.13-.08Z" transform="translate(0 0)"/><path class="a" d="M243.32,6.56h-.12c-.13,0-.13.08-.26.08.13,0,.13.08.26.08h.51c.13,0,.13-.08.25-.08-.12,0-.12-.08-.25-.08S243.45,6.56,243.32,6.56Z" transform="translate(0 0)"/><path class="a" d="M205.65,8.26h.26l.13-.08c0-.07-.13-.07-.13-.07h-.64l-.13.07c0,.08.13.08.13.08Z" transform="translate(0 0)"/><path class="a" d="M219.87,8.72h.26l.13-.07c0-.08-.13-.08-.13-.08h-.64l-.13.08c0,.07.13.07.13.07S219.74,8.72,219.87,8.72Z" transform="translate(0 0)"/><path class="a" d="M228.59,9h.26L229,9l-.13-.07h-.64l-.13.07.13.08Z" transform="translate(0 0)"/><path class="a" d="M52,18.76h0v-.31h-.39l-.13.08C51.51,18.6,51.9,18.84,52,18.76Z" transform="translate(0 0)"/><path class="a" d="M166.57,17.21h.26l.13-.07-.13-.08h-.64l-.13.08.13.07Z" transform="translate(0 0)"/><path class="a" d="M154.79,17.76H155l.13-.08c0-.08-.13-.08-.13-.08h-.64l-.13.08c0,.08.13.08.13.08Z" transform="translate(0 0)"/><path class="a" d="M193.22,17.45l.13.07a.37.37,0,0,0,.51-.31v-.07h-.12Z" transform="translate(0 0)"/><path class="a" d="M197.58,17.6h.26l.13-.08c0-.07-.13-.07-.13-.07h-.64l-.13.07c0,.08.13.08.13.08Z" transform="translate(0 0)"/><path class="a" d="M196.17,19.07c0,.15.13.15.39.15s.12-.08.25-.08,0-.07-.13-.07-.12-.08-.25-.08-.13-.08-.26-.08C196.3,18.91,196.3,19,196.17,19.07Z" transform="translate(0 0)"/><path class="a" d="M250,19.84c-.13.08-.39-.08-.26.08A.64.64,0,0,0,250,20h.64l.12-.07-.12-.08Z" transform="translate(0 0)"/><path class="a" d="M173,.46s.26-.07.26-.15a.57.57,0,0,0-.51,0V.39A.58.58,0,0,1,173,.46Z" transform="translate(0 0)"/><path class="a" d="M183.1.85h.25c.13,0,.13-.08.26-.08-.13,0-.13-.08-.26-.08h-.25c-.13,0-.13.08,0,.16Z" transform="translate(0 0)"/><path class="a" d="M125.44,3.32h.26c.13,0,.13-.08.26-.08-.13,0-.13-.07-.26-.07h-.26c-.12,0-.12.07,0,.15Z" transform="translate(0 0)"/><path class="a" d="M119.67,3.4a4.45,4.45,0,0,1,.51.07c.13,0,.13-.07.26-.07-.13,0-.13-.08-.26-.08A1.49,1.49,0,0,0,119.67,3.4Z" transform="translate(0 0)"/><path class="a" d="M95.46,3.94A.64.64,0,0,0,95.2,4v.08c.13.08.51.08.51,0S95.59,4,95.46,3.94Z" transform="translate(0 0)"/><path class="a" d="M89.44,4.4a.57.57,0,0,0,.51,0V4.32A.45.45,0,0,0,89.44,4.4Z" transform="translate(0 0)"/><path class="a" d="M141.46,3.55s.26-.08.26-.15a.57.57,0,0,0-.51,0v.07C141.21,3.55,141.33,3.55,141.46,3.55Z" transform="translate(0 0)"/><path class="a" d="M70.85,5.64a.67.67,0,0,0,.52,0V5.56c0-.08-.39-.08-.52.08Z" transform="translate(0 0)"/><path class="a" d="M170.67,3.55c.13.16.51.16.51.08V3.55A.35.35,0,0,0,170.67,3.55Z" transform="translate(0 0)"/><path class="a" d="M211.68,2.47c-.13,0-.13.08-.26.08.13,0,.26.07.39.07s.38.08.25-.07a.57.57,0,0,0-.25-.08Z" transform="translate(0 0)"/><path class="a" d="M38.82,8c.13,0,.26-.08.39-.08-.13,0-.26-.07-.39-.07s-.13.07-.25.07A.3.3,0,0,0,38.82,8Z" transform="translate(0 0)"/><path class="a" d="M109.3,7s.26-.08.26-.16a.67.67,0,0,0-.52,0v.08A.55.55,0,0,1,109.3,7Z" transform="translate(0 0)"/><path class="a" d="M122.5,6.87a.57.57,0,0,0,.51,0V6.79a.45.45,0,0,0-.51.08Z" transform="translate(0 0)"/><path class="a" d="M118.65,7.18s.26-.08.26-.16a.67.67,0,0,0-.52,0V7.1C118.39,7.18,118.52,7.18,118.65,7.18Z" transform="translate(0 0)"/><path class="a" d="M81.75,8a.52.52,0,0,0-.25.08v.07c.12.08.51.08.51,0S81.75,8,81.75,8Z" transform="translate(0 0)"/><path class="a" d="M120.19,7.26a.65.65,0,0,0,.51,0V7.18c0-.08-.38-.08-.51.08Z" transform="translate(0 0)"/><path class="a" d="M110.32,7.41c-.13,0-.25.08-.38.08.13,0,.25.08.38.08s.13-.08.26-.08C110.45,7.49,110.45,7.41,110.32,7.41Z" transform="translate(0 0)"/><path class="a" d="M92.64,8.18a.57.57,0,0,0,.51,0V8.11c0-.08-.38-.08-.51.07Z" transform="translate(0 0)"/><path class="a" d="M91.62,8.11a.61.61,0,0,1-.26.07c.13,0,.13.08.26.08s.25-.08.38-.08A.75.75,0,0,0,91.62,8.11Z" transform="translate(0 0)"/><path class="a" d="M90.08,8.18h0c.13.16.51.16.51.08V8.18A.65.65,0,0,0,90.08,8.18Z" transform="translate(0 0)"/><path class="a" d="M20.24,10.27a.64.64,0,0,0-.26.07v.08c.13.08.52.08.52,0Z" transform="translate(0 0)"/><path class="a" d="M190.54,5.71a.58.58,0,0,0-.26.08v.08c.13.07.51.07.51,0S190.54,5.71,190.54,5.71Z" transform="translate(0 0)"/><path class="a" d="M181.82,6.1a.59.59,0,0,0,.52,0V6c0-.08-.39-.08-.52.08Z" transform="translate(0 0)"/><path class="a" d="M17,10.81a.65.65,0,0,0,.51,0v-.08a.42.42,0,0,0-.51.08Z" transform="translate(0 0)"/><path class="a" d="M161.71,7S162,7,162,6.87a.57.57,0,0,0-.51,0V7C161.45,7,161.58,7,161.71,7Z" transform="translate(0 0)"/><path class="a" d="M178.11,6.79s.25-.07.25-.15-.38-.08-.51,0v.08A.61.61,0,0,1,178.11,6.79Z" transform="translate(0 0)"/><path class="a" d="M13.2,11.19h0c.13.16.51.16.51.08v-.08A.65.65,0,0,0,13.2,11.19Z" transform="translate(0 0)"/><path class="a" d="M206.29,6.25a.57.57,0,0,0,.51,0V6.18C206.8,6.1,206.42,6.1,206.29,6.25Z" transform="translate(0 0)"/><path class="a" d="M235.25,5.56h0c.13.15.52.15.52.08V5.56C235.64,5.48,235.25,5.48,235.25,5.56Z" transform="translate(0 0)"/><path class="a" d="M210.78,6.41h0c.13.15.51.15.51.07V6.41C211.29,6.33,210.91,6.33,210.78,6.41Z" transform="translate(0 0)"/><path class="a" d="M201.55,6.79a.52.52,0,0,0-.25.08V7c.12.07.51.07.51,0S201.55,6.87,201.55,6.79Z" transform="translate(0 0)"/><path class="a" d="M216.29,7c0,.08.25.08.51,0,0,0,.13,0,.13-.07s0-.08-.13-.08a2.12,2.12,0,0,1-.51.15Z" transform="translate(0 0)"/><path class="a" d="M173.75,8.26H174c.12,0,.12-.08.25-.08-.13,0-.13-.07-.25-.07h-.26s-.13.07,0,.15Z" transform="translate(0 0)"/><path class="a" d="M190.91,8.26a4.26,4.26,0,0,1,.51.08c.13,0,.13-.08.26-.08-.13,0-.13-.08-.26-.08A1.46,1.46,0,0,0,190.91,8.26Z" transform="translate(0 0)"/><path class="a" d="M183,8.49c0,.08.26.08.51,0,0,0,.13,0,.13-.08s0-.07-.13-.07a3.37,3.37,0,0,1-.51.15C183.1,8.41,183.1,8.49,183,8.49Z" transform="translate(0 0)"/><path class="a" d="M182.08,8.57s.26-.08.26-.16a.67.67,0,0,0-.52,0v.08C181.82,8.57,182,8.57,182.08,8.57Z" transform="translate(0 0)"/><path class="a" d="M206.67,8a.5.5,0,0,1-.25.08c.13,0,.13.07.25.07s.26-.07.39-.07A.69.69,0,0,1,206.67,8Z" transform="translate(0 0)"/><path class="a" d="M239.48,7.33H239s-.13.08-.13.16l.13.08h.51Z" transform="translate(0 0)"/><path class="a" d="M242.94,9.5a.65.65,0,0,0,.51,0V9.42a.42.42,0,0,0-.51.08Z" transform="translate(0 0)"/><path class="a" d="M260.62,9.88a.59.59,0,0,0,.52,0V9.8c0-.07-.39-.07-.52.08Z" transform="translate(0 0)"/><path class="a" d="M258.19,11.12a.65.65,0,0,0,.51,0V11C258.7,11,258.32,11,258.19,11.12Z" transform="translate(0 0)"/><path class="a" d="M86.62,18.53a.65.65,0,0,0,.51,0v-.08c-.13-.08-.51-.08-.51.08Z" transform="translate(0 0)"/><path class="a" d="M129.15,17.76c.13,0,.13.15.26.07s.13-.23,0-.31h-.13C129.28,17.68,129.28,17.68,129.15,17.76Z" transform="translate(0 0)"/><path class="a" d="M128.64,17.52a.42.42,0,0,0-.13.31c0,.08.13.08.13.16,0-.08.13-.08.13-.16S128.77,17.68,128.64,17.52Z" transform="translate(0 0)"/><path class="a" d="M143.5,17.76a4.82,4.82,0,0,1,.51.07c.13,0,.13-.07.26-.07-.13,0-.13-.08-.26-.08A4.26,4.26,0,0,1,143.5,17.76Z" transform="translate(0 0)"/><path class="a" d="M153.37,17.68a.59.59,0,0,0,.52,0V17.6A.61.61,0,0,0,153.37,17.68Z" transform="translate(0 0)"/><path class="a" d="M136.46,18.76s.25-.08.25-.16-.38-.07-.51,0v.08C136.2,18.76,136.33,18.76,136.46,18.76Z" transform="translate(0 0)"/><path class="a" d="M217.57,17.21s.25-.07.25-.15a.57.57,0,0,0-.51,0v.08A.37.37,0,0,0,217.57,17.21Z" transform="translate(0 0)"/><path class="a" d="M199.63,17.68a.59.59,0,0,0,.52,0V17.6c0-.08-.39-.08-.52.08Z" transform="translate(0 0)"/><path class="a" d="M176.69,18.3H177c.12,0,.12-.08.25-.08-.13,0-.13-.08-.25-.08h-.26c-.13.08-.13.08,0,.16Z" transform="translate(0 0)"/><path class="a" d="M222.18,17.21a.57.57,0,0,0,.51,0v-.07c-.13-.08-.51-.08-.51.07Z" transform="translate(0 0)"/><path class="a" d="M187.84,18.06a.52.52,0,0,0-.25.08v.08c.12.08.51.08.51,0Z" transform="translate(0 0)"/><path class="a" d="M223.85,17.37h.25c.13,0,.13-.08.26-.08-.13,0-.13-.08-.26-.08h-.25c-.13.08-.13.08,0,.16Z" transform="translate(0 0)"/><path class="a" d="M174.39,18.68a.59.59,0,0,0,.52,0V18.6A.46.46,0,0,0,174.39,18.68Z" transform="translate(0 0)"/><path class="a" d="M206.42,18.06c-.13,0-.26.08-.38.08.12,0,.25.08.38.08s.13-.08.26-.08A.58.58,0,0,0,206.42,18.06Z" transform="translate(0 0)"/><path class="a" d="M242.68,17.45h0c.13.15.51.15.51.07v-.07C243.19,17.37,242.81,17.37,242.68,17.45Z" transform="translate(0 0)"/><path class="a" d="M220.13,18.3a5.12,5.12,0,0,1,.52.07c.12,0,.12-.07.25-.07-.13,0-.13-.08-.25-.08A1.51,1.51,0,0,0,220.13,18.3Z" transform="translate(0 0)"/><path class="a" d="M203,18.91h0c.13.16.52.16.52.08v-.08A.67.67,0,0,0,203,18.91Z" transform="translate(0 0)"/><path class="a" d="M202.32,18.84a.64.64,0,0,0-.26.07V19c.13.08.51.08.51,0S202.45,18.91,202.32,18.84Z" transform="translate(0 0)"/><path class="a" d="M235.12,18.14a.52.52,0,0,0-.25.08v.08c.12.07.51.07.51,0Z" transform="translate(0 0)"/><path class="a" d="M247.3,18.53a.64.64,0,0,0-.26.07v.08c.13.08.51.08.51,0S247.43,18.53,247.3,18.53Z" transform="translate(0 0)"/><path class="a" d="M249.6,19.84c-.13-.08-.13-.16-.25-.16H249c.13.08.13.16.26.16Z" transform="translate(0 0)"/><path class="a" d="M161.32.15c.13,0,.13.08,0,0,.13,0,.25,0,.25-.07s-.12,0-.12-.08C161.45.08,161.45.08,161.32.15Z" transform="translate(0 0)"/><path class="a" d="M176.45.54c.12,0,.12.08.25.08s0-.08,0-.16S176.45.46,176.45.54Z" transform="translate(0 0)"/><path class="a" d="M178.74.69c.13,0,.13.08.26.08s0-.08,0-.15-.26,0-.26.07Z" transform="translate(0 0)"/><path class="a" d="M128.26,3.17h0c.13,0,.26,0,.26-.08s-.13,0-.13-.08C128.26,3.09,128.26,3.17,128.26,3.17Z" transform="translate(0 0)"/><path class="a" d="M123.78,3.17c0,.07-.13.07-.13.15s.13,0,.13.08c.12-.08.12-.16,0-.23C123.9,3.24,123.9,3.17,123.78,3.17Z" transform="translate(0 0)"/><path class="a" d="M86.36,4.55l.13-.07a.24.24,0,0,0-.25,0v.07Z" transform="translate(0 0)"/><path class="a" d="M140.3,3.4h0c0-.08,0-.08-.12-.08s-.13,0-.13.08Z" transform="translate(0 0)"/><path class="a" d="M78.67,5.09c.13,0,.13-.07.26-.07l-.13-.08c-.13.08-.25.08-.13.15Z" transform="translate(0 0)"/><path class="a" d="M74.32,5.33l-.13-.08-.13.08a.29.29,0,0,0,.26,0C74.19,5.4,74.32,5.4,74.32,5.33Z" transform="translate(0 0)"/><path class="a" d="M176.7,3.55c.13,0,.13.08.25.08s.13,0,.13-.08-.13-.08-.38,0C176.83,3.47,176.83,3.55,176.7,3.55Z" transform="translate(0 0)"/><path class="a" d="M214,2.86c-.13,0-.13-.08,0,0-.13,0-.26,0-.26.07s.13,0,.13.08C213.85,2.93,213.85,2.86,214,2.86Z" transform="translate(0 0)"/><path class="a" d="M214.49,3h0c0,.08,0,.08.13.08s.13,0,.13-.08Z" transform="translate(0 0)"/><path class="a" d="M102.5,6.87h0c.13,0,.26,0,.26-.08s-.13,0-.13-.07S102.5,6.79,102.5,6.87Z" transform="translate(0 0)"/><path class="a" d="M102,6.79c0,.08-.12.08-.12.16S102,7,102,7c0-.15.13-.15,0-.23Z" transform="translate(0 0)"/><path class="a" d="M93.28,7c0,.08-.13.08-.13.16s.13,0,.13.08c.12-.16.12-.16,0-.24Z" transform="translate(0 0)"/><path class="a" d="M52.66,8.18c-.13,0-.13.08-.26.08l.13.08C52.66,8.26,52.66,8.26,52.66,8.18Z" transform="translate(0 0)"/><path class="a" d="M111.86,6.64h0v.15H112V6.72Z" transform="translate(0 0)"/><path class="a" d="M103.78,7c.13,0,.13.07.26.07s.13,0,.13-.07Z" transform="translate(0 0)"/><path class="a" d="M94.05,7.26l-.13-.08-.12.08Z" transform="translate(0 0)"/><path class="a" d="M112.11,6.87c.13,0,.13.08.26.08s0-.08,0-.16S112.11,6.79,112.11,6.87Z" transform="translate(0 0)"/><path class="a" d="M68,8.34c.13,0,.13-.08.26-.08l-.13-.08c-.13.08-.26.08-.13.16Z" transform="translate(0 0)"/><path class="a" d="M107.76,7.49c.13,0,.13-.08.26-.08l-.13-.08c-.13,0-.13,0-.13.16C107.63,7.41,107.76,7.41,107.76,7.49Z" transform="translate(0 0)"/><path class="a" d="M100.71,7.49c0,.08-.13.08,0,0,0,.08,0,.08.13.08s.13,0,.13-.08C100.84,7.57,100.84,7.57,100.71,7.49Z" transform="translate(0 0)"/><path class="a" d="M96.23,7.64h0V7.8h.13V7.72S96.36,7.64,96.23,7.64Z" transform="translate(0 0)"/><path class="a" d="M59.71,8.65c0,.07-.13.07-.13.15s.13,0,.13.08c0-.08.13-.16,0-.23Z" transform="translate(0 0)"/><path class="a" d="M43.69,9.11c0,.08-.13.08-.13.15s.13,0,.13.08c0-.15.13-.15,0-.23Z" transform="translate(0 0)"/><path class="a" d="M11.28,10c0,.08,0,.08.13.08s.13,0,.13-.08C11.41,10,11.28,10,11.28,10Z" transform="translate(0 0)"/><path class="a" d="M112.63,7.33c0,.08-.13.08-.13.16s.13,0,.13.08c0-.08.12-.16,0-.24Z" transform="translate(0 0)"/><path class="a" d="M96.48,7.87c.13,0,.13.08.26.08s0-.08,0-.15c-.26,0-.26,0-.26.07Z" transform="translate(0 0)"/><path class="a" d="M140.18,6.79h0V7h.12V6.87C140.3,6.79,140.3,6.79,140.18,6.79Z" transform="translate(0 0)"/><path class="a" d="M63.43,9l-.13-.07L63.17,9A.26.26,0,0,0,63.43,9Z" transform="translate(0 0)"/><path class="a" d="M140.43,7c.13,0,.13.08.26.08s0-.08,0-.15-.26,0-.26.07Z" transform="translate(0 0)"/><path class="a" d="M45.61,9.57c0,.08-.13.08-.13.16s.13,0,.13.07c.13-.15.13-.15,0-.23Z" transform="translate(0 0)"/><path class="a" d="M112,7.87c0,.08-.13.08-.13.16s.13,0,.13.08q.18-.12,0-.24C112.11,8,112.11,7.87,112,7.87Z" transform="translate(0 0)"/><path class="a" d="M107.51,8.11l.12.07.13-.07c-.13,0-.13-.08-.25,0Z" transform="translate(0 0)"/><path class="a" d="M100.07,8.34h0c.13,0,.26,0,.26-.08s-.13,0-.13-.08C100.2,8.26,100.07,8.26,100.07,8.34Z" transform="translate(0 0)"/><path class="a" d="M31.65,10.58c0-.08,0-.08-.13-.08s-.13,0-.13.08Z" transform="translate(0 0)"/><path class="a" d="M217.44,5.56l.13.07.13-.07h-.26C217.57,5.48,217.57,5.56,217.44,5.56Z" transform="translate(0 0)"/><path class="a" d="M190.41,6.33h0c-.13,0-.26,0-.26.08s.13,0,.13.07S190.41,6.33,190.41,6.33Z" transform="translate(0 0)"/><path class="a" d="M184.12,6.64h0c-.12,0-.25,0-.25.08s.13,0,.13.07S184,6.72,184.12,6.64Z" transform="translate(0 0)"/><path class="a" d="M176.18,7.26c0,.07.13.07,0,0,.13,0,.26,0,.26-.08s-.13,0-.13-.08C176.31,7.18,176.18,7.26,176.18,7.26Z" transform="translate(0 0)"/><path class="a" d="M209.11,6.64c-.12,0-.25,0-.25.08s.13,0,.13.07S209.11,6.72,209.11,6.64Z" transform="translate(0 0)"/><path class="a" d="M200.4,6.87c0,.08-.13.08-.13.15s.13,0,.13.08c0-.15.13-.15,0-.23Z" transform="translate(0 0)"/><path class="a" d="M210.27,6.87c.13,0,.13-.08.26-.08l-.13-.07C210.27,6.79,210.27,6.79,210.27,6.87Z" transform="translate(0 0)"/><path class="a" d="M242.56,6.48l-.13-.07-.13.07Z" transform="translate(0 0)"/><path class="a" d="M238.2,7.1c.13,0,.13.08.26.08s.13,0,.13-.08-.26-.08-.39,0Z" transform="translate(0 0)"/><path class="a" d="M20.76,13.28c.13,0,.13.07.26.07s.12,0,.12-.07Z" transform="translate(0 0)"/><path class="a" d="M193.87,8.8c-.13,0-.13.08-.26.08l.13.07c.13-.07.13-.07.13-.15Z" transform="translate(0 0)"/><path class="a" d="M254.73,7.8c.12,0,.12-.08.25-.08l-.13-.08c-.12,0-.12.08-.12.16Z" transform="translate(0 0)"/><path class="a" d="M221,8.8l.13.08.13-.08C221.16,8.8,221.16,8.72,221,8.8Z" transform="translate(0 0)"/><path class="a" d="M8.2,15c-.13,0-.13.07-.26.07l.13.08c.13-.08.25-.08.13-.15C8.32,15.05,8.32,15,8.2,15Z" transform="translate(0 0)"/><path class="a" d="M241.15,9.19c0,.07-.13.07-.13.15s.13,0,.13.08V9.19C241.27,9.26,241.15,9.26,241.15,9.19Z" transform="translate(0 0)"/><path class="a" d="M253.7,10.42c.13,0,.26,0,.26-.08s-.13,0-.13-.07S253.7,10.34,253.7,10.42Z" transform="translate(0 0)"/><path class="a" d="M61.25,18.06c-.13,0-.13.08,0,0v.16h.13v-.08Z" transform="translate(0 0)"/><path class="a" d="M50.1,18.6h0c-.13,0-.26,0-.26.08s.13,0,.13.08C50.1,18.68,50.1,18.6,50.1,18.6Z" transform="translate(0 0)"/><path class="a" d="M84.18,18.45h0c0-.08,0-.08-.13-.08s-.13,0-.13.08C84.05,18.37,84.05,18.45,84.18,18.45Z" transform="translate(0 0)"/><path class="a" d="M81.75,18.37h0c0,.08,0,.08.13.08s.13,0,.13-.08C81.88,18.45,81.88,18.37,81.75,18.37Z" transform="translate(0 0)"/><path class="a" d="M105.2,18h0c.12,0,.25,0,.25-.08s-.13,0-.13-.08C105.2,17.91,105.2,18,105.2,18Z" transform="translate(0 0)"/><path class="a" d="M60.61,19.14c0,.08,0,.08.13.08s.12,0,.12-.08Z" transform="translate(0 0)"/><path class="a" d="M28.44,20.07c-.13,0-.13-.08,0,0-.13,0-.26,0-.26.08s.13,0,.13.08C28.31,20.15,28.31,20.07,28.44,20.07Z" transform="translate(0 0)"/><path class="a" d="M118.27,17.75l.13.08.12-.08h-.25C118.4,17.68,118.4,17.75,118.27,17.75Z" transform="translate(0 0)"/><path class="a" d="M136,17.83c.13,0,.13.08.25.08s.13,0,.13-.08a.37.37,0,0,0-.38,0Z" transform="translate(0 0)"/><path class="a" d="M67.78,19.61c0,.07-.13.07-.13.15s.13,0,.13.08c.13-.08.13-.16,0-.23Z" transform="translate(0 0)"/><path class="a" d="M165.55,17.21h0c.13,0,.25,0,.25-.07s-.12,0-.12-.08C165.55,17.14,165.55,17.14,165.55,17.21Z" transform="translate(0 0)"/><path class="a" d="M164.27,17.14h0c0,.07,0,.07.13.07s.12,0,.12-.07S164.4,17.14,164.27,17.14Z" transform="translate(0 0)"/><path class="a" d="M142.74,17.83c.13,0,.13.08.26.08s.12,0,.12-.08a.37.37,0,0,0-.38,0Z" transform="translate(0 0)"/><path class="a" d="M111.47,18.76c0,.08-.12.08-.12.15s.12,0,.12.08c0-.08.13-.15,0-.23Z" transform="translate(0 0)"/><path class="a" d="M115.06,19h0c0-.08,0-.08-.13-.08s-.13,0-.13.08C114.93,18.91,114.93,19,115.06,19Z" transform="translate(0 0)"/><path class="a" d="M193.87,17.21l.13-.07a.26.26,0,0,0-.26,0v.07Z" transform="translate(0 0)"/><path class="a" d="M212.19,17c.13,0,.13-.07.26-.07l-.13-.08C212.19,16.91,212.19,16.91,212.19,17Z" transform="translate(0 0)"/><path class="a" d="M216.54,17c.13,0,.13.08.26.08s.13,0,.13-.08-.13-.07-.39,0C216.67,16.91,216.67,17,216.54,17Z" transform="translate(0 0)"/><path class="a" d="M188.48,17.83c0,.08-.13.08,0,0V18h.13v-.08Z" transform="translate(0 0)"/><path class="a" d="M164.9,18.68h0c0-.08,0-.08-.13-.08s-.12,0-.12.08C164.77,18.6,164.77,18.6,164.9,18.68Z" transform="translate(0 0)"/><path class="a" d="M163.12,18.6c0,.08,0,.08.12.08s.13,0,.13-.08Z" transform="translate(0 0)"/><path class="a" d="M226.16,17.14c0,.07-.13.07-.13.15s.13,0,.13.08v-.23Z" transform="translate(0 0)"/><path class="a" d="M217.83,17.52h0c0-.07,0-.07-.13-.07s-.13,0-.13.07Z" transform="translate(0 0)"/><path class="a" d="M176.32,18.68c.12,0,.12-.08.25-.08l-.13-.07C176.32,18.6,176.32,18.6,176.32,18.68Z" transform="translate(0 0)"/><path class="a" d="M221.16,17.6c.13,0,.13.08.25.08s.13,0,.13-.08a.33.33,0,0,0-.38,0Z" transform="translate(0 0)"/><path class="a" d="M185,18.6c.13,0,.13-.07.26-.07l-.13-.08c-.13.08-.13.08-.13.15Z" transform="translate(0 0)"/><path class="a" d="M266.51,16.75c.13,0,.13-.08.26-.08l-.13-.07c-.13,0-.13.07-.13.15C266.39,16.67,266.51,16.67,266.51,16.75Z" transform="translate(0 0)"/><path class="a" d="M244.6,17.45l.13.07.13-.07s0-.08-.26,0Z" transform="translate(0 0)"/><path class="a" d="M231.15,17.83l-.13-.07-.12.07h.25C231,17.91,231,17.83,231.15,17.83Z" transform="translate(0 0)"/><path class="a" d="M199.37,18.91l-.13-.07-.12.07Z" transform="translate(0 0)"/><path class="a" d="M224.62,18.37c.12,0,.12-.07.25-.07l-.13-.08c-.12.08-.25.08-.12.15Z" transform="translate(0 0)"/><path class="a" d="M223.46,18.37l.13.08.13-.08s0-.07-.26,0Z" transform="translate(0 0)"/><path class="a" d="M263.7,19.38l-.13-.08-.13.08c.13,0,.13.07.26,0Z" transform="translate(0 0)"/><path class="a" d="M260.88,19.45c.13,0,.13.08,0,0,.13,0,.26,0,.26-.07s-.13,0-.13-.08C261,19.38,261,19.45,260.88,19.45Z" transform="translate(0 0)"/><path class="a" d="M227.18,17.37c.13,0,.13.08.25.08s.13,0,.13-.08Z" transform="translate(0 0)"/></svg>